<svg xmlns="http://www.w3.org/2000/svg" xmlns:xlink="http://www.w3.org/1999/xlink" width="256" zoomAndPan="magnify" viewBox="0 0 192 191.999996" height="256" preserveAspectRatio="xMidYMid meet" version="1.0"><defs><g/><clipPath id="bff1b84bf9"><path d="M 30.597656 14.707031 L 161.097656 14.707031 L 161.097656 145.207031 L 30.597656 145.207031 Z M 30.597656 14.707031 " clip-rule="nonzero"/></clipPath><clipPath id="55e93ace57"><path d="M 161.097656 79.957031 C 161.097656 81.027344 161.074219 82.09375 161.019531 83.160156 C 160.96875 84.226562 160.890625 85.292969 160.785156 86.355469 C 160.679688 87.417969 160.550781 88.476562 160.394531 89.53125 C 160.238281 90.589844 160.054688 91.640625 159.84375 92.6875 C 159.636719 93.734375 159.402344 94.777344 159.144531 95.8125 C 158.882812 96.847656 158.597656 97.878906 158.289062 98.898438 C 157.980469 99.921875 157.644531 100.933594 157.285156 101.941406 C 156.925781 102.945312 156.542969 103.941406 156.132812 104.929688 C 155.722656 105.914062 155.292969 106.890625 154.835938 107.855469 C 154.378906 108.820312 153.898438 109.777344 153.394531 110.71875 C 152.890625 111.660156 152.363281 112.589844 151.816406 113.503906 C 151.265625 114.421875 150.695312 115.320312 150.101562 116.210938 C 149.507812 117.097656 148.894531 117.96875 148.257812 118.828125 C 147.621094 119.6875 146.964844 120.527344 146.289062 121.351562 C 145.609375 122.179688 144.914062 122.988281 144.195312 123.777344 C 143.480469 124.570312 142.742188 125.34375 141.988281 126.097656 C 141.234375 126.851562 140.460938 127.589844 139.667969 128.304688 C 138.878906 129.023438 138.070312 129.71875 137.242188 130.398438 C 136.417969 131.074219 135.578125 131.730469 134.71875 132.367188 C 133.859375 133.003906 132.988281 133.617188 132.101562 134.210938 C 131.210938 134.804688 130.308594 135.375 129.394531 135.925781 C 128.480469 136.476562 127.550781 137 126.609375 137.503906 C 125.667969 138.007812 124.710938 138.488281 123.746094 138.945312 C 122.78125 139.402344 121.804688 139.832031 120.820312 140.242188 C 119.832031 140.652344 118.835938 141.035156 117.832031 141.394531 C 116.824219 141.753906 115.8125 142.089844 114.789062 142.398438 C 113.769531 142.710938 112.738281 142.992188 111.703125 143.253906 C 110.667969 143.511719 109.625 143.746094 108.578125 143.957031 C 107.53125 144.164062 106.480469 144.347656 105.421875 144.503906 C 104.367188 144.660156 103.308594 144.789062 102.246094 144.894531 C 101.183594 145 100.117188 145.078125 99.050781 145.128906 C 97.984375 145.183594 96.917969 145.207031 95.847656 145.207031 C 94.78125 145.207031 93.714844 145.183594 92.648438 145.128906 C 91.582031 145.078125 90.515625 145 89.453125 144.894531 C 88.390625 144.789062 87.332031 144.660156 86.273438 144.503906 C 85.21875 144.347656 84.167969 144.164062 83.121094 143.957031 C 82.074219 143.746094 81.03125 143.511719 79.996094 143.253906 C 78.957031 142.992188 77.929688 142.710938 76.910156 142.398438 C 75.886719 142.089844 74.871094 141.753906 73.867188 141.394531 C 72.863281 141.035156 71.867188 140.652344 70.878906 140.242188 C 69.894531 139.832031 68.917969 139.402344 67.953125 138.945312 C 66.984375 138.488281 66.03125 138.007812 65.089844 137.503906 C 64.148438 137 63.21875 136.476562 62.304688 135.925781 C 61.386719 135.375 60.484375 134.804688 59.597656 134.210938 C 58.710938 133.617188 57.835938 133.003906 56.980469 132.367188 C 56.121094 131.730469 55.28125 131.074219 54.457031 130.398438 C 53.628906 129.71875 52.820312 129.023438 52.03125 128.304688 C 51.238281 127.589844 50.464844 126.851562 49.710938 126.097656 C 48.957031 125.34375 48.21875 124.570312 47.503906 123.777344 C 46.785156 122.988281 46.085938 122.179688 45.410156 121.351562 C 44.734375 120.527344 44.074219 119.6875 43.441406 118.828125 C 42.804688 117.96875 42.1875 117.097656 41.597656 116.210938 C 41.003906 115.320312 40.429688 114.421875 39.882812 113.503906 C 39.332031 112.589844 38.808594 111.660156 38.304688 110.71875 C 37.800781 109.777344 37.320312 108.820312 36.863281 107.855469 C 36.40625 106.890625 35.976562 105.914062 35.566406 104.929688 C 35.15625 103.941406 34.773438 102.945312 34.414062 101.941406 C 34.054688 100.933594 33.71875 99.921875 33.410156 98.898438 C 33.097656 97.878906 32.8125 96.847656 32.554688 95.8125 C 32.296875 94.777344 32.0625 93.734375 31.851562 92.6875 C 31.644531 91.640625 31.460938 90.589844 31.304688 89.53125 C 31.148438 88.476562 31.019531 87.417969 30.914062 86.355469 C 30.808594 85.292969 30.730469 84.226562 30.679688 83.160156 C 30.625 82.09375 30.597656 81.027344 30.597656 79.957031 C 30.597656 78.890625 30.625 77.824219 30.679688 76.757812 C 30.730469 75.691406 30.808594 74.625 30.914062 73.5625 C 31.019531 72.5 31.148438 71.441406 31.304688 70.382812 C 31.460938 69.328125 31.644531 68.277344 31.851562 67.230469 C 32.0625 66.183594 32.296875 65.140625 32.554688 64.105469 C 32.8125 63.070312 33.097656 62.039062 33.410156 61.019531 C 33.71875 59.996094 34.054688 58.980469 34.414062 57.976562 C 34.773438 56.972656 35.15625 55.976562 35.566406 54.988281 C 35.976562 54.003906 36.40625 53.027344 36.863281 52.0625 C 37.320312 51.09375 37.800781 50.140625 38.304688 49.199219 C 38.808594 48.257812 39.332031 47.328125 39.882812 46.414062 C 40.429688 45.496094 41.003906 44.597656 41.597656 43.707031 C 42.1875 42.820312 42.804688 41.945312 43.441406 41.089844 C 44.074219 40.230469 44.734375 39.390625 45.410156 38.566406 C 46.085938 37.738281 46.785156 36.929688 47.503906 36.140625 C 48.21875 35.347656 48.957031 34.574219 49.710938 33.820312 C 50.464844 33.066406 51.238281 32.328125 52.03125 31.613281 C 52.820312 30.894531 53.628906 30.199219 54.457031 29.519531 C 55.28125 28.84375 56.121094 28.1875 56.980469 27.550781 C 57.835938 26.914062 58.710938 26.296875 59.597656 25.707031 C 60.484375 25.113281 61.386719 24.542969 62.304688 23.992188 C 63.21875 23.441406 64.148438 22.917969 65.089844 22.414062 C 66.03125 21.910156 66.984375 21.429688 67.953125 20.972656 C 68.917969 20.515625 69.894531 20.085938 70.878906 19.675781 C 71.867188 19.265625 72.863281 18.882812 73.867188 18.523438 C 74.871094 18.164062 75.886719 17.828125 76.90625 17.519531 C 77.929688 17.207031 78.957031 16.921875 79.996094 16.664062 C 81.03125 16.40625 82.074219 16.171875 83.121094 15.960938 C 84.167969 15.753906 85.21875 15.570312 86.273438 15.414062 C 87.332031 15.257812 88.390625 15.128906 89.453125 15.023438 C 90.515625 14.917969 91.582031 14.839844 92.648438 14.789062 C 93.714844 14.734375 94.78125 14.707031 95.847656 14.707031 C 96.917969 14.707031 97.984375 14.734375 99.050781 14.789062 C 100.117188 14.839844 101.183594 14.917969 102.246094 15.023438 C 103.308594 15.128906 104.367188 15.257812 105.421875 15.414062 C 106.480469 15.570312 107.53125 15.753906 108.578125 15.960938 C 109.625 16.171875 110.667969 16.40625 111.703125 16.664062 C 112.738281 16.925781 113.769531 17.207031 114.789062 17.519531 C 115.8125 17.828125 116.824219 18.164062 117.832031 18.523438 C 118.835938 18.882812 119.832031 19.265625 120.820312 19.675781 C 121.804688 20.085938 122.78125 20.515625 123.746094 20.972656 C 124.710938 21.429688 125.667969 21.910156 126.609375 22.414062 C 127.550781 22.917969 128.480469 23.441406 129.394531 23.992188 C 130.308594 24.542969 131.210938 25.113281 132.101562 25.707031 C 132.988281 26.296875 133.859375 26.914062 134.71875 27.550781 C 135.578125 28.1875 136.417969 28.84375 137.242188 29.519531 C 138.070312 30.199219 138.878906 30.894531 139.667969 31.613281 C 140.460938 32.328125 141.234375 33.066406 141.988281 33.820312 C 142.742188 34.574219 143.480469 35.347656 144.195312 36.140625 C 144.914062 36.929688 145.609375 37.738281 146.289062 38.566406 C 146.964844 39.390625 147.621094 40.230469 148.257812 41.089844 C 148.894531 41.945312 149.507812 42.820312 150.101562 43.707031 C 150.695312 44.597656 151.265625 45.496094 151.816406 46.414062 C 152.363281 47.328125 152.890625 48.257812 153.394531 49.199219 C 153.898438 50.140625 154.378906 51.09375 154.835938 52.0625 C 155.292969 53.027344 155.722656 54.003906 156.132812 54.988281 C 156.542969 55.976562 156.925781 56.972656 157.285156 57.976562 C 157.644531 58.980469 157.980469 59.996094 158.289062 61.019531 C 158.597656 62.039062 158.882812 63.070312 159.144531 64.105469 C 159.402344 65.140625 159.636719 66.183594 159.84375 67.230469 C 160.054688 68.277344 160.238281 69.328125 160.394531 70.382812 C 160.550781 71.441406 160.679688 72.5 160.785156 73.5625 C 160.890625 74.625 160.96875 75.691406 161.019531 76.757812 C 161.074219 77.824219 161.097656 78.890625 161.097656 79.957031 Z M 161.097656 79.957031 " clip-rule="nonzero"/></clipPath><radialGradient gradientTransform="matrix(1, 0, 0, 1, 13.577547, -2.58737)" gradientUnits="userSpaceOnUse" r="100.225079" cx="72.834726" id="596c3907bf" cy="37.728771" fx="72.834726" fy="37.728771"><stop stop-opacity="1" stop-color="rgb(99.935913%, 16.015625%, 23.768616%)" offset="0"/><stop stop-opacity="1" stop-color="rgb(99.822998%, 15.870667%, 23.538208%)" offset="0.015625"/><stop stop-opacity="1" stop-color="rgb(99.726868%, 15.74707%, 23.34137%)" offset="0.0273438"/><stop stop-opacity="1" stop-color="rgb(99.630737%, 15.621948%, 23.144531%)" offset="0.0390625"/><stop stop-opacity="1" stop-color="rgb(99.534607%, 15.498352%, 22.947693%)" offset="0.0507812"/><stop stop-opacity="1" stop-color="rgb(99.438477%, 15.374756%, 22.749329%)" offset="0.0625"/><stop stop-opacity="1" stop-color="rgb(99.342346%, 15.249634%, 22.55249%)" offset="0.0742188"/><stop stop-opacity="1" stop-color="rgb(99.246216%, 15.126038%, 22.355652%)" offset="0.0859375"/><stop stop-opacity="1" stop-color="rgb(99.150085%, 15.000916%, 22.158813%)" offset="0.0976562"/><stop stop-opacity="1" stop-color="rgb(99.053955%, 14.877319%, 21.961975%)" offset="0.109375"/><stop stop-opacity="1" stop-color="rgb(98.957825%, 14.753723%, 21.765137%)" offset="0.121094"/><stop stop-opacity="1" stop-color="rgb(98.861694%, 14.628601%, 21.568298%)" offset="0.132812"/><stop stop-opacity="1" stop-color="rgb(98.765564%, 14.505005%, 21.37146%)" offset="0.144531"/><stop stop-opacity="1" stop-color="rgb(98.669434%, 14.379883%, 21.174622%)" offset="0.15625"/><stop stop-opacity="1" stop-color="rgb(98.573303%, 14.256287%, 20.977783%)" offset="0.167969"/><stop stop-opacity="1" stop-color="rgb(98.477173%, 14.13269%, 20.780945%)" offset="0.179688"/><stop stop-opacity="1" stop-color="rgb(98.381042%, 14.007568%, 20.584106%)" offset="0.191406"/><stop stop-opacity="1" stop-color="rgb(98.284912%, 13.883972%, 20.387268%)" offset="0.203125"/><stop stop-opacity="1" stop-color="rgb(98.188782%, 13.75885%, 20.19043%)" offset="0.214844"/><stop stop-opacity="1" stop-color="rgb(98.092651%, 13.635254%, 19.993591%)" offset="0.226562"/><stop stop-opacity="1" stop-color="rgb(97.996521%, 13.511658%, 19.796753%)" offset="0.238281"/><stop stop-opacity="1" stop-color="rgb(97.900391%, 13.386536%, 19.599915%)" offset="0.25"/><stop stop-opacity="1" stop-color="rgb(97.772217%, 13.221741%, 19.337463%)" offset="0.261719"/><stop stop-opacity="1" stop-color="rgb(97.612%, 13.014221%, 19.009399%)" offset="0.28125"/><stop stop-opacity="1" stop-color="rgb(97.451782%, 12.806702%, 18.681335%)" offset="0.300781"/><stop stop-opacity="1" stop-color="rgb(97.291565%, 12.600708%, 18.353271%)" offset="0.320312"/><stop stop-opacity="1" stop-color="rgb(97.131348%, 12.393188%, 18.025208%)" offset="0.339844"/><stop stop-opacity="1" stop-color="rgb(96.97113%, 12.185669%, 17.697144%)" offset="0.359375"/><stop stop-opacity="1" stop-color="rgb(96.827698%, 11.999512%, 17.402649%)" offset="0.378906"/><stop stop-opacity="1" stop-color="rgb(96.699524%, 11.834717%, 17.140198%)" offset="0.394531"/><stop stop-opacity="1" stop-color="rgb(96.57135%, 11.668396%, 16.877747%)" offset="0.410156"/><stop stop-opacity="1" stop-color="rgb(96.443176%, 11.502075%, 16.615295%)" offset="0.425781"/><stop stop-opacity="1" stop-color="rgb(96.315002%, 11.33728%, 16.352844%)" offset="0.441406"/><stop stop-opacity="1" stop-color="rgb(96.186829%, 11.170959%, 16.090393%)" offset="0.457031"/><stop stop-opacity="1" stop-color="rgb(96.058655%, 11.006165%, 15.827942%)" offset="0.472656"/><stop stop-opacity="1" stop-color="rgb(95.932007%, 10.839844%, 15.565491%)" offset="0.488281"/><stop stop-opacity="1" stop-color="rgb(95.819092%, 10.694885%, 15.335083%)" offset="0.503906"/><stop stop-opacity="1" stop-color="rgb(95.722961%, 10.571289%, 15.138245%)" offset="0.515625"/><stop stop-opacity="1" stop-color="rgb(95.626831%, 10.446167%, 14.941406%)" offset="0.527344"/><stop stop-opacity="1" stop-color="rgb(95.530701%, 10.322571%, 14.744568%)" offset="0.539062"/><stop stop-opacity="1" stop-color="rgb(95.43457%, 10.198975%, 14.546204%)" offset="0.550781"/><stop stop-opacity="1" stop-color="rgb(95.33844%, 10.073853%, 14.349365%)" offset="0.5625"/><stop stop-opacity="1" stop-color="rgb(95.24231%, 9.950256%, 14.152527%)" offset="0.574219"/><stop stop-opacity="1" stop-color="rgb(95.146179%, 9.825134%, 13.955688%)" offset="0.585938"/><stop stop-opacity="1" stop-color="rgb(95.050049%, 9.701538%, 13.75885%)" offset="0.597656"/><stop stop-opacity="1" stop-color="rgb(94.953918%, 9.577942%, 13.562012%)" offset="0.609375"/><stop stop-opacity="1" stop-color="rgb(94.857788%, 9.45282%, 13.365173%)" offset="0.621094"/><stop stop-opacity="1" stop-color="rgb(94.729614%, 9.288025%, 13.102722%)" offset="0.632812"/><stop stop-opacity="1" stop-color="rgb(94.569397%, 9.080505%, 12.774658%)" offset="0.652344"/><stop stop-opacity="1" stop-color="rgb(94.40918%, 8.872986%, 12.446594%)" offset="0.671875"/><stop stop-opacity="1" stop-color="rgb(94.265747%, 8.686829%, 12.1521%)" offset="0.691406"/><stop stop-opacity="1" stop-color="rgb(94.137573%, 8.522034%, 11.889648%)" offset="0.707031"/><stop stop-opacity="1" stop-color="rgb(94.009399%, 8.355713%, 11.627197%)" offset="0.722656"/><stop stop-opacity="1" stop-color="rgb(93.881226%, 8.190918%, 11.364746%)" offset="0.738281"/><stop stop-opacity="1" stop-color="rgb(93.768311%, 8.045959%, 11.134338%)" offset="0.753906"/><stop stop-opacity="1" stop-color="rgb(93.67218%, 7.920837%, 10.9375%)" offset="0.765625"/><stop stop-opacity="1" stop-color="rgb(93.57605%, 7.797241%, 10.740662%)" offset="0.777344"/><stop stop-opacity="1" stop-color="rgb(93.479919%, 7.672119%, 10.543823%)" offset="0.789062"/><stop stop-opacity="1" stop-color="rgb(93.383789%, 7.548523%, 10.346985%)" offset="0.800781"/><stop stop-opacity="1" stop-color="rgb(93.287659%, 7.424927%, 10.150146%)" offset="0.8125"/><stop stop-opacity="1" stop-color="rgb(93.159485%, 7.258606%, 9.887695%)" offset="0.824219"/><stop stop-opacity="1" stop-color="rgb(92.999268%, 7.051086%, 9.559631%)" offset="0.84375"/><stop stop-opacity="1" stop-color="rgb(92.855835%, 6.864929%, 9.265137%)" offset="0.863281"/><stop stop-opacity="1" stop-color="rgb(92.74292%, 6.719971%, 9.034729%)" offset="0.878906"/><stop stop-opacity="1" stop-color="rgb(92.64679%, 6.596375%, 8.837891%)" offset="0.890625"/><stop stop-opacity="1" stop-color="rgb(92.550659%, 6.471252%, 8.641052%)" offset="0.902344"/><stop stop-opacity="1" stop-color="rgb(92.422485%, 6.306458%, 8.378601%)" offset="0.914062"/><stop stop-opacity="1" stop-color="rgb(92.279053%, 6.1203%, 8.084106%)" offset="0.933594"/><stop stop-opacity="1" stop-color="rgb(92.166138%, 5.975342%, 7.853699%)" offset="0.949219"/><stop stop-opacity="1" stop-color="rgb(92.03949%, 5.809021%, 7.591248%)" offset="0.960938"/><stop stop-opacity="1" stop-color="rgb(91.879272%, 5.603027%, 7.263184%)" offset="0.980469"/><stop stop-opacity="1" stop-color="rgb(91.799927%, 5.499268%, 7.099915%)" offset="1"/></radialGradient></defs><g clip-path="url(#bff1b84bf9)"><g clip-path="url(#55e93ace57)"><path fill="url(#596c3907bf)" d="M 30.597656 14.707031 L 30.597656 145.207031 L 161.097656 145.207031 L 161.097656 14.707031 Z M 30.597656 14.707031 " fill-rule="nonzero"/></g></g><path fill="#ffffff" d="M 133.917969 75.109375 C 137.304688 77.03125 137.304688 81.972656 133.917969 83.894531 L 106.554688 99.632812 L 79.285156 115.464844 C 75.898438 117.386719 71.6875 115.007812 71.6875 111.074219 L 71.6875 47.929688 C 71.6875 43.992188 75.898438 41.613281 79.285156 43.535156 L 106.648438 59.277344 Z M 133.917969 75.109375 " fill-opacity="1" fill-rule="nonzero"/><g fill="#ff1616" fill-opacity="1"><g transform="translate(72.371237, 92.169724)"><g><path d="M 13.609375 -19.5 C 12.023438 -19.5 10.789062 -18.847656 9.90625 -17.546875 C 9.019531 -16.253906 8.578125 -14.472656 8.578125 -12.203125 C 8.578125 -7.460938 10.378906 -5.09375 13.984375 -5.09375 C 15.066406 -5.09375 16.117188 -5.242188 17.140625 -5.546875 C 18.160156 -5.847656 19.1875 -6.210938 20.21875 -6.640625 L 20.21875 -1.03125 C 18.164062 -0.113281 15.84375 0.34375 13.25 0.34375 C 9.539062 0.34375 6.695312 -0.734375 4.71875 -2.890625 C 2.738281 -5.046875 1.75 -8.160156 1.75 -12.234375 C 1.75 -14.773438 2.226562 -17.007812 3.1875 -18.9375 C 4.144531 -20.875 5.523438 -22.359375 7.328125 -23.390625 C 9.128906 -24.429688 11.242188 -24.953125 13.671875 -24.953125 C 16.328125 -24.953125 18.867188 -24.375 21.296875 -23.21875 L 19.265625 -17.984375 C 18.359375 -18.410156 17.445312 -18.769531 16.53125 -19.0625 C 15.625 -19.351562 14.648438 -19.5 13.609375 -19.5 Z M 13.609375 -19.5 "/></g></g></g><g fill="#ff1616" fill-opacity="1"><g transform="translate(94.723548, 92.169724)"><g><path d="M 24.8125 0 L 17.125 0 L 12.328125 -7.6875 L 7.59375 0 L 0.0625 0 L 8.21875 -12.578125 L 0.5625 -24.59375 L 7.921875 -24.59375 L 12.359375 -16.984375 L 16.640625 -24.59375 L 24.21875 -24.59375 L 16.4375 -12.0625 Z M 24.8125 0 "/></g></g></g><g fill="#ffffff" fill-opacity="1"><g transform="translate(97.845699, 128.266023)"><g><path d="M 0.484375 0 L 3.28125 -13.234375 L 6.046875 -13.234375 L 3.734375 -2.3125 L 8.359375 -2.3125 L 7.875 0 Z M 0.484375 0 "/></g></g></g><g fill="#ffffff" fill-opacity="1"><g transform="translate(107.445013, 128.266023)"><g><path d="M 2.90625 -12.484375 C 2.90625 -13.015625 3.046875 -13.410156 3.328125 -13.671875 C 3.617188 -13.941406 4.03125 -14.078125 4.5625 -14.078125 C 5 -14.078125 5.332031 -13.984375 5.5625 -13.796875 C 5.789062 -13.609375 5.90625 -13.34375 5.90625 -13 C 5.90625 -12.507812 5.769531 -12.113281 5.5 -11.8125 C 5.238281 -11.519531 4.832031 -11.375 4.28125 -11.375 C 3.363281 -11.375 2.90625 -11.742188 2.90625 -12.484375 Z M 3.0625 0 L 0.328125 0 L 2.484375 -10.109375 L 5.203125 -10.109375 Z M 3.0625 0 "/></g></g></g><g fill="#ffffff" fill-opacity="1"><g transform="translate(112.945842, 128.266023)"><g><path d="M 4.109375 -2.71875 C 4.441406 -3.644531 4.722656 -4.316406 4.953125 -4.734375 L 7.640625 -10.109375 L 10.5625 -10.109375 L 5.09375 0 L 2.171875 0 L 0.921875 -10.109375 L 3.59375 -10.109375 L 4 -4.8125 C 4.039062 -4.007812 4.0625 -3.3125 4.0625 -2.71875 Z M 4.109375 -2.71875 "/></g></g></g><g fill="#ffffff" fill-opacity="1"><g transform="translate(122.436587, 128.266023)"><g><path d="M 6.296875 -8.34375 C 5.765625 -8.34375 5.265625 -8.097656 4.796875 -7.609375 C 4.328125 -7.128906 4.019531 -6.546875 3.875 -5.859375 L 4.28125 -5.859375 C 5.21875 -5.859375 5.945312 -6.003906 6.46875 -6.296875 C 6.988281 -6.585938 7.25 -6.984375 7.25 -7.484375 C 7.25 -8.054688 6.929688 -8.34375 6.296875 -8.34375 Z M 4.8125 0.1875 C 3.539062 0.1875 2.554688 -0.148438 1.859375 -0.828125 C 1.160156 -1.515625 0.8125 -2.484375 0.8125 -3.734375 C 0.8125 -4.972656 1.0625 -6.109375 1.5625 -7.140625 C 2.0625 -8.171875 2.734375 -8.957031 3.578125 -9.5 C 4.429688 -10.039062 5.394531 -10.3125 6.46875 -10.3125 C 7.539062 -10.3125 8.375 -10.0625 8.96875 -9.5625 C 9.5625 -9.070312 9.859375 -8.398438 9.859375 -7.546875 C 9.859375 -6.421875 9.351562 -5.550781 8.34375 -4.9375 C 7.34375 -4.320312 5.90625 -4.015625 4.03125 -4.015625 L 3.578125 -4.015625 L 3.5625 -3.828125 L 3.5625 -3.640625 C 3.5625 -3.097656 3.710938 -2.664062 4.015625 -2.34375 C 4.328125 -2.03125 4.773438 -1.875 5.359375 -1.875 C 5.878906 -1.875 6.351562 -1.929688 6.78125 -2.046875 C 7.207031 -2.160156 7.726562 -2.363281 8.34375 -2.65625 L 8.34375 -0.59375 C 7.300781 -0.0703125 6.125 0.1875 4.8125 0.1875 Z M 4.8125 0.1875 "/></g></g></g><g fill="#a6a6a6" fill-opacity="1"><g transform="translate(30.609961, 163.586)"><g><path d="M 7.890625 -12.015625 C 6.753906 -12.015625 5.867188 -11.582031 5.234375 -10.71875 C 4.609375 -9.863281 4.296875 -8.671875 4.296875 -7.140625 C 4.296875 -3.929688 5.492188 -2.328125 7.890625 -2.328125 C 8.898438 -2.328125 10.125 -2.582031 11.5625 -3.09375 L 11.5625 -0.546875 C 10.382812 -0.046875 9.066406 0.203125 7.609375 0.203125 C 5.523438 0.203125 3.929688 -0.425781 2.828125 -1.6875 C 1.722656 -2.957031 1.171875 -4.78125 1.171875 -7.15625 C 1.171875 -8.644531 1.441406 -9.945312 1.984375 -11.0625 C 2.523438 -12.1875 3.300781 -13.046875 4.3125 -13.640625 C 5.332031 -14.242188 6.523438 -14.546875 7.890625 -14.546875 C 9.285156 -14.546875 10.6875 -14.210938 12.09375 -13.546875 L 11.109375 -11.0625 C 10.578125 -11.320312 10.039062 -11.546875 9.5 -11.734375 C 8.957031 -11.921875 8.421875 -12.015625 7.890625 -12.015625 Z M 7.890625 -12.015625 "/></g></g></g><g fill="#a6a6a6" fill-opacity="1"><g transform="translate(43.406949, 163.586)"><g><path d="M 9.34375 0 L 8.9375 -1.40625 L 8.78125 -1.40625 C 8.457031 -0.894531 8 -0.5 7.40625 -0.21875 C 6.820312 0.0625 6.15625 0.203125 5.40625 0.203125 C 4.113281 0.203125 3.140625 -0.140625 2.484375 -0.828125 C 1.835938 -1.523438 1.515625 -2.519531 1.515625 -3.8125 L 1.515625 -10.96875 L 4.5 -10.96875 L 4.5 -4.5625 C 4.5 -3.769531 4.640625 -3.175781 4.921875 -2.78125 C 5.203125 -2.382812 5.648438 -2.1875 6.265625 -2.1875 C 7.109375 -2.1875 7.710938 -2.460938 8.078125 -3.015625 C 8.453125 -3.578125 8.640625 -4.507812 8.640625 -5.8125 L 8.640625 -10.96875 L 11.640625 -10.96875 L 11.640625 0 Z M 9.34375 0 "/></g></g></g><g fill="#a6a6a6" fill-opacity="1"><g transform="translate(56.605982, 163.586)"><g><path d="M 9.21875 -3.25 C 9.21875 -2.125 8.828125 -1.265625 8.046875 -0.671875 C 7.265625 -0.0859375 6.097656 0.203125 4.546875 0.203125 C 3.742188 0.203125 3.0625 0.144531 2.5 0.03125 C 1.9375 -0.0703125 1.410156 -0.226562 0.921875 -0.4375 L 0.921875 -2.90625 C 1.472656 -2.644531 2.097656 -2.425781 2.796875 -2.25 C 3.492188 -2.070312 4.109375 -1.984375 4.640625 -1.984375 C 5.722656 -1.984375 6.265625 -2.300781 6.265625 -2.9375 C 6.265625 -3.164062 6.191406 -3.351562 6.046875 -3.5 C 5.910156 -3.65625 5.664062 -3.820312 5.3125 -4 C 4.957031 -4.1875 4.484375 -4.40625 3.890625 -4.65625 C 3.046875 -5.007812 2.425781 -5.335938 2.03125 -5.640625 C 1.632812 -5.941406 1.347656 -6.285156 1.171875 -6.671875 C 0.992188 -7.066406 0.90625 -7.546875 0.90625 -8.109375 C 0.90625 -9.085938 1.28125 -9.84375 2.03125 -10.375 C 2.789062 -10.90625 3.863281 -11.171875 5.25 -11.171875 C 6.570312 -11.171875 7.859375 -10.882812 9.109375 -10.3125 L 8.203125 -8.15625 C 7.648438 -8.382812 7.132812 -8.570312 6.65625 -8.71875 C 6.1875 -8.875 5.703125 -8.953125 5.203125 -8.953125 C 4.316406 -8.953125 3.875 -8.710938 3.875 -8.234375 C 3.875 -7.972656 4.015625 -7.742188 4.296875 -7.546875 C 4.585938 -7.347656 5.210938 -7.054688 6.171875 -6.671875 C 7.023438 -6.328125 7.648438 -6.003906 8.046875 -5.703125 C 8.453125 -5.398438 8.75 -5.050781 8.9375 -4.65625 C 9.125 -4.269531 9.21875 -3.800781 9.21875 -3.25 Z M 9.21875 -3.25 "/></g></g></g><g fill="#a6a6a6" fill-opacity="1"><g transform="translate(66.588609, 163.586)"><g><path d="M 6.1875 -2.1875 C 6.707031 -2.1875 7.335938 -2.300781 8.078125 -2.53125 L 8.078125 -0.296875 C 7.328125 0.0351562 6.410156 0.203125 5.328125 0.203125 C 4.128906 0.203125 3.253906 -0.0976562 2.703125 -0.703125 C 2.160156 -1.316406 1.890625 -2.226562 1.890625 -3.4375 L 1.890625 -8.71875 L 0.46875 -8.71875 L 0.46875 -9.984375 L 2.109375 -10.984375 L 2.96875 -13.296875 L 4.890625 -13.296875 L 4.890625 -10.96875 L 7.953125 -10.96875 L 7.953125 -8.71875 L 4.890625 -8.71875 L 4.890625 -3.4375 C 4.890625 -3.007812 5.007812 -2.691406 5.25 -2.484375 C 5.488281 -2.285156 5.800781 -2.1875 6.1875 -2.1875 Z M 6.1875 -2.1875 "/></g></g></g><g fill="#a6a6a6" fill-opacity="1"><g transform="translate(75.306252, 163.586)"><g><path d="M 3.953125 -5.5 C 3.953125 -4.414062 4.128906 -3.59375 4.484375 -3.03125 C 4.847656 -2.476562 5.429688 -2.203125 6.234375 -2.203125 C 7.023438 -2.203125 7.597656 -2.476562 7.953125 -3.03125 C 8.304688 -3.582031 8.484375 -4.40625 8.484375 -5.5 C 8.484375 -6.59375 8.304688 -7.410156 7.953125 -7.953125 C 7.597656 -8.492188 7.015625 -8.765625 6.203125 -8.765625 C 5.410156 -8.765625 4.835938 -8.492188 4.484375 -7.953125 C 4.128906 -7.410156 3.953125 -6.59375 3.953125 -5.5 Z M 11.53125 -5.5 C 11.53125 -3.71875 11.0625 -2.320312 10.125 -1.3125 C 9.1875 -0.300781 7.875 0.203125 6.1875 0.203125 C 5.132812 0.203125 4.207031 -0.0234375 3.40625 -0.484375 C 2.601562 -0.953125 1.984375 -1.617188 1.546875 -2.484375 C 1.117188 -3.347656 0.90625 -4.351562 0.90625 -5.5 C 0.90625 -7.289062 1.367188 -8.679688 2.296875 -9.671875 C 3.234375 -10.671875 4.550781 -11.171875 6.25 -11.171875 C 7.300781 -11.171875 8.226562 -10.941406 9.03125 -10.484375 C 9.84375 -10.023438 10.460938 -9.367188 10.890625 -8.515625 C 11.316406 -7.660156 11.53125 -6.65625 11.53125 -5.5 Z M 11.53125 -5.5 "/></g></g></g><g fill="#a6a6a6" fill-opacity="1"><g transform="translate(87.740408, 163.586)"><g><path d="M 11.390625 0 L 8.40625 0 L 8.40625 -6.40625 C 8.40625 -7.195312 8.269531 -7.789062 8 -8.1875 C 7.738281 -8.582031 7.320312 -8.78125 6.75 -8.78125 C 5.988281 -8.78125 5.429688 -8.5 5.078125 -7.9375 C 4.734375 -7.375 4.5625 -6.445312 4.5625 -5.15625 L 4.5625 0 L 1.5625 0 L 1.5625 -10.96875 L 3.859375 -10.96875 L 4.265625 -9.5625 L 4.421875 -9.5625 C 4.710938 -10.070312 5.132812 -10.46875 5.6875 -10.75 C 6.25 -11.03125 6.890625 -11.171875 7.609375 -11.171875 C 9.253906 -11.171875 10.367188 -10.632812 10.953125 -9.5625 L 11.21875 -9.5625 C 11.507812 -10.070312 11.941406 -10.46875 12.515625 -10.75 C 13.085938 -11.03125 13.734375 -11.171875 14.453125 -11.171875 C 15.691406 -11.171875 16.628906 -10.851562 17.265625 -10.21875 C 17.910156 -9.582031 18.234375 -8.5625 18.234375 -7.15625 L 18.234375 0 L 15.234375 0 L 15.234375 -6.40625 C 15.234375 -7.195312 15.097656 -7.789062 14.828125 -8.1875 C 14.566406 -8.582031 14.148438 -8.78125 13.578125 -8.78125 C 12.847656 -8.78125 12.300781 -8.519531 11.9375 -8 C 11.570312 -7.476562 11.390625 -6.644531 11.390625 -5.5 Z M 11.390625 0 "/></g></g></g><g fill="#a6a6a6" fill-opacity="1"><g transform="translate(107.460514, 163.586)"><g><path d="M 6.109375 -9.046875 C 5.472656 -9.046875 4.972656 -8.84375 4.609375 -8.4375 C 4.253906 -8.039062 4.050781 -7.472656 4 -6.734375 L 8.203125 -6.734375 C 8.191406 -7.472656 8 -8.039062 7.625 -8.4375 C 7.25 -8.84375 6.742188 -9.046875 6.109375 -9.046875 Z M 6.53125 0.203125 C 4.769531 0.203125 3.390625 -0.285156 2.390625 -1.265625 C 1.398438 -2.242188 0.90625 -3.625 0.90625 -5.40625 C 0.90625 -7.238281 1.363281 -8.65625 2.28125 -9.65625 C 3.195312 -10.664062 4.46875 -11.171875 6.09375 -11.171875 C 7.644531 -11.171875 8.851562 -10.726562 9.71875 -9.84375 C 10.582031 -8.96875 11.015625 -7.75 11.015625 -6.1875 L 11.015625 -4.734375 L 3.9375 -4.734375 C 3.96875 -3.890625 4.21875 -3.226562 4.6875 -2.75 C 5.15625 -2.269531 5.816406 -2.03125 6.671875 -2.03125 C 7.328125 -2.03125 7.945312 -2.097656 8.53125 -2.234375 C 9.125 -2.367188 9.742188 -2.585938 10.390625 -2.890625 L 10.390625 -0.578125 C 9.867188 -0.316406 9.304688 -0.125 8.703125 0 C 8.109375 0.132812 7.382812 0.203125 6.53125 0.203125 Z M 6.53125 0.203125 "/></g></g></g><g fill="#a6a6a6" fill-opacity="1"><g transform="translate(119.325915, 163.586)"><g><path d="M 7.6875 -11.171875 C 8.09375 -11.171875 8.429688 -11.144531 8.703125 -11.09375 L 8.484375 -8.28125 C 8.234375 -8.34375 7.9375 -8.375 7.59375 -8.375 C 6.632812 -8.375 5.890625 -8.128906 5.359375 -7.640625 C 4.828125 -7.148438 4.5625 -6.460938 4.5625 -5.578125 L 4.5625 0 L 1.5625 0 L 1.5625 -10.96875 L 3.84375 -10.96875 L 4.28125 -9.125 L 4.421875 -9.125 C 4.765625 -9.738281 5.222656 -10.234375 5.796875 -10.609375 C 6.378906 -10.984375 7.007812 -11.171875 7.6875 -11.171875 Z M 7.6875 -11.171875 "/></g></g></g><g fill="#ff1616" fill-opacity="1"><g transform="translate(71.373084, 173.534327)"><g><path d="M 8.25 0 L 1.484375 0 L 1.484375 -11.75 L 8.25 -11.75 L 8.25 -9.703125 L 3.96875 -9.703125 L 3.96875 -7.125 L 7.953125 -7.125 L 7.953125 -5.078125 L 3.96875 -5.078125 L 3.96875 -2.0625 L 8.25 -2.0625 Z M 8.25 0 "/></g></g></g><g fill="#ff1616" fill-opacity="1"><g transform="translate(80.583469, 173.534327)"><g><path d="M 3.125 -4.59375 L 0.234375 -8.984375 L 3.015625 -8.984375 L 4.75 -6.125 L 6.515625 -8.984375 L 9.296875 -8.984375 L 6.375 -4.59375 L 9.4375 0 L 6.640625 0 L 4.75 -3.078125 L 2.859375 0 L 0.078125 0 Z M 3.125 -4.59375 "/></g></g></g><g fill="#ff1616" fill-opacity="1"><g transform="translate(90.09096, 173.534327)"><g><path d="M 6.21875 0.15625 C 5.164062 0.15625 4.335938 -0.222656 3.734375 -0.984375 L 3.609375 -0.984375 C 3.691406 -0.234375 3.734375 0.195312 3.734375 0.3125 L 3.734375 3.953125 L 1.28125 3.953125 L 1.28125 -8.984375 L 3.28125 -8.984375 L 3.625 -7.8125 L 3.734375 -7.8125 C 4.304688 -8.707031 5.15625 -9.15625 6.28125 -9.15625 C 7.34375 -9.15625 8.171875 -8.742188 8.765625 -7.921875 C 9.367188 -7.097656 9.671875 -5.957031 9.671875 -4.5 C 9.671875 -3.539062 9.53125 -2.707031 9.25 -2 C 8.96875 -1.300781 8.566406 -0.765625 8.046875 -0.390625 C 7.523438 -0.0234375 6.914062 0.15625 6.21875 0.15625 Z M 5.5 -7.1875 C 4.894531 -7.1875 4.453125 -7 4.171875 -6.625 C 3.890625 -6.257812 3.742188 -5.644531 3.734375 -4.78125 L 3.734375 -4.515625 C 3.734375 -3.554688 3.875 -2.867188 4.15625 -2.453125 C 4.445312 -2.035156 4.90625 -1.828125 5.53125 -1.828125 C 6.625 -1.828125 7.171875 -2.734375 7.171875 -4.546875 C 7.171875 -5.421875 7.035156 -6.078125 6.765625 -6.515625 C 6.492188 -6.960938 6.070312 -7.1875 5.5 -7.1875 Z M 5.5 -7.1875 "/></g></g></g><g fill="#ff1616" fill-opacity="1"><g transform="translate(100.497808, 173.534327)"><g><path d="M 5 -7.40625 C 4.476562 -7.40625 4.070312 -7.238281 3.78125 -6.90625 C 3.488281 -6.582031 3.320312 -6.117188 3.28125 -5.515625 L 6.71875 -5.515625 C 6.707031 -6.117188 6.546875 -6.582031 6.234375 -6.90625 C 5.929688 -7.238281 5.519531 -7.40625 5 -7.40625 Z M 5.34375 0.15625 C 3.90625 0.15625 2.773438 -0.238281 1.953125 -1.03125 C 1.140625 -1.832031 0.734375 -2.960938 0.734375 -4.421875 C 0.734375 -5.929688 1.109375 -7.097656 1.859375 -7.921875 C 2.617188 -8.742188 3.660156 -9.15625 4.984375 -9.15625 C 6.253906 -9.15625 7.242188 -8.789062 7.953125 -8.0625 C 8.660156 -7.34375 9.015625 -6.34375 9.015625 -5.0625 L 9.015625 -3.875 L 3.21875 -3.875 C 3.25 -3.175781 3.457031 -2.628906 3.84375 -2.234375 C 4.226562 -1.847656 4.769531 -1.65625 5.46875 -1.65625 C 6.007812 -1.65625 6.519531 -1.710938 7 -1.828125 C 7.476562 -1.941406 7.976562 -2.125 8.5 -2.375 L 8.5 -0.46875 C 8.070312 -0.257812 7.613281 -0.101562 7.125 0 C 6.644531 0.101562 6.050781 0.15625 5.34375 0.15625 Z M 5.34375 0.15625 "/></g></g></g><g fill="#ff1616" fill-opacity="1"><g transform="translate(110.214077, 173.534327)"><g><path d="M 6.296875 -9.15625 C 6.628906 -9.15625 6.90625 -9.128906 7.125 -9.078125 L 6.9375 -6.78125 C 6.738281 -6.832031 6.5 -6.859375 6.21875 -6.859375 C 5.4375 -6.859375 4.828125 -6.65625 4.390625 -6.25 C 3.953125 -5.851562 3.734375 -5.296875 3.734375 -4.578125 L 3.734375 0 L 1.28125 0 L 1.28125 -8.984375 L 3.140625 -8.984375 L 3.5 -7.46875 L 3.625 -7.46875 C 3.90625 -7.976562 4.28125 -8.382812 4.75 -8.6875 C 5.226562 -9 5.742188 -9.15625 6.296875 -9.15625 Z M 6.296875 -9.15625 "/></g></g></g><g fill="#ff1616" fill-opacity="1"><g transform="translate(117.681954, 173.534327)"><g><path d="M 1.1875 -11.296875 C 1.1875 -12.097656 1.628906 -12.5 2.515625 -12.5 C 3.398438 -12.5 3.84375 -12.097656 3.84375 -11.296875 C 3.84375 -10.921875 3.734375 -10.625 3.515625 -10.40625 C 3.296875 -10.195312 2.960938 -10.09375 2.515625 -10.09375 C 1.628906 -10.09375 1.1875 -10.492188 1.1875 -11.296875 Z M 3.734375 0 L 1.28125 0 L 1.28125 -8.984375 L 3.734375 -8.984375 Z M 3.734375 0 "/></g></g></g><g fill="#ff1616" fill-opacity="1"><g transform="translate(122.700692, 173.534327)"><g><path d="M 5 -7.40625 C 4.476562 -7.40625 4.070312 -7.238281 3.78125 -6.90625 C 3.488281 -6.582031 3.320312 -6.117188 3.28125 -5.515625 L 6.71875 -5.515625 C 6.707031 -6.117188 6.546875 -6.582031 6.234375 -6.90625 C 5.929688 -7.238281 5.519531 -7.40625 5 -7.40625 Z M 5.34375 0.15625 C 3.90625 0.15625 2.773438 -0.238281 1.953125 -1.03125 C 1.140625 -1.832031 0.734375 -2.960938 0.734375 -4.421875 C 0.734375 -5.929688 1.109375 -7.097656 1.859375 -7.921875 C 2.617188 -8.742188 3.660156 -9.15625 4.984375 -9.15625 C 6.253906 -9.15625 7.242188 -8.789062 7.953125 -8.0625 C 8.660156 -7.34375 9.015625 -6.34375 9.015625 -5.0625 L 9.015625 -3.875 L 3.21875 -3.875 C 3.25 -3.175781 3.457031 -2.628906 3.84375 -2.234375 C 4.226562 -1.847656 4.769531 -1.65625 5.46875 -1.65625 C 6.007812 -1.65625 6.519531 -1.710938 7 -1.828125 C 7.476562 -1.941406 7.976562 -2.125 8.5 -2.375 L 8.5 -0.46875 C 8.070312 -0.257812 7.613281 -0.101562 7.125 0 C 6.644531 0.101562 6.050781 0.15625 5.34375 0.15625 Z M 5.34375 0.15625 "/></g></g></g><g fill="#ff1616" fill-opacity="1"><g transform="translate(132.416962, 173.534327)"><g><path d="M 9.578125 0 L 7.125 0 L 7.125 -5.25 C 7.125 -5.894531 7.007812 -6.378906 6.78125 -6.703125 C 6.550781 -7.023438 6.1875 -7.1875 5.6875 -7.1875 C 5 -7.1875 4.5 -6.957031 4.1875 -6.5 C 3.882812 -6.039062 3.734375 -5.28125 3.734375 -4.21875 L 3.734375 0 L 1.28125 0 L 1.28125 -8.984375 L 3.15625 -8.984375 L 3.484375 -7.828125 L 3.625 -7.828125 C 3.894531 -8.265625 4.269531 -8.59375 4.75 -8.8125 C 5.226562 -9.039062 5.773438 -9.15625 6.390625 -9.15625 C 7.429688 -9.15625 8.222656 -8.867188 8.765625 -8.296875 C 9.304688 -7.734375 9.578125 -6.921875 9.578125 -5.859375 Z M 9.578125 0 "/></g></g></g><g fill="#ff1616" fill-opacity="1"><g transform="translate(143.225308, 173.534327)"><g><path d="M 4.9375 0.15625 C 2.132812 0.15625 0.734375 -1.375 0.734375 -4.4375 C 0.734375 -5.96875 1.113281 -7.132812 1.875 -7.9375 C 2.632812 -8.75 3.726562 -9.15625 5.15625 -9.15625 C 6.1875 -9.15625 7.117188 -8.953125 7.953125 -8.546875 L 7.21875 -6.640625 C 6.832031 -6.796875 6.472656 -6.921875 6.140625 -7.015625 C 5.804688 -7.117188 5.476562 -7.171875 5.15625 -7.171875 C 3.875 -7.171875 3.234375 -6.265625 3.234375 -4.453125 C 3.234375 -2.703125 3.875 -1.828125 5.15625 -1.828125 C 5.625 -1.828125 6.054688 -1.890625 6.453125 -2.015625 C 6.859375 -2.140625 7.265625 -2.335938 7.671875 -2.609375 L 7.671875 -0.5 C 7.265625 -0.25 6.859375 -0.078125 6.453125 0.015625 C 6.054688 0.109375 5.550781 0.15625 4.9375 0.15625 Z M 4.9375 0.15625 "/></g></g></g><g fill="#ff1616" fill-opacity="1"><g transform="translate(151.680875, 173.534327)"><g><path d="M 5 -7.40625 C 4.476562 -7.40625 4.070312 -7.238281 3.78125 -6.90625 C 3.488281 -6.582031 3.320312 -6.117188 3.28125 -5.515625 L 6.71875 -5.515625 C 6.707031 -6.117188 6.546875 -6.582031 6.234375 -6.90625 C 5.929688 -7.238281 5.519531 -7.40625 5 -7.40625 Z M 5.34375 0.15625 C 3.90625 0.15625 2.773438 -0.238281 1.953125 -1.03125 C 1.140625 -1.832031 0.734375 -2.960938 0.734375 -4.421875 C 0.734375 -5.929688 1.109375 -7.097656 1.859375 -7.921875 C 2.617188 -8.742188 3.660156 -9.15625 4.984375 -9.15625 C 6.253906 -9.15625 7.242188 -8.789062 7.953125 -8.0625 C 8.660156 -7.34375 9.015625 -6.34375 9.015625 -5.0625 L 9.015625 -3.875 L 3.21875 -3.875 C 3.25 -3.175781 3.457031 -2.628906 3.84375 -2.234375 C 4.226562 -1.847656 4.769531 -1.65625 5.46875 -1.65625 C 6.007812 -1.65625 6.519531 -1.710938 7 -1.828125 C 7.476562 -1.941406 7.976562 -2.125 8.5 -2.375 L 8.5 -0.46875 C 8.070312 -0.257812 7.613281 -0.101562 7.125 0 C 6.644531 0.101562 6.050781 0.15625 5.34375 0.15625 Z M 5.34375 0.15625 "/></g></g></g></svg>