<svg xmlns="http://www.w3.org/2000/svg" xmlns:xlink="http://www.w3.org/1999/xlink" width="256" zoomAndPan="magnify" viewBox="0 0 192 191.999996" height="256" preserveAspectRatio="xMidYMid meet" version="1.0"><defs><g/><clipPath id="731aad3968"><path d="M 32.226562 16.238281 L 66 16.238281 L 66 133.988281 L 32.226562 133.988281 Z M 32.226562 16.238281 " clip-rule="nonzero"/></clipPath><clipPath id="23a9ffe81a"><path d="M 65 16.238281 L 96 16.238281 L 96 133 L 65 133 Z M 65 16.238281 " clip-rule="nonzero"/></clipPath><clipPath id="2261dd07f0"><path d="M 95 16.238281 L 127 16.238281 L 127 133 L 95 133 Z M 95 16.238281 " clip-rule="nonzero"/></clipPath><clipPath id="70022aa35b"><path d="M 125 16.238281 L 159.726562 16.238281 L 159.726562 133.988281 L 125 133.988281 Z M 125 16.238281 " clip-rule="nonzero"/></clipPath></defs><g clip-path="url(#731aad3968)"><path fill="#d3d2d2" d="M 65.894531 124.1875 L 32.308594 133.988281 L 32.308594 26.039062 L 65.894531 16.238281 L 65.894531 124.1875 " fill-opacity="1" fill-rule="nonzero"/></g><g clip-path="url(#23a9ffe81a)"><path fill="#a7a5a5" d="M 65.601562 124.1875 L 95.683594 132.824219 L 95.683594 24.875 L 65.601562 16.238281 L 65.601562 124.1875 " fill-opacity="1" fill-rule="nonzero"/></g><g clip-path="url(#2261dd07f0)"><path fill="#d3d2d2" d="M 126.058594 124.1875 L 95.390625 132.824219 L 95.390625 24.875 L 126.058594 16.238281 L 126.058594 124.1875 " fill-opacity="1" fill-rule="nonzero"/></g><g clip-path="url(#70022aa35b)"><path fill="#a7a5a5" d="M 125.765625 124.1875 L 159.644531 133.988281 L 159.644531 26.039062 L 125.765625 16.238281 L 125.765625 124.1875 " fill-opacity="1" fill-rule="nonzero"/></g><path fill="#ffffff" d="M 65.894531 121.453125 L 35.816406 129.613281 L 35.816406 27.605469 L 65.894531 19.441406 L 65.894531 121.453125 " fill-opacity="1" fill-rule="nonzero"/><path fill="#d3d2d2" d="M 65.601562 121.453125 L 95.683594 129.613281 L 95.683594 27.605469 L 65.601562 19.441406 L 65.601562 121.453125 " fill-opacity="1" fill-rule="nonzero"/><path fill="#6e9d2b" d="M 52.4375 42.769531 C 53.800781 35.792969 52.34375 29.386719 48.90625 24.050781 L 35.816406 27.605469 L 35.816406 67.511719 C 44.066406 61.523438 50.453125 52.890625 52.4375 42.769531 " fill-opacity="1" fill-rule="nonzero"/><path fill="#6e9d2b" d="M 65.375 92.839844 C 63.980469 91.8125 62.269531 91.160156 60.59375 90.800781 C 57.15625 90.082031 53.609375 90.734375 50.3125 91.777344 C 45.144531 93.414062 40.40625 96.136719 35.816406 99.042969 L 35.816406 129.613281 L 65.894531 121.453125 L 65.894531 93.292969 C 65.734375 93.132812 65.558594 92.980469 65.375 92.839844 " fill-opacity="1" fill-rule="nonzero"/><path fill="#46551e" d="M 88.132812 117.097656 C 88.398438 112.351562 88.578125 105.945312 85.324219 102.050781 C 83.199219 99.511719 80.347656 100.21875 77.390625 100.421875 C 73.675781 100.675781 70.253906 99.992188 67.878906 96.941406 C 67.050781 95.878906 66.480469 94.617188 65.601562 93.613281 L 65.601562 121.453125 L 86.789062 127.203125 C 87.492188 123.859375 87.945312 120.472656 88.132812 117.097656 " fill-opacity="1" fill-rule="nonzero"/><path fill="#99def8" d="M 67.539062 23.960938 C 65.894531 30.050781 67.324219 34.785156 71.984375 38.878906 C 75.136719 41.640625 78.542969 44.085938 80.714844 47.769531 C 82.503906 50.816406 82.640625 54.042969 82.925781 57.476562 C 83.058594 59.078125 82.984375 62.726562 84.875 63.277344 C 87.351562 64.003906 90.078125 61.269531 91.128906 59.398438 C 94.617188 53.210938 94.410156 44.777344 94.097656 37.921875 C 93.9375 34.324219 93.679688 30.5625 93.058594 26.894531 L 68.808594 20.3125 C 68.308594 21.492188 67.878906 22.710938 67.539062 23.960938 " fill-opacity="1" fill-rule="nonzero"/><path fill="#ffffff" d="M 126.058594 121.453125 L 95.390625 129.613281 L 95.390625 27.605469 L 126.058594 19.441406 L 126.058594 121.453125 " fill-opacity="1" fill-rule="nonzero"/><path fill="#d3d2d2" d="M 125.765625 121.453125 L 156.429688 129.613281 L 156.429688 27.605469 L 125.765625 19.441406 L 125.765625 121.453125 " fill-opacity="1" fill-rule="nonzero"/><path fill="#6e9d2b" d="M 106.167969 41.289062 C 108.632812 49.421875 118.742188 51.507812 121.410156 59.535156 C 122.136719 61.722656 122.097656 63.835938 121.589844 66.0625 C 121.152344 67.988281 120.160156 69.835938 121.246094 71.703125 C 122.214844 73.386719 124.066406 74.394531 126.058594 75.019531 L 126.058594 19.441406 L 111.46875 23.320312 C 107.414062 28.785156 104.277344 35.070312 106.167969 41.289062 " fill-opacity="1" fill-rule="nonzero"/><path fill="#99def8" d="M 113.855469 103.5 C 106.976562 108.816406 106.242188 117.734375 107.253906 126.457031 L 126.058594 121.453125 L 126.058594 98.933594 C 121.671875 99.214844 117.316406 100.828125 113.855469 103.5 " fill-opacity="1" fill-rule="nonzero"/><path fill="#46551e" d="M 129.859375 75.921875 C 133.6875 76.410156 137.675781 76.296875 141.347656 75.074219 C 145.519531 73.675781 149.261719 71.496094 153.71875 70.984375 C 154.644531 70.878906 155.542969 70.851562 156.429688 70.878906 L 156.429688 27.605469 L 125.765625 19.441406 L 125.765625 75.113281 C 127.164062 75.523438 128.609375 75.765625 129.859375 75.921875 " fill-opacity="1" fill-rule="nonzero"/><path fill="#6dd0f5" d="M 145.925781 116.398438 C 144.609375 110.40625 141.78125 104.589844 136.226562 101.339844 C 133.042969 99.488281 129.402344 98.734375 125.765625 98.914062 L 125.765625 121.453125 L 147.007812 127.109375 C 147 123.507812 146.707031 119.914062 145.925781 116.398438 " fill-opacity="1" fill-rule="nonzero"/><path fill="#f8a227" d="M 144.261719 88.59375 C 141.460938 88.714844 138.757812 89.371094 136.140625 90.003906 C 133.941406 90.535156 131.871094 91.039062 129.746094 91.253906 C 121.699219 92.058594 115.710938 87.824219 113.953125 83.234375 C 113.660156 82.480469 113.453125 81.679688 113.234375 80.828125 C 112.839844 79.351562 112.441406 77.824219 111.582031 76.410156 C 109.773438 73.40625 105.136719 70.347656 98.046875 71.625 C 95.457031 72.089844 93.011719 72.992188 90.648438 73.871094 C 88.785156 74.566406 87.019531 75.21875 85.195312 75.675781 C 78.722656 77.292969 71.984375 76.074219 67.171875 72.421875 C 62.089844 68.5625 59.5 61.847656 60.878906 56.101562 C 61.207031 54.765625 61.710938 53.484375 62.25 52.121094 C 62.570312 51.304688 62.910156 50.460938 63.195312 49.59375 C 66.09375 40.851562 62.152344 29.535156 56.644531 22.136719 C 55.578125 22.503906 54.5 22.824219 53.410156 23.121094 C 58.96875 30.050781 62.84375 40.835938 60.214844 48.585938 C 59.941406 49.375 59.640625 50.148438 59.3125 50.964844 C 58.761719 52.375 58.1875 53.820312 57.816406 55.371094 C 56.160156 62.289062 59.214844 70.335938 65.265625 74.917969 C 70.832031 79.152344 78.5625 80.566406 85.960938 78.726562 C 87.960938 78.230469 89.882812 77.511719 91.746094 76.820312 C 94.085938 75.957031 96.289062 75.132812 98.605469 74.71875 C 102.328125 74.050781 106.949219 74.8125 108.886719 78.023438 C 109.511719 79.058594 109.832031 80.300781 110.179688 81.625 C 110.417969 82.523438 110.65625 83.445312 111.011719 84.355469 C 113.898438 91.898438 122.796875 95.109375 130.058594 94.382812 C 132.402344 94.152344 134.679688 93.59375 136.886719 93.0625 C 139.460938 92.4375 141.898438 91.84375 144.394531 91.730469 L 144.570312 91.730469 C 148.265625 91.730469 154.671875 96.75 156.449219 100.796875 L 156.449219 95.234375 C 152.945312 91.394531 147.683594 88.441406 144.261719 88.59375 " fill-opacity="1" fill-rule="nonzero"/><path fill="#f8a227" d="M 101.328125 110.390625 C 102.160156 109.195312 103.019531 107.953125 103.558594 106.46875 C 105.039062 102.382812 103.292969 97.40625 99.589844 95.132812 C 96.269531 93.09375 92.507812 93.398438 88.871094 93.699219 C 86.527344 93.890625 84.324219 94.078125 82.273438 93.664062 C 79.675781 93.140625 77.804688 90.980469 75.828125 88.695312 C 73.835938 86.390625 71.773438 84.003906 68.703125 82.875 C 58.796875 79.226562 45.796875 81.75 35.722656 86.242188 L 35.722656 89.707031 C 45.558594 85.046875 58.480469 82.460938 67.617188 85.824219 C 69.921875 86.667969 71.632812 88.648438 73.445312 90.75 C 75.679688 93.339844 77.992188 96.019531 81.652344 96.75 C 84.136719 97.246094 86.675781 97.035156 89.125 96.835938 C 92.398438 96.570312 95.496094 96.308594 97.941406 97.8125 C 100.378906 99.3125 101.570312 102.714844 100.597656 105.402344 C 100.199219 106.503906 99.492188 107.519531 98.738281 108.605469 C 98.246094 109.316406 97.734375 110.046875 97.289062 110.84375 C 94.058594 116.597656 95.285156 123.476562 98.234375 128.75 C 99.273438 128.4375 100.324219 128.160156 101.390625 127.90625 C 98.605469 123.375 97.273438 117.316406 100.039062 112.378906 C 100.410156 111.714844 100.855469 111.070312 101.328125 110.390625 " fill-opacity="1" fill-rule="nonzero"/><path fill="#f25946" d="M 147.785156 60.007812 C 147.785156 69.132812 138.039062 91.992188 131.226562 91.992188 C 124.679688 91.992188 114.667969 69.132812 114.667969 60.007812 C 114.667969 50.878906 122.078125 43.480469 131.226562 43.480469 C 140.367188 43.480469 147.785156 50.878906 147.785156 60.007812 " fill-opacity="1" fill-rule="nonzero"/><path fill="#ffffff" d="M 141.105469 61.34375 C 141.105469 66.785156 136.679688 71.199219 131.226562 71.199219 C 125.765625 71.199219 121.34375 66.785156 121.34375 61.34375 C 121.34375 55.894531 125.765625 51.476562 131.226562 51.476562 C 136.679688 51.476562 141.105469 55.894531 141.105469 61.34375 " fill-opacity="1" fill-rule="nonzero"/><g fill="#a6a6a6" fill-opacity="1"><g transform="translate(32.233495, 147.158353)"><g><path d="M 1.296875 0 L 1.296875 -10.3125 L 3.484375 -10.3125 L 3.484375 -1.8125 L 7.65625 -1.8125 L 7.65625 0 Z M 1.296875 0 "/></g></g></g><g fill="#a6a6a6" fill-opacity="1"><g transform="translate(40.386068, 147.158353)"><g><path d="M 1.03125 -9.921875 C 1.03125 -10.617188 1.421875 -10.96875 2.203125 -10.96875 C 2.984375 -10.96875 3.375 -10.617188 3.375 -9.921875 C 3.375 -9.585938 3.273438 -9.328125 3.078125 -9.140625 C 2.890625 -8.953125 2.597656 -8.859375 2.203125 -8.859375 C 1.421875 -8.859375 1.03125 -9.210938 1.03125 -9.921875 Z M 3.28125 0 L 1.125 0 L 1.125 -7.875 L 3.28125 -7.875 Z M 3.28125 0 "/></g></g></g><g fill="#a6a6a6" fill-opacity="1"><g transform="translate(44.790009, 147.158353)"><g><path d="M 3 0 L 0 -7.875 L 2.25 -7.875 L 3.765625 -3.390625 C 3.941406 -2.816406 4.050781 -2.28125 4.09375 -1.78125 L 4.125 -1.78125 C 4.15625 -2.226562 4.265625 -2.765625 4.453125 -3.390625 L 5.96875 -7.875 L 8.21875 -7.875 L 5.203125 0 Z M 3 0 "/></g></g></g><g fill="#a6a6a6" fill-opacity="1"><g transform="translate(52.998953, 147.158353)"><g><path d="M 1.03125 -9.921875 C 1.03125 -10.617188 1.421875 -10.96875 2.203125 -10.96875 C 2.984375 -10.96875 3.375 -10.617188 3.375 -9.921875 C 3.375 -9.585938 3.273438 -9.328125 3.078125 -9.140625 C 2.890625 -8.953125 2.597656 -8.859375 2.203125 -8.859375 C 1.421875 -8.859375 1.03125 -9.210938 1.03125 -9.921875 Z M 3.28125 0 L 1.125 0 L 1.125 -7.875 L 3.28125 -7.875 Z M 3.28125 0 "/></g></g></g><g fill="#a6a6a6" fill-opacity="1"><g transform="translate(57.402895, 147.158353)"><g><path d="M 8.40625 0 L 6.25 0 L 6.25 -4.609375 C 6.25 -5.171875 6.144531 -5.59375 5.9375 -5.875 C 5.738281 -6.164062 5.421875 -6.3125 4.984375 -6.3125 C 4.378906 -6.3125 3.941406 -6.109375 3.671875 -5.703125 C 3.410156 -5.304688 3.28125 -4.640625 3.28125 -3.703125 L 3.28125 0 L 1.125 0 L 1.125 -7.875 L 2.765625 -7.875 L 3.0625 -6.875 L 3.171875 -6.875 C 3.410156 -7.25 3.738281 -7.535156 4.15625 -7.734375 C 4.582031 -7.929688 5.066406 -8.03125 5.609375 -8.03125 C 6.523438 -8.03125 7.21875 -7.78125 7.6875 -7.28125 C 8.164062 -6.789062 8.40625 -6.078125 8.40625 -5.140625 Z M 8.40625 0 "/></g></g></g><g fill="#a6a6a6" fill-opacity="1"><g transform="translate(66.887215, 147.158353)"><g><path d="M 7.984375 -7.875 L 7.984375 -6.78125 L 6.75 -6.46875 C 6.976562 -6.113281 7.09375 -5.71875 7.09375 -5.28125 C 7.09375 -4.4375 6.796875 -3.773438 6.203125 -3.296875 C 5.617188 -2.828125 4.800781 -2.59375 3.75 -2.59375 L 3.359375 -2.625 L 3.046875 -2.65625 C 2.828125 -2.488281 2.71875 -2.300781 2.71875 -2.09375 C 2.71875 -1.78125 3.109375 -1.625 3.890625 -1.625 L 5.234375 -1.625 C 6.097656 -1.625 6.753906 -1.4375 7.203125 -1.0625 C 7.660156 -0.695312 7.890625 -0.15625 7.890625 0.5625 C 7.890625 1.488281 7.503906 2.203125 6.734375 2.703125 C 5.972656 3.210938 4.875 3.46875 3.4375 3.46875 C 2.332031 3.46875 1.488281 3.273438 0.90625 2.890625 C 0.332031 2.503906 0.046875 1.96875 0.046875 1.28125 C 0.046875 0.8125 0.191406 0.414062 0.484375 0.09375 C 0.785156 -0.226562 1.222656 -0.457031 1.796875 -0.59375 C 1.566406 -0.6875 1.367188 -0.835938 1.203125 -1.046875 C 1.046875 -1.265625 0.96875 -1.492188 0.96875 -1.734375 C 0.96875 -2.035156 1.050781 -2.285156 1.21875 -2.484375 C 1.394531 -2.679688 1.648438 -2.878906 1.984375 -3.078125 C 1.566406 -3.253906 1.238281 -3.539062 1 -3.9375 C 0.757812 -4.332031 0.640625 -4.796875 0.640625 -5.328125 C 0.640625 -6.191406 0.914062 -6.859375 1.46875 -7.328125 C 2.03125 -7.796875 2.832031 -8.03125 3.875 -8.03125 C 4.09375 -8.03125 4.351562 -8.007812 4.65625 -7.96875 C 4.957031 -7.925781 5.148438 -7.894531 5.234375 -7.875 Z M 1.90625 1.109375 C 1.90625 1.410156 2.046875 1.644531 2.328125 1.8125 C 2.609375 1.976562 3.007812 2.0625 3.53125 2.0625 C 4.300781 2.0625 4.898438 1.957031 5.328125 1.75 C 5.765625 1.539062 5.984375 1.25 5.984375 0.875 C 5.984375 0.582031 5.851562 0.378906 5.59375 0.265625 C 5.34375 0.148438 4.945312 0.09375 4.40625 0.09375 L 3.296875 0.09375 C 2.898438 0.09375 2.566406 0.1875 2.296875 0.375 C 2.035156 0.5625 1.90625 0.804688 1.90625 1.109375 Z M 2.6875 -5.296875 C 2.6875 -4.867188 2.78125 -4.53125 2.96875 -4.28125 C 3.164062 -4.03125 3.46875 -3.90625 3.875 -3.90625 C 4.269531 -3.90625 4.5625 -4.03125 4.75 -4.28125 C 4.945312 -4.53125 5.046875 -4.867188 5.046875 -5.296875 C 5.046875 -6.242188 4.65625 -6.71875 3.875 -6.71875 C 3.082031 -6.71875 2.6875 -6.242188 2.6875 -5.296875 Z M 2.6875 -5.296875 "/></g></g></g><g fill="#a6a6a6" fill-opacity="1"><g transform="translate(75.039788, 147.158353)"><g/></g></g><g fill="#a6a6a6" fill-opacity="1"><g transform="translate(78.78842, 147.158353)"><g><path d="M 1.296875 0 L 1.296875 -10.3125 L 3.484375 -10.3125 L 3.484375 -1.8125 L 7.65625 -1.8125 L 7.65625 0 Z M 1.296875 0 "/></g></g></g><g fill="#a6a6a6" fill-opacity="1"><g transform="translate(86.940993, 147.158353)"><g><path d="M 6.140625 0 L 5.71875 -1.078125 L 5.65625 -1.078125 C 5.300781 -0.617188 4.929688 -0.300781 4.546875 -0.125 C 4.160156 0.0507812 3.660156 0.140625 3.046875 0.140625 C 2.285156 0.140625 1.6875 -0.0703125 1.25 -0.5 C 0.820312 -0.9375 0.609375 -1.554688 0.609375 -2.359375 C 0.609375 -3.191406 0.898438 -3.804688 1.484375 -4.203125 C 2.066406 -4.597656 2.945312 -4.816406 4.125 -4.859375 L 5.5 -4.90625 L 5.5 -5.25 C 5.5 -6.050781 5.085938 -6.453125 4.265625 -6.453125 C 3.640625 -6.453125 2.898438 -6.257812 2.046875 -5.875 L 1.34375 -7.328125 C 2.25 -7.804688 3.253906 -8.046875 4.359375 -8.046875 C 5.410156 -8.046875 6.21875 -7.8125 6.78125 -7.34375 C 7.351562 -6.882812 7.640625 -6.1875 7.640625 -5.25 L 7.640625 0 Z M 5.5 -3.65625 L 4.671875 -3.625 C 4.046875 -3.601562 3.578125 -3.488281 3.265625 -3.28125 C 2.960938 -3.070312 2.8125 -2.757812 2.8125 -2.34375 C 2.8125 -1.738281 3.160156 -1.4375 3.859375 -1.4375 C 4.359375 -1.4375 4.753906 -1.578125 5.046875 -1.859375 C 5.347656 -2.148438 5.5 -2.53125 5.5 -3 Z M 5.5 -3.65625 "/></g></g></g><g fill="#a6a6a6" fill-opacity="1"><g transform="translate(95.657271, 147.158353)"><g><path d="M 5.515625 -8.03125 C 6.441406 -8.03125 7.164062 -7.664062 7.6875 -6.9375 C 8.21875 -6.207031 8.484375 -5.210938 8.484375 -3.953125 C 8.484375 -2.648438 8.210938 -1.640625 7.671875 -0.921875 C 7.128906 -0.210938 6.390625 0.140625 5.453125 0.140625 C 4.523438 0.140625 3.800781 -0.191406 3.28125 -0.859375 L 3.125 -0.859375 L 2.765625 0 L 1.125 0 L 1.125 -10.96875 L 3.28125 -10.96875 L 3.28125 -8.421875 C 3.28125 -8.097656 3.25 -7.578125 3.1875 -6.859375 L 3.28125 -6.859375 C 3.78125 -7.640625 4.523438 -8.03125 5.515625 -8.03125 Z M 4.828125 -6.3125 C 4.296875 -6.3125 3.90625 -6.144531 3.65625 -5.8125 C 3.414062 -5.488281 3.289062 -4.953125 3.28125 -4.203125 L 3.28125 -3.96875 C 3.28125 -3.125 3.40625 -2.515625 3.65625 -2.140625 C 3.90625 -1.773438 4.300781 -1.59375 4.84375 -1.59375 C 5.289062 -1.59375 5.644531 -1.796875 5.90625 -2.203125 C 6.164062 -2.609375 6.296875 -3.203125 6.296875 -3.984375 C 6.296875 -4.753906 6.160156 -5.332031 5.890625 -5.71875 C 5.628906 -6.113281 5.273438 -6.3125 4.828125 -6.3125 Z M 4.828125 -6.3125 "/></g></g></g><g fill="#008037" fill-opacity="1"><g transform="translate(86.427748, 169.766052)"><g><path d="M 10.75 0 L 6.03125 -15.34375 L 5.921875 -15.34375 C 6.085938 -12.226562 6.171875 -10.144531 6.171875 -9.09375 L 6.171875 0 L 2.46875 0 L 2.46875 -19.5625 L 8.109375 -19.5625 L 12.734375 -4.609375 L 12.8125 -4.609375 L 17.734375 -19.5625 L 23.375 -19.5625 L 23.375 0 L 19.515625 0 L 19.515625 -9.265625 C 19.515625 -9.703125 19.519531 -10.203125 19.53125 -10.765625 C 19.539062 -11.335938 19.601562 -12.859375 19.71875 -15.328125 L 19.59375 -15.328125 L 14.546875 0 Z M 10.75 0 "/></g></g></g><g fill="#008037" fill-opacity="1"><g transform="translate(112.258138, 169.766052)"><g><path d="M 11.640625 0 L 10.859375 -2.03125 L 10.75 -2.03125 C 10.0625 -1.164062 9.351562 -0.566406 8.625 -0.234375 C 7.894531 0.0976562 6.945312 0.265625 5.78125 0.265625 C 4.34375 0.265625 3.210938 -0.140625 2.390625 -0.953125 C 1.566406 -1.773438 1.15625 -2.945312 1.15625 -4.46875 C 1.15625 -6.0625 1.707031 -7.234375 2.8125 -7.984375 C 3.925781 -8.734375 5.601562 -9.148438 7.84375 -9.234375 L 10.4375 -9.3125 L 10.4375 -9.96875 C 10.4375 -11.488281 9.660156 -12.25 8.109375 -12.25 C 6.910156 -12.25 5.503906 -11.882812 3.890625 -11.15625 L 2.546875 -13.921875 C 4.265625 -14.816406 6.171875 -15.265625 8.265625 -15.265625 C 10.273438 -15.265625 11.816406 -14.828125 12.890625 -13.953125 C 13.960938 -13.078125 14.5 -11.75 14.5 -9.96875 L 14.5 0 Z M 10.4375 -6.9375 L 8.859375 -6.875 C 7.671875 -6.84375 6.785156 -6.628906 6.203125 -6.234375 C 5.628906 -5.835938 5.34375 -5.238281 5.34375 -4.4375 C 5.34375 -3.289062 6 -2.71875 7.3125 -2.71875 C 8.257812 -2.71875 9.015625 -2.988281 9.578125 -3.53125 C 10.148438 -4.070312 10.4375 -4.796875 10.4375 -5.703125 Z M 10.4375 -6.9375 "/></g></g></g><g fill="#008037" fill-opacity="1"><g transform="translate(128.805107, 169.766052)"><g><path d="M 10.359375 0.265625 C 8.597656 0.265625 7.21875 -0.367188 6.21875 -1.640625 L 6.015625 -1.640625 C 6.148438 -0.390625 6.21875 0.328125 6.21875 0.515625 L 6.21875 6.578125 L 2.140625 6.578125 L 2.140625 -14.96875 L 5.453125 -14.96875 L 6.03125 -13.015625 L 6.21875 -13.015625 C 7.175781 -14.492188 8.59375 -15.234375 10.46875 -15.234375 C 12.226562 -15.234375 13.609375 -14.550781 14.609375 -13.1875 C 15.609375 -11.820312 16.109375 -9.925781 16.109375 -7.5 C 16.109375 -5.90625 15.875 -4.519531 15.40625 -3.34375 C 14.9375 -2.164062 14.269531 -1.269531 13.40625 -0.65625 C 12.539062 -0.0390625 11.523438 0.265625 10.359375 0.265625 Z M 9.15625 -11.984375 C 8.144531 -11.984375 7.40625 -11.671875 6.9375 -11.046875 C 6.476562 -10.421875 6.238281 -9.394531 6.21875 -7.96875 L 6.21875 -7.53125 C 6.21875 -5.925781 6.457031 -4.773438 6.9375 -4.078125 C 7.414062 -3.378906 8.171875 -3.03125 9.203125 -3.03125 C 11.035156 -3.03125 11.953125 -4.539062 11.953125 -7.5625 C 11.953125 -9.03125 11.722656 -10.132812 11.265625 -10.875 C 10.816406 -11.613281 10.113281 -11.984375 9.15625 -11.984375 Z M 9.15625 -11.984375 "/></g></g></g><g fill="#008037" fill-opacity="1"><g transform="translate(146.141296, 169.766052)"><g><path d="M 12.578125 -4.4375 C 12.578125 -2.90625 12.039062 -1.738281 10.96875 -0.9375 C 9.90625 -0.132812 8.316406 0.265625 6.203125 0.265625 C 5.109375 0.265625 4.175781 0.191406 3.40625 0.046875 C 2.644531 -0.0976562 1.929688 -0.316406 1.265625 -0.609375 L 1.265625 -3.96875 C 2.015625 -3.613281 2.863281 -3.316406 3.8125 -3.078125 C 4.769531 -2.835938 5.609375 -2.71875 6.328125 -2.71875 C 7.804688 -2.71875 8.546875 -3.144531 8.546875 -4 C 8.546875 -4.320312 8.445312 -4.582031 8.25 -4.78125 C 8.0625 -4.976562 7.722656 -5.203125 7.234375 -5.453125 C 6.753906 -5.710938 6.113281 -6.015625 5.3125 -6.359375 C 4.164062 -6.835938 3.320312 -7.28125 2.78125 -7.6875 C 2.238281 -8.101562 1.84375 -8.578125 1.59375 -9.109375 C 1.351562 -9.640625 1.234375 -10.289062 1.234375 -11.0625 C 1.234375 -12.394531 1.75 -13.421875 2.78125 -14.140625 C 3.8125 -14.867188 5.269531 -15.234375 7.15625 -15.234375 C 8.957031 -15.234375 10.710938 -14.84375 12.421875 -14.0625 L 11.1875 -11.125 C 10.4375 -11.445312 9.734375 -11.707031 9.078125 -11.90625 C 8.429688 -12.113281 7.769531 -12.21875 7.09375 -12.21875 C 5.882812 -12.21875 5.28125 -11.890625 5.28125 -11.234375 C 5.28125 -10.867188 5.472656 -10.550781 5.859375 -10.28125 C 6.253906 -10.019531 7.109375 -9.625 8.421875 -9.09375 C 9.585938 -8.625 10.441406 -8.179688 10.984375 -7.765625 C 11.523438 -7.359375 11.925781 -6.882812 12.1875 -6.34375 C 12.445312 -5.8125 12.578125 -5.175781 12.578125 -4.4375 Z M 12.578125 -4.4375 "/></g></g></g></svg>