<svg xmlns="http://www.w3.org/2000/svg" xmlns:xlink="http://www.w3.org/1999/xlink" width="256" zoomAndPan="magnify" viewBox="0 0 192 191.999996" height="256" preserveAspectRatio="xMidYMid meet" version="1.0"><defs><filter x="0%" y="0%" width="100%" height="100%" id="7671de381e"><feColorMatrix values="0 0 0 0 1 0 0 0 0 1 0 0 0 0 1 0 0 0 1 0" color-interpolation-filters="sRGB"/></filter><g/><clipPath id="b5c52983b9"><path d="M 27.105469 11.765625 L 165.105469 11.765625 L 165.105469 149.765625 L 27.105469 149.765625 Z M 27.105469 11.765625 " clip-rule="nonzero"/></clipPath><clipPath id="b3a63a6b76"><path d="M 78 44 L 128.820312 44 L 128.820312 90 L 78 90 Z M 78 44 " clip-rule="nonzero"/></clipPath><clipPath id="031ddb0bae"><path d="M 65 90 L 102 90 L 102 93.226562 L 65 93.226562 Z M 65 90 " clip-rule="nonzero"/></clipPath><mask id="9639da5d5e"><g filter="url(#7671de381e)"><rect x="-19.2" width="230.4" fill="#000000" y="-19.2" height="230.399995" fill-opacity="0.6"/></g></mask><clipPath id="141fec0426"><path d="M 0.195312 0.773438 L 34.695312 0.773438 L 34.695312 64.523438 L 0.195312 64.523438 Z M 0.195312 0.773438 " clip-rule="nonzero"/></clipPath><clipPath id="c2434b75c2"><rect x="0" width="36" y="0" height="67"/></clipPath></defs><g clip-path="url(#b5c52983b9)"><path fill="#22c969" d="M 96.105469 11.765625 C 57.996094 11.765625 27.105469 42.65625 27.105469 80.765625 C 27.105469 118.875 57.996094 149.765625 96.105469 149.765625 C 134.210938 149.765625 165.105469 118.875 165.105469 80.765625 C 165.105469 42.65625 134.210938 11.765625 96.105469 11.765625 " fill-opacity="1" fill-rule="nonzero"/></g><path fill="#000000" d="M 108.46875 50.882812 C 109.714844 49.324219 107.328125 45.304688 103.136719 41.910156 C 98.945312 38.515625 94.535156 37.027344 93.289062 38.585938 C 93.035156 38.902344 92.933594 39.320312 92.964844 39.816406 L 90.972656 42.3125 L 105.347656 53.957031 L 107.339844 51.460938 C 107.828125 51.386719 108.214844 51.199219 108.46875 50.882812 " fill-opacity="1" fill-rule="nonzero"/><path fill="#000000" d="M 72.445312 64.636719 C 71.199219 66.195312 73.585938 70.210938 77.777344 73.609375 C 81.96875 77.003906 86.378906 78.492188 87.625 76.933594 C 87.878906 76.617188 87.980469 76.195312 87.949219 75.699219 L 89.945312 73.207031 L 75.570312 61.5625 L 73.574219 64.054688 C 73.085938 64.128906 72.699219 64.320312 72.445312 64.636719 " fill-opacity="1" fill-rule="nonzero"/><g clip-path="url(#b3a63a6b76)"><path fill="#000000" d="M 127.476562 84.210938 L 104.339844 65.46875 C 104.890625 64.78125 104.847656 63.789062 104.238281 63.152344 L 99.707031 58.40625 L 102.789062 54.554688 L 90.933594 44.953125 L 78.128906 60.960938 L 89.980469 70.5625 L 93.0625 66.714844 L 98.636719 70.152344 C 99.382812 70.613281 100.355469 70.445312 100.90625 69.757812 L 124.042969 88.5 C 125.21875 89.453125 126.941406 89.265625 127.890625 88.082031 C 128.835938 86.894531 128.652344 85.164062 127.476562 84.210938 " fill-opacity="1" fill-rule="nonzero"/></g><g clip-path="url(#031ddb0bae)"><path fill="#000000" d="M 101.671875 95.71875 C 101.632812 94.636719 100.75 93.765625 99.664062 93.765625 L 99.484375 93.765625 L 99.484375 92.488281 C 99.484375 91.375 98.578125 90.460938 97.46875 90.460938 L 69.820312 90.460938 C 68.714844 90.460938 67.808594 91.375 67.808594 92.488281 L 67.808594 93.765625 L 67.625 93.765625 C 66.542969 93.765625 65.65625 94.636719 65.617188 95.71875 L 101.671875 95.71875 " fill-opacity="1" fill-rule="nonzero"/></g><g mask="url(#9639da5d5e)"><g transform="matrix(1, 0, 0, 1, 57, 29)"><g clip-path="url(#c2434b75c2)"><g clip-path="url(#141fec0426)"><path fill="#22c969" d="M 0.195312 0.773438 L 34.695312 0.773438 L 34.695312 64.519531 L 0.195312 64.519531 L 0.195312 0.773438 " fill-opacity="1" fill-rule="nonzero"/></g></g></g></g><g fill="#ffffff" fill-opacity="1"><g transform="translate(59.702525, 109.620572)"><g><path d="M 9.421875 -3.0625 L 8.828125 0 L 0.234375 0 L 0.234375 -0.375 C 0.785156 -0.425781 1.140625 -0.515625 1.296875 -0.640625 C 1.453125 -0.773438 1.53125 -1.03125 1.53125 -1.40625 L 1.53125 -8.515625 C 1.53125 -8.890625 1.441406 -9.148438 1.265625 -9.296875 C 1.085938 -9.441406 0.742188 -9.53125 0.234375 -9.5625 L 0.234375 -9.921875 L 8.703125 -9.921875 L 8.703125 -6.984375 L 8.34375 -6.984375 C 8.15625 -7.960938 7.828125 -8.613281 7.359375 -8.9375 C 6.890625 -9.257812 6.054688 -9.421875 4.859375 -9.421875 C 4.472656 -9.421875 4.21875 -9.375 4.09375 -9.28125 C 3.96875 -9.195312 3.90625 -9.015625 3.90625 -8.734375 L 3.90625 -5.328125 C 4.695312 -5.316406 5.265625 -5.46875 5.609375 -5.78125 C 5.953125 -6.09375 6.175781 -6.671875 6.28125 -7.515625 L 6.671875 -7.515625 L 6.671875 -2.5625 L 6.28125 -2.5625 C 6.195312 -3.40625 5.976562 -3.992188 5.625 -4.328125 C 5.28125 -4.660156 4.707031 -4.828125 3.90625 -4.828125 L 3.90625 -1.28125 C 3.90625 -0.96875 3.988281 -0.75 4.15625 -0.625 C 4.332031 -0.507812 4.65625 -0.453125 5.125 -0.453125 C 6.21875 -0.453125 7.097656 -0.722656 7.765625 -1.265625 C 8.222656 -1.648438 8.632812 -2.25 9 -3.0625 Z M 9.421875 -3.0625 "/></g></g></g><g fill="#ffffff" fill-opacity="1"><g transform="translate(69.496807, 109.620572)"><g><path d="M 11.09375 -3.84375 C 10.539062 -3.789062 10.191406 -3.6875 10.046875 -3.53125 C 9.898438 -3.375 9.828125 -3.03125 9.828125 -2.5 L 9.828125 -0.625 C 9.359375 -0.351562 8.753906 -0.132812 8.015625 0.03125 C 7.285156 0.195312 6.535156 0.28125 5.765625 0.28125 C 4.234375 0.28125 2.976562 -0.191406 2 -1.140625 C 1.03125 -2.097656 0.546875 -3.335938 0.546875 -4.859375 C 0.546875 -6.367188 1.03125 -7.628906 2 -8.640625 C 2.976562 -9.648438 4.195312 -10.15625 5.65625 -10.15625 C 6.332031 -10.15625 7.09375 -9.984375 7.9375 -9.640625 C 8.238281 -9.492188 8.460938 -9.421875 8.609375 -9.421875 C 8.742188 -9.421875 8.859375 -9.46875 8.953125 -9.5625 C 9.054688 -9.664062 9.15625 -9.847656 9.25 -10.109375 L 9.65625 -10.109375 L 9.65625 -6.671875 L 9.28125 -6.671875 C 9.03125 -7.222656 8.796875 -7.65625 8.578125 -7.96875 C 8.367188 -8.28125 8.109375 -8.570312 7.796875 -8.84375 C 7.160156 -9.394531 6.507812 -9.671875 5.84375 -9.671875 C 4.957031 -9.671875 4.285156 -9.269531 3.828125 -8.46875 C 3.367188 -7.664062 3.140625 -6.5 3.140625 -4.96875 C 3.140625 -3.207031 3.457031 -1.921875 4.09375 -1.109375 C 4.5625 -0.503906 5.238281 -0.203125 6.125 -0.203125 C 6.613281 -0.203125 6.96875 -0.285156 7.1875 -0.453125 C 7.414062 -0.628906 7.53125 -0.90625 7.53125 -1.28125 L 7.53125 -2.8125 C 7.53125 -3.21875 7.4375 -3.484375 7.25 -3.609375 C 7.070312 -3.734375 6.671875 -3.8125 6.046875 -3.84375 L 6.046875 -4.21875 L 11.09375 -4.21875 Z M 11.09375 -3.84375 "/></g></g></g><g fill="#ffffff" fill-opacity="1"><g transform="translate(80.921026, 109.620572)"><g><path d="M 10.125 0 L 5.359375 0 L 5.359375 -0.375 L 5.828125 -0.40625 C 6.085938 -0.414062 6.269531 -0.457031 6.375 -0.53125 C 6.476562 -0.601562 6.53125 -0.722656 6.53125 -0.890625 C 6.53125 -1.179688 6.304688 -1.847656 5.859375 -2.890625 L 2.5625 -2.890625 L 2.328125 -2.3125 C 2.046875 -1.601562 1.90625 -1.15625 1.90625 -0.96875 C 1.90625 -0.78125 2 -0.640625 2.1875 -0.546875 C 2.375 -0.453125 2.679688 -0.394531 3.109375 -0.375 L 3.109375 0 L 0.125 0 L 0.125 -0.375 C 0.476562 -0.4375 0.738281 -0.566406 0.90625 -0.765625 C 1.070312 -0.960938 1.296875 -1.398438 1.578125 -2.078125 L 4.828125 -10.140625 L 5.25 -10.140625 L 8.515625 -2.40625 C 8.910156 -1.488281 9.195312 -0.921875 9.375 -0.703125 C 9.550781 -0.484375 9.800781 -0.375 10.125 -0.375 Z M 5.640625 -3.46875 L 4.15625 -7.03125 L 2.78125 -3.46875 Z M 5.640625 -3.46875 "/></g></g></g><g fill="#ffffff" fill-opacity="1"><g transform="translate(91.522932, 109.620572)"><g><path d="M 9.375 -3.328125 L 8.765625 0 L 0.28125 0 L 0.28125 -0.375 C 0.820312 -0.4375 1.164062 -0.53125 1.3125 -0.65625 C 1.46875 -0.789062 1.546875 -1.039062 1.546875 -1.40625 L 1.546875 -8.515625 C 1.546875 -8.890625 1.457031 -9.148438 1.28125 -9.296875 C 1.113281 -9.441406 0.78125 -9.53125 0.28125 -9.5625 L 0.28125 -9.921875 L 5.40625 -9.921875 L 5.40625 -9.5625 C 4.769531 -9.53125 4.363281 -9.429688 4.1875 -9.265625 C 4.007812 -9.109375 3.921875 -8.753906 3.921875 -8.203125 L 3.921875 -1.28125 C 3.921875 -0.96875 4 -0.75 4.15625 -0.625 C 4.320312 -0.507812 4.628906 -0.453125 5.078125 -0.453125 C 6.191406 -0.453125 7.050781 -0.722656 7.65625 -1.265625 C 7.90625 -1.492188 8.117188 -1.75 8.296875 -2.03125 C 8.472656 -2.320312 8.6875 -2.753906 8.9375 -3.328125 Z M 9.375 -3.328125 "/></g></g></g><g fill="#000000" fill-opacity="1"><g transform="translate(101.307526, 109.620572)"><g><path d="M 9.3125 -3.546875 L 8.9375 0 L 0.40625 0 L 0.40625 -0.234375 L 6.015625 -9.421875 L 4.796875 -9.375 C 3.703125 -9.375 2.929688 -9.21875 2.484375 -8.90625 C 2.035156 -8.59375 1.632812 -7.925781 1.28125 -6.90625 L 0.859375 -6.90625 L 1.171875 -9.921875 L 8.875 -9.921875 L 8.875 -9.6875 L 3.3125 -0.515625 L 4.390625 -0.515625 C 5.929688 -0.515625 6.96875 -0.707031 7.5 -1.09375 C 7.84375 -1.332031 8.117188 -1.625 8.328125 -1.96875 C 8.535156 -2.320312 8.738281 -2.847656 8.9375 -3.546875 Z M 9.3125 -3.546875 "/></g></g></g><g fill="#000000" fill-opacity="1"><g transform="translate(111.101807, 109.620572)"><g><path d="M 10.125 0 L 5.359375 0 L 5.359375 -0.375 L 5.828125 -0.40625 C 6.085938 -0.414062 6.269531 -0.457031 6.375 -0.53125 C 6.476562 -0.601562 6.53125 -0.722656 6.53125 -0.890625 C 6.53125 -1.179688 6.304688 -1.847656 5.859375 -2.890625 L 2.5625 -2.890625 L 2.328125 -2.3125 C 2.046875 -1.601562 1.90625 -1.15625 1.90625 -0.96875 C 1.90625 -0.78125 2 -0.640625 2.1875 -0.546875 C 2.375 -0.453125 2.679688 -0.394531 3.109375 -0.375 L 3.109375 0 L 0.125 0 L 0.125 -0.375 C 0.476562 -0.4375 0.738281 -0.566406 0.90625 -0.765625 C 1.070312 -0.960938 1.296875 -1.398438 1.578125 -2.078125 L 4.828125 -10.140625 L 5.25 -10.140625 L 8.515625 -2.40625 C 8.910156 -1.488281 9.195312 -0.921875 9.375 -0.703125 C 9.550781 -0.484375 9.800781 -0.375 10.125 -0.375 Z M 5.640625 -3.46875 L 4.15625 -7.03125 L 2.78125 -3.46875 Z M 5.640625 -3.46875 "/></g></g></g><g fill="#000000" fill-opacity="1"><g transform="translate(121.703714, 109.620572)"><g><path d="M 10.5 0 L 7.484375 0 L 4.453125 -4.59375 L 4.046875 -4.59375 L 4.046875 -1.71875 C 4.046875 -1.195312 4.117188 -0.859375 4.265625 -0.703125 C 4.421875 -0.546875 4.78125 -0.4375 5.34375 -0.375 L 5.34375 0 L 0.375 0 L 0.375 -0.375 C 0.957031 -0.4375 1.316406 -0.539062 1.453125 -0.6875 C 1.597656 -0.832031 1.671875 -1.175781 1.671875 -1.71875 L 1.671875 -8.203125 C 1.671875 -8.734375 1.585938 -9.082031 1.421875 -9.25 C 1.265625 -9.414062 0.914062 -9.519531 0.375 -9.5625 L 0.375 -9.921875 L 5.109375 -9.921875 C 6.453125 -9.921875 7.476562 -9.695312 8.1875 -9.25 C 8.894531 -8.800781 9.25 -8.15625 9.25 -7.3125 C 9.25 -6.625 9.03125 -6.078125 8.59375 -5.671875 C 8.226562 -5.347656 7.679688 -5.066406 6.953125 -4.828125 L 9.90625 -0.640625 C 10.050781 -0.460938 10.25 -0.375 10.5 -0.375 Z M 6.734375 -7.25 C 6.734375 -8.03125 6.585938 -8.585938 6.296875 -8.921875 C 6.003906 -9.253906 5.519531 -9.421875 4.84375 -9.421875 C 4.46875 -9.421875 4.238281 -9.347656 4.15625 -9.203125 C 4.082031 -9.066406 4.046875 -8.9375 4.046875 -8.8125 L 4.046875 -5.0625 C 5.023438 -5.070312 5.691406 -5.195312 6.046875 -5.4375 C 6.503906 -5.738281 6.734375 -6.34375 6.734375 -7.25 Z M 6.734375 -7.25 "/></g></g></g><g fill="#ffffff" fill-opacity="1"><g transform="translate(45.85385, 110.170918)"><g><path d="M 13.21875 -4.703125 L 12.375 0 L 0.390625 0 L 0.390625 -0.515625 C 1.148438 -0.609375 1.632812 -0.742188 1.84375 -0.921875 C 2.0625 -1.109375 2.171875 -1.460938 2.171875 -1.984375 L 2.171875 -12.015625 C 2.171875 -12.535156 2.050781 -12.898438 1.8125 -13.109375 C 1.570312 -13.316406 1.097656 -13.441406 0.390625 -13.484375 L 0.390625 -14 L 7.625 -14 L 7.625 -13.484375 C 6.726562 -13.441406 6.15625 -13.304688 5.90625 -13.078125 C 5.65625 -12.847656 5.53125 -12.347656 5.53125 -11.578125 L 5.53125 -1.796875 C 5.53125 -1.359375 5.644531 -1.054688 5.875 -0.890625 C 6.101562 -0.722656 6.535156 -0.640625 7.171875 -0.640625 C 8.742188 -0.640625 9.953125 -1.019531 10.796875 -1.78125 C 11.148438 -2.113281 11.453125 -2.476562 11.703125 -2.875 C 11.953125 -3.28125 12.257812 -3.890625 12.625 -4.703125 Z M 13.21875 -4.703125 "/></g></g></g><g fill="#000000" fill-opacity="1"><g transform="translate(133.538564, 110.170918)"><g><path d="M 12.234375 -12.171875 C 13.609375 -10.960938 14.296875 -9.285156 14.296875 -7.140625 C 14.296875 -5.003906 13.609375 -3.28125 12.234375 -1.96875 C 10.867188 -0.65625 9.070312 0 6.84375 0 L 0.296875 0 L 0.296875 -0.515625 C 0.890625 -0.523438 1.320312 -0.640625 1.59375 -0.859375 C 1.875 -1.085938 2.015625 -1.429688 2.015625 -1.890625 L 2.015625 -12.09375 C 2.015625 -12.5625 1.890625 -12.894531 1.640625 -13.09375 C 1.398438 -13.289062 0.953125 -13.421875 0.296875 -13.484375 L 0.296875 -14 L 6.609375 -14 C 8.992188 -14 10.867188 -13.390625 12.234375 -12.171875 Z M 10.6875 -6.84375 C 10.6875 -8.632812 10.40625 -10.082031 9.84375 -11.1875 C 9.15625 -12.59375 8.070312 -13.296875 6.59375 -13.296875 C 5.769531 -13.296875 5.359375 -13.054688 5.359375 -12.578125 L 5.359375 -1.921875 C 5.359375 -1.453125 5.441406 -1.132812 5.609375 -0.96875 C 5.773438 -0.800781 6.09375 -0.71875 6.5625 -0.71875 C 7.894531 -0.71875 8.910156 -1.195312 9.609375 -2.15625 C 10.328125 -3.164062 10.6875 -4.726562 10.6875 -6.84375 Z M 10.6875 -6.84375 "/></g></g></g><g fill="#008037" fill-opacity="1"><g transform="translate(45.659949, 172.85513)"><g><path d="M 12.640625 -4.09375 L 11.84375 0 L 0.3125 0 L 0.3125 -0.5 C 1.050781 -0.570312 1.523438 -0.691406 1.734375 -0.859375 C 1.941406 -1.035156 2.046875 -1.378906 2.046875 -1.890625 L 2.046875 -11.4375 C 2.046875 -11.9375 1.925781 -12.285156 1.6875 -12.484375 C 1.457031 -12.679688 1 -12.800781 0.3125 -12.84375 L 0.3125 -13.328125 L 11.6875 -13.328125 L 11.6875 -9.359375 L 11.203125 -9.359375 C 10.953125 -10.679688 10.507812 -11.5625 9.875 -12 C 9.25 -12.4375 8.132812 -12.65625 6.53125 -12.65625 C 6.019531 -12.65625 5.675781 -12.59375 5.5 -12.46875 C 5.332031 -12.34375 5.25 -12.097656 5.25 -11.734375 L 5.25 -7.15625 C 6.3125 -7.144531 7.070312 -7.347656 7.53125 -7.765625 C 7.988281 -8.191406 8.289062 -8.96875 8.4375 -10.09375 L 8.953125 -10.09375 L 8.953125 -3.4375 L 8.4375 -3.4375 C 8.320312 -4.570312 8.03125 -5.363281 7.5625 -5.8125 C 7.09375 -6.257812 6.320312 -6.484375 5.25 -6.484375 L 5.25 -1.71875 C 5.25 -1.289062 5.363281 -1 5.59375 -0.84375 C 5.820312 -0.6875 6.25 -0.609375 6.875 -0.609375 C 8.351562 -0.609375 9.539062 -0.972656 10.4375 -1.703125 C 11.039062 -2.210938 11.59375 -3.007812 12.09375 -4.09375 Z M 12.640625 -4.09375 "/></g></g></g><g fill="#008037" fill-opacity="1"><g transform="translate(58.8103, 172.85513)"><g><path d="M 14.890625 -5.171875 C 14.148438 -5.085938 13.679688 -4.941406 13.484375 -4.734375 C 13.285156 -4.523438 13.1875 -4.066406 13.1875 -3.359375 L 13.1875 -0.84375 C 12.5625 -0.476562 11.753906 -0.1875 10.765625 0.03125 C 9.773438 0.257812 8.769531 0.375 7.75 0.375 C 5.6875 0.375 4 -0.265625 2.6875 -1.546875 C 1.382812 -2.828125 0.734375 -4.488281 0.734375 -6.53125 C 0.734375 -8.550781 1.382812 -10.238281 2.6875 -11.59375 C 4 -12.945312 5.632812 -13.625 7.59375 -13.625 C 8.5 -13.625 9.515625 -13.394531 10.640625 -12.9375 C 11.054688 -12.75 11.363281 -12.65625 11.5625 -12.65625 C 11.738281 -12.65625 11.890625 -12.71875 12.015625 -12.84375 C 12.148438 -12.976562 12.285156 -13.21875 12.421875 -13.5625 L 12.953125 -13.5625 L 12.953125 -8.953125 L 12.46875 -8.953125 C 12.125 -9.703125 11.8125 -10.28125 11.53125 -10.6875 C 11.25 -11.101562 10.894531 -11.5 10.46875 -11.875 C 9.613281 -12.601562 8.738281 -12.96875 7.84375 -12.96875 C 6.644531 -12.96875 5.738281 -12.429688 5.125 -11.359375 C 4.519531 -10.296875 4.21875 -8.734375 4.21875 -6.671875 C 4.21875 -4.316406 4.644531 -2.59375 5.5 -1.5 C 6.132812 -0.6875 7.039062 -0.28125 8.21875 -0.28125 C 8.875 -0.28125 9.351562 -0.394531 9.65625 -0.625 C 9.957031 -0.851562 10.109375 -1.21875 10.109375 -1.71875 L 10.109375 -3.78125 C 10.109375 -4.320312 9.988281 -4.675781 9.75 -4.84375 C 9.507812 -5.007812 8.96875 -5.117188 8.125 -5.171875 L 8.125 -5.65625 L 14.890625 -5.65625 Z M 14.890625 -5.171875 "/></g></g></g><g fill="#008037" fill-opacity="1"><g transform="translate(74.14909, 172.85513)"><g><path d="M 13.59375 0 L 7.203125 0 L 7.203125 -0.5 L 7.828125 -0.546875 C 8.171875 -0.566406 8.414062 -0.625 8.5625 -0.71875 C 8.707031 -0.820312 8.78125 -0.984375 8.78125 -1.203125 C 8.78125 -1.585938 8.476562 -2.484375 7.875 -3.890625 L 3.4375 -3.890625 L 3.140625 -3.09375 C 2.753906 -2.144531 2.5625 -1.546875 2.5625 -1.296875 C 2.5625 -1.046875 2.6875 -0.859375 2.9375 -0.734375 C 3.1875 -0.609375 3.601562 -0.53125 4.1875 -0.5 L 4.1875 0 L 0.171875 0 L 0.171875 -0.5 C 0.648438 -0.582031 1 -0.753906 1.21875 -1.015625 C 1.445312 -1.285156 1.742188 -1.878906 2.109375 -2.796875 L 6.484375 -13.609375 L 7.046875 -13.609375 L 11.4375 -3.234375 C 11.957031 -1.992188 12.335938 -1.226562 12.578125 -0.9375 C 12.816406 -0.644531 13.15625 -0.5 13.59375 -0.5 Z M 7.578125 -4.65625 L 5.578125 -9.4375 L 3.734375 -4.65625 Z M 7.578125 -4.65625 "/></g></g></g><g fill="#008037" fill-opacity="1"><g transform="translate(88.383793, 172.85513)"><g><path d="M 12.578125 -4.46875 L 11.765625 0 L 0.375 0 L 0.375 -0.5 C 1.09375 -0.582031 1.554688 -0.707031 1.765625 -0.875 C 1.972656 -1.050781 2.078125 -1.390625 2.078125 -1.890625 L 2.078125 -11.4375 C 2.078125 -11.9375 1.957031 -12.285156 1.71875 -12.484375 C 1.488281 -12.679688 1.039062 -12.800781 0.375 -12.84375 L 0.375 -13.328125 L 7.25 -13.328125 L 7.25 -12.84375 C 6.394531 -12.800781 5.847656 -12.671875 5.609375 -12.453125 C 5.378906 -12.234375 5.265625 -11.753906 5.265625 -11.015625 L 5.265625 -1.71875 C 5.265625 -1.289062 5.375 -1 5.59375 -0.84375 C 5.8125 -0.6875 6.222656 -0.609375 6.828125 -0.609375 C 8.328125 -0.609375 9.472656 -0.972656 10.265625 -1.703125 C 10.609375 -2.015625 10.898438 -2.359375 11.140625 -2.734375 C 11.378906 -3.117188 11.671875 -3.695312 12.015625 -4.46875 Z M 12.578125 -4.46875 "/></g></g></g><g fill="#000000" fill-opacity="1"><g transform="translate(101.524171, 172.85513)"><g><path d="M 12.5 -4.75 L 11.984375 0 L 0.546875 0 L 0.546875 -0.3125 L 8.078125 -12.640625 L 6.453125 -12.578125 C 4.972656 -12.578125 3.929688 -12.363281 3.328125 -11.9375 C 2.722656 -11.519531 2.1875 -10.628906 1.71875 -9.265625 L 1.15625 -9.265625 L 1.578125 -13.328125 L 11.90625 -13.328125 L 11.90625 -13.015625 L 4.4375 -0.6875 L 5.890625 -0.6875 C 7.953125 -0.6875 9.347656 -0.941406 10.078125 -1.453125 C 10.535156 -1.785156 10.898438 -2.1875 11.171875 -2.65625 C 11.453125 -3.125 11.722656 -3.820312 11.984375 -4.75 Z M 12.5 -4.75 "/></g></g></g><g fill="#000000" fill-opacity="1"><g transform="translate(114.674522, 172.85513)"><g><path d="M 13.59375 0 L 7.203125 0 L 7.203125 -0.5 L 7.828125 -0.546875 C 8.171875 -0.566406 8.414062 -0.625 8.5625 -0.71875 C 8.707031 -0.820312 8.78125 -0.984375 8.78125 -1.203125 C 8.78125 -1.585938 8.476562 -2.484375 7.875 -3.890625 L 3.4375 -3.890625 L 3.140625 -3.09375 C 2.753906 -2.144531 2.5625 -1.546875 2.5625 -1.296875 C 2.5625 -1.046875 2.6875 -0.859375 2.9375 -0.734375 C 3.1875 -0.609375 3.601562 -0.53125 4.1875 -0.5 L 4.1875 0 L 0.171875 0 L 0.171875 -0.5 C 0.648438 -0.582031 1 -0.753906 1.21875 -1.015625 C 1.445312 -1.285156 1.742188 -1.878906 2.109375 -2.796875 L 6.484375 -13.609375 L 7.046875 -13.609375 L 11.4375 -3.234375 C 11.957031 -1.992188 12.335938 -1.226562 12.578125 -0.9375 C 12.816406 -0.644531 13.15625 -0.5 13.59375 -0.5 Z M 7.578125 -4.65625 L 5.578125 -9.4375 L 3.734375 -4.65625 Z M 7.578125 -4.65625 "/></g></g></g><g fill="#000000" fill-opacity="1"><g transform="translate(128.909225, 172.85513)"><g><path d="M 14.09375 0 L 10.0625 0 L 5.96875 -6.171875 L 5.4375 -6.171875 L 5.4375 -2.3125 C 5.4375 -1.613281 5.535156 -1.15625 5.734375 -0.9375 C 5.929688 -0.726562 6.410156 -0.582031 7.171875 -0.5 L 7.171875 0 L 0.515625 0 L 0.515625 -0.5 C 1.285156 -0.582031 1.765625 -0.722656 1.953125 -0.921875 C 2.148438 -1.117188 2.25 -1.582031 2.25 -2.3125 L 2.25 -11.015625 C 2.25 -11.734375 2.140625 -12.203125 1.921875 -12.421875 C 1.703125 -12.648438 1.234375 -12.789062 0.515625 -12.84375 L 0.515625 -13.328125 L 6.859375 -13.328125 C 8.660156 -13.328125 10.035156 -13.023438 10.984375 -12.421875 C 11.941406 -11.816406 12.421875 -10.945312 12.421875 -9.8125 C 12.421875 -8.894531 12.125 -8.160156 11.53125 -7.609375 C 11.050781 -7.171875 10.316406 -6.796875 9.328125 -6.484375 L 13.296875 -0.875 C 13.492188 -0.625 13.757812 -0.5 14.09375 -0.5 Z M 9.046875 -9.734375 C 9.046875 -10.773438 8.847656 -11.519531 8.453125 -11.96875 C 8.066406 -12.425781 7.414062 -12.65625 6.5 -12.65625 C 6.007812 -12.65625 5.703125 -12.554688 5.578125 -12.359375 C 5.484375 -12.179688 5.4375 -12.003906 5.4375 -11.828125 L 5.4375 -6.796875 C 6.757812 -6.816406 7.65625 -6.984375 8.125 -7.296875 C 8.738281 -7.703125 9.046875 -8.515625 9.046875 -9.734375 Z M 9.046875 -9.734375 "/></g></g></g><g fill="#008037" fill-opacity="1"><g transform="translate(27.104488, 174.780026)"><g><path d="M 17.734375 -6.3125 L 16.59375 0 L 0.53125 0 L 0.53125 -0.6875 C 1.550781 -0.820312 2.203125 -1.007812 2.484375 -1.25 C 2.773438 -1.488281 2.921875 -1.960938 2.921875 -2.671875 L 2.921875 -16.125 C 2.921875 -16.820312 2.757812 -17.3125 2.4375 -17.59375 C 2.113281 -17.875 1.476562 -18.039062 0.53125 -18.09375 L 0.53125 -18.796875 L 10.234375 -18.796875 L 10.234375 -18.09375 C 9.023438 -18.039062 8.253906 -17.859375 7.921875 -17.546875 C 7.585938 -17.242188 7.421875 -16.570312 7.421875 -15.53125 L 7.421875 -2.421875 C 7.421875 -1.828125 7.570312 -1.414062 7.875 -1.1875 C 8.1875 -0.96875 8.769531 -0.859375 9.625 -0.859375 C 11.726562 -0.859375 13.347656 -1.367188 14.484375 -2.390625 C 14.960938 -2.835938 15.367188 -3.328125 15.703125 -3.859375 C 16.035156 -4.398438 16.441406 -5.21875 16.921875 -6.3125 Z M 17.734375 -6.3125 "/></g></g></g><g fill="#000000" fill-opacity="1"><g transform="translate(144.814491, 174.655754)"><g><path d="M 16.4375 -16.34375 C 18.269531 -14.71875 19.1875 -12.46875 19.1875 -9.59375 C 19.1875 -6.71875 18.269531 -4.398438 16.4375 -2.640625 C 14.601562 -0.878906 12.179688 0 9.171875 0 L 0.390625 0 L 0.390625 -0.6875 C 1.179688 -0.707031 1.765625 -0.863281 2.140625 -1.15625 C 2.515625 -1.457031 2.703125 -1.914062 2.703125 -2.53125 L 2.703125 -16.25 C 2.703125 -16.875 2.535156 -17.316406 2.203125 -17.578125 C 1.878906 -17.835938 1.273438 -18.015625 0.390625 -18.109375 L 0.390625 -18.796875 L 8.875 -18.796875 C 12.082031 -18.796875 14.601562 -17.976562 16.4375 -16.34375 Z M 14.34375 -9.171875 C 14.34375 -11.585938 13.960938 -13.535156 13.203125 -15.015625 C 12.273438 -16.910156 10.820312 -17.859375 8.84375 -17.859375 C 7.75 -17.859375 7.203125 -17.53125 7.203125 -16.875 L 7.203125 -2.59375 C 7.203125 -1.957031 7.3125 -1.523438 7.53125 -1.296875 C 7.757812 -1.078125 8.1875 -0.96875 8.8125 -0.96875 C 10.59375 -0.96875 11.957031 -1.609375 12.90625 -2.890625 C 13.863281 -4.242188 14.34375 -6.335938 14.34375 -9.171875 Z M 14.34375 -9.171875 "/></g></g></g></svg>