<svg xmlns="http://www.w3.org/2000/svg" xmlns:xlink="http://www.w3.org/1999/xlink" width="256" zoomAndPan="magnify" viewBox="0 0 192 191.999996" height="256" preserveAspectRatio="xMidYMid meet" version="1.0"><defs><g/><clipPath id="7e37debbfe"><path d="M 29.261719 14.011719 L 162.761719 14.011719 L 162.761719 147.511719 L 29.261719 147.511719 Z M 29.261719 14.011719 " clip-rule="nonzero"/></clipPath></defs><g clip-path="url(#7e37debbfe)"><path fill="#ff0000" d="M 162.761719 80.761719 C 162.761719 117.625 132.875 147.511719 96.011719 147.511719 C 59.144531 147.511719 29.261719 117.625 29.261719 80.761719 C 29.261719 43.894531 59.144531 14.011719 96.011719 14.011719 C 132.875 14.011719 162.761719 43.894531 162.761719 80.761719 " fill-opacity="1" fill-rule="nonzero"/></g><path fill="#ffffff" d="M 108.617188 80.761719 L 122.941406 70.332031 L 133.425781 62.699219 C 135.027344 61.535156 137.273438 62.675781 137.273438 64.65625 L 137.273438 96.867188 C 137.273438 98.84375 135.027344 99.988281 133.425781 98.824219 L 122.941406 91.191406 L 108.617188 80.761719 " fill-opacity="1" fill-rule="nonzero"/><path fill="#ffffff" d="M 119.605469 110.117188 L 56.703125 110.117188 C 55.625 110.117188 54.75 109.242188 54.75 108.164062 L 54.75 53.355469 C 54.75 52.277344 55.625 51.402344 56.703125 51.402344 L 119.605469 51.402344 C 120.683594 51.402344 121.558594 52.277344 121.558594 53.355469 L 121.558594 108.164062 C 121.558594 109.242188 120.683594 110.117188 119.605469 110.117188 " fill-opacity="1" fill-rule="nonzero"/><g fill="#ff1616" fill-opacity="1"><g transform="translate(61.991977, 93.84953)"><g><path d="M 23.78125 -24.8125 L 23.78125 -9.875 C 23.78125 -6.625 22.859375 -4.109375 21.015625 -2.328125 C 19.179688 -0.546875 16.535156 0.34375 13.078125 0.34375 C 9.691406 0.34375 7.085938 -0.519531 5.265625 -2.25 C 3.453125 -3.988281 2.546875 -6.484375 2.546875 -9.734375 L 2.546875 -24.8125 L 9.28125 -24.8125 L 9.28125 -10.25 C 9.28125 -8.5 9.609375 -7.226562 10.265625 -6.4375 C 10.921875 -5.644531 11.890625 -5.25 13.171875 -5.25 C 14.546875 -5.25 15.539062 -5.640625 16.15625 -6.421875 C 16.769531 -7.210938 17.078125 -8.5 17.078125 -10.28125 L 17.078125 -24.8125 Z M 23.78125 -24.8125 "/></g></g></g><g fill="#ff1616" fill-opacity="1"><g transform="translate(88.296897, 93.84953)"><g><path d="M 25.03125 0 L 17.28125 0 L 12.4375 -7.75 L 7.65625 0 L 0.0625 0 L 8.296875 -12.703125 L 0.5625 -24.8125 L 8 -24.8125 L 12.484375 -17.140625 L 16.78125 -24.8125 L 24.4375 -24.8125 L 16.578125 -12.171875 Z M 25.03125 0 "/></g></g></g><g fill="#ffffff" fill-opacity="1"><g transform="translate(100.952062, 127.192749)"><g><path d="M 0.484375 0 L 3.3125 -13.34375 L 6.09375 -13.34375 L 3.765625 -2.34375 L 8.4375 -2.34375 L 7.9375 0 Z M 0.484375 0 "/></g></g></g><g fill="#ffffff" fill-opacity="1"><g transform="translate(110.638141, 127.192749)"><g><path d="M 2.9375 -12.609375 C 2.9375 -13.128906 3.082031 -13.523438 3.375 -13.796875 C 3.664062 -14.066406 4.078125 -14.203125 4.609375 -14.203125 C 5.046875 -14.203125 5.378906 -14.109375 5.609375 -13.921875 C 5.847656 -13.734375 5.96875 -13.460938 5.96875 -13.109375 C 5.96875 -12.628906 5.832031 -12.238281 5.5625 -11.9375 C 5.289062 -11.632812 4.875 -11.484375 4.3125 -11.484375 C 3.394531 -11.484375 2.9375 -11.859375 2.9375 -12.609375 Z M 3.09375 0 L 0.34375 0 L 2.5 -10.203125 L 5.25 -10.203125 Z M 3.09375 0 "/></g></g></g><g fill="#ffffff" fill-opacity="1"><g transform="translate(116.18869, 127.192749)"><g><path d="M 4.15625 -2.75 C 4.488281 -3.675781 4.769531 -4.351562 5 -4.78125 L 7.703125 -10.203125 L 10.65625 -10.203125 L 5.140625 0 L 2.1875 0 L 0.9375 -10.203125 L 3.625 -10.203125 L 4.03125 -4.859375 C 4.070312 -4.046875 4.09375 -3.34375 4.09375 -2.75 Z M 4.15625 -2.75 "/></g></g></g><g fill="#ffffff" fill-opacity="1"><g transform="translate(125.765219, 127.192749)"><g><path d="M 6.359375 -8.421875 C 5.816406 -8.421875 5.304688 -8.175781 4.828125 -7.6875 C 4.359375 -7.195312 4.050781 -6.601562 3.90625 -5.90625 L 4.3125 -5.90625 C 5.257812 -5.90625 5.992188 -6.050781 6.515625 -6.34375 C 7.046875 -6.644531 7.3125 -7.046875 7.3125 -7.546875 C 7.3125 -8.128906 6.992188 -8.421875 6.359375 -8.421875 Z M 4.859375 0.1875 C 3.578125 0.1875 2.582031 -0.15625 1.875 -0.84375 C 1.175781 -1.53125 0.828125 -2.503906 0.828125 -3.765625 C 0.828125 -5.023438 1.078125 -6.171875 1.578125 -7.203125 C 2.078125 -8.242188 2.753906 -9.035156 3.609375 -9.578125 C 4.472656 -10.128906 5.445312 -10.40625 6.53125 -10.40625 C 7.601562 -10.40625 8.441406 -10.15625 9.046875 -9.65625 C 9.648438 -9.15625 9.953125 -8.472656 9.953125 -7.609375 C 9.953125 -6.472656 9.441406 -5.597656 8.421875 -4.984375 C 7.410156 -4.367188 5.960938 -4.0625 4.078125 -4.0625 L 3.609375 -4.0625 L 3.59375 -3.859375 L 3.59375 -3.6875 C 3.59375 -3.125 3.75 -2.679688 4.0625 -2.359375 C 4.375 -2.046875 4.820312 -1.890625 5.40625 -1.890625 C 5.9375 -1.890625 6.414062 -1.945312 6.84375 -2.0625 C 7.28125 -2.175781 7.804688 -2.378906 8.421875 -2.671875 L 8.421875 -0.609375 C 7.367188 -0.078125 6.179688 0.1875 4.859375 0.1875 Z M 4.859375 0.1875 "/></g></g></g><g fill="#a6a6a6" fill-opacity="1"><g transform="translate(29.274401, 163.265495)"><g><path d="M 9.765625 -10.390625 L 9.765625 -3.671875 C 9.765625 -2.898438 9.59375 -2.222656 9.25 -1.640625 C 8.90625 -1.066406 8.40625 -0.625 7.75 -0.3125 C 7.101562 -0.0078125 6.335938 0.140625 5.453125 0.140625 C 4.117188 0.140625 3.082031 -0.195312 2.34375 -0.875 C 1.601562 -1.5625 1.234375 -2.5 1.234375 -3.6875 L 1.234375 -10.390625 L 3.4375 -10.390625 L 3.4375 -4.03125 C 3.4375 -3.226562 3.59375 -2.640625 3.90625 -2.265625 C 4.226562 -1.890625 4.765625 -1.703125 5.515625 -1.703125 C 6.234375 -1.703125 6.753906 -1.890625 7.078125 -2.265625 C 7.398438 -2.640625 7.5625 -3.234375 7.5625 -4.046875 L 7.5625 -10.390625 Z M 9.765625 -10.390625 "/></g></g></g><g fill="#a6a6a6" fill-opacity="1"><g transform="translate(40.272341, 163.265495)"><g><path d="M 6.671875 -2.359375 C 6.671875 -1.546875 6.390625 -0.925781 5.828125 -0.5 C 5.265625 -0.0703125 4.414062 0.140625 3.28125 0.140625 C 2.707031 0.140625 2.21875 0.0976562 1.8125 0.015625 C 1.40625 -0.0546875 1.023438 -0.164062 0.671875 -0.3125 L 0.671875 -2.109375 C 1.066406 -1.921875 1.515625 -1.757812 2.015625 -1.625 C 2.523438 -1.5 2.972656 -1.4375 3.359375 -1.4375 C 4.140625 -1.4375 4.53125 -1.664062 4.53125 -2.125 C 4.53125 -2.289062 4.476562 -2.425781 4.375 -2.53125 C 4.269531 -2.644531 4.085938 -2.769531 3.828125 -2.90625 C 3.578125 -3.039062 3.238281 -3.195312 2.8125 -3.375 C 2.207031 -3.625 1.757812 -3.859375 1.46875 -4.078125 C 1.1875 -4.296875 0.976562 -4.546875 0.84375 -4.828125 C 0.71875 -5.109375 0.65625 -5.457031 0.65625 -5.875 C 0.65625 -6.582031 0.925781 -7.128906 1.46875 -7.515625 C 2.019531 -7.898438 2.796875 -8.09375 3.796875 -8.09375 C 4.753906 -8.09375 5.6875 -7.882812 6.59375 -7.46875 L 5.9375 -5.90625 C 5.539062 -6.070312 5.164062 -6.207031 4.8125 -6.3125 C 4.46875 -6.425781 4.117188 -6.484375 3.765625 -6.484375 C 3.128906 -6.484375 2.8125 -6.3125 2.8125 -5.96875 C 2.8125 -5.769531 2.910156 -5.597656 3.109375 -5.453125 C 3.316406 -5.316406 3.769531 -5.109375 4.46875 -4.828125 C 5.082031 -4.578125 5.535156 -4.34375 5.828125 -4.125 C 6.117188 -3.90625 6.332031 -3.65625 6.46875 -3.375 C 6.601562 -3.09375 6.671875 -2.753906 6.671875 -2.359375 Z M 6.671875 -2.359375 "/></g></g></g><g fill="#a6a6a6" fill-opacity="1"><g transform="translate(47.504836, 163.265495)"><g><path d="M 4.421875 -6.546875 C 3.960938 -6.546875 3.601562 -6.398438 3.34375 -6.109375 C 3.082031 -5.816406 2.929688 -5.40625 2.890625 -4.875 L 5.9375 -4.875 C 5.925781 -5.40625 5.785156 -5.816406 5.515625 -6.109375 C 5.242188 -6.398438 4.878906 -6.546875 4.421875 -6.546875 Z M 4.734375 0.140625 C 3.453125 0.140625 2.453125 -0.207031 1.734375 -0.90625 C 1.015625 -1.613281 0.65625 -2.613281 0.65625 -3.90625 C 0.65625 -5.238281 0.988281 -6.269531 1.65625 -7 C 2.320312 -7.726562 3.238281 -8.09375 4.40625 -8.09375 C 5.53125 -8.09375 6.40625 -7.769531 7.03125 -7.125 C 7.65625 -6.488281 7.96875 -5.609375 7.96875 -4.484375 L 7.96875 -3.4375 L 2.84375 -3.4375 C 2.875 -2.8125 3.054688 -2.328125 3.390625 -1.984375 C 3.734375 -1.640625 4.210938 -1.46875 4.828125 -1.46875 C 5.304688 -1.46875 5.757812 -1.515625 6.1875 -1.609375 C 6.613281 -1.710938 7.054688 -1.875 7.515625 -2.09375 L 7.515625 -0.421875 C 7.140625 -0.234375 6.734375 -0.09375 6.296875 0 C 5.867188 0.09375 5.347656 0.140625 4.734375 0.140625 Z M 4.734375 0.140625 "/></g></g></g><g fill="#a6a6a6" fill-opacity="1"><g transform="translate(56.101417, 163.265495)"><g><path d="M 5.5625 -8.09375 C 5.863281 -8.09375 6.109375 -8.070312 6.296875 -8.03125 L 6.140625 -6 C 5.960938 -6.039062 5.75 -6.0625 5.5 -6.0625 C 4.800781 -6.0625 4.257812 -5.882812 3.875 -5.53125 C 3.488281 -5.175781 3.296875 -4.679688 3.296875 -4.046875 L 3.296875 0 L 1.140625 0 L 1.140625 -7.9375 L 2.78125 -7.9375 L 3.09375 -6.609375 L 3.203125 -6.609375 C 3.453125 -7.054688 3.785156 -7.414062 4.203125 -7.6875 C 4.617188 -7.957031 5.070312 -8.09375 5.5625 -8.09375 Z M 5.5625 -8.09375 "/></g></g></g><g fill="#a6a6a6" fill-opacity="1"><g transform="translate(62.708706, 163.265495)"><g/></g></g><g fill="#a6a6a6" fill-opacity="1"><g transform="translate(66.48836, 163.265495)"><g><path d="M 7.28125 0 L 1.3125 0 L 1.3125 -10.390625 L 7.28125 -10.390625 L 7.28125 -8.578125 L 3.515625 -8.578125 L 3.515625 -6.296875 L 7.03125 -6.296875 L 7.03125 -4.5 L 3.515625 -4.5 L 3.515625 -1.8125 L 7.28125 -1.8125 Z M 7.28125 0 "/></g></g></g><g fill="#a6a6a6" fill-opacity="1"><g transform="translate(74.637354, 163.265495)"><g><path d="M 2.765625 -4.0625 L 0.203125 -7.9375 L 2.65625 -7.9375 L 4.203125 -5.40625 L 5.765625 -7.9375 L 8.21875 -7.9375 L 5.625 -4.0625 L 8.34375 0 L 5.875 0 L 4.203125 -2.71875 L 2.53125 0 L 0.078125 0 Z M 2.765625 -4.0625 "/></g></g></g><g fill="#a6a6a6" fill-opacity="1"><g transform="translate(83.049215, 163.265495)"><g><path d="M 5.5 0.140625 C 4.5625 0.140625 3.828125 -0.195312 3.296875 -0.875 L 3.1875 -0.875 C 3.257812 -0.207031 3.296875 0.175781 3.296875 0.28125 L 3.296875 3.5 L 1.140625 3.5 L 1.140625 -7.9375 L 2.890625 -7.9375 L 3.203125 -6.90625 L 3.296875 -6.90625 C 3.804688 -7.695312 4.554688 -8.09375 5.546875 -8.09375 C 6.484375 -8.09375 7.21875 -7.726562 7.75 -7 C 8.28125 -6.28125 8.546875 -5.273438 8.546875 -3.984375 C 8.546875 -3.140625 8.421875 -2.40625 8.171875 -1.78125 C 7.929688 -1.15625 7.578125 -0.675781 7.109375 -0.34375 C 6.648438 -0.0195312 6.113281 0.140625 5.5 0.140625 Z M 4.859375 -6.359375 C 4.328125 -6.359375 3.9375 -6.191406 3.6875 -5.859375 C 3.4375 -5.535156 3.304688 -4.992188 3.296875 -4.234375 L 3.296875 -4 C 3.296875 -3.144531 3.421875 -2.53125 3.671875 -2.15625 C 3.929688 -1.789062 4.335938 -1.609375 4.890625 -1.609375 C 5.859375 -1.609375 6.34375 -2.410156 6.34375 -4.015625 C 6.34375 -4.796875 6.222656 -5.378906 5.984375 -5.765625 C 5.742188 -6.160156 5.367188 -6.359375 4.859375 -6.359375 Z M 4.859375 -6.359375 "/></g></g></g><g fill="#a6a6a6" fill-opacity="1"><g transform="translate(92.256792, 163.265495)"><g><path d="M 4.421875 -6.546875 C 3.960938 -6.546875 3.601562 -6.398438 3.34375 -6.109375 C 3.082031 -5.816406 2.929688 -5.40625 2.890625 -4.875 L 5.9375 -4.875 C 5.925781 -5.40625 5.785156 -5.816406 5.515625 -6.109375 C 5.242188 -6.398438 4.878906 -6.546875 4.421875 -6.546875 Z M 4.734375 0.140625 C 3.453125 0.140625 2.453125 -0.207031 1.734375 -0.90625 C 1.015625 -1.613281 0.65625 -2.613281 0.65625 -3.90625 C 0.65625 -5.238281 0.988281 -6.269531 1.65625 -7 C 2.320312 -7.726562 3.238281 -8.09375 4.40625 -8.09375 C 5.53125 -8.09375 6.40625 -7.769531 7.03125 -7.125 C 7.65625 -6.488281 7.96875 -5.609375 7.96875 -4.484375 L 7.96875 -3.4375 L 2.84375 -3.4375 C 2.875 -2.8125 3.054688 -2.328125 3.390625 -1.984375 C 3.734375 -1.640625 4.210938 -1.46875 4.828125 -1.46875 C 5.304688 -1.46875 5.757812 -1.515625 6.1875 -1.609375 C 6.613281 -1.710938 7.054688 -1.875 7.515625 -2.09375 L 7.515625 -0.421875 C 7.140625 -0.234375 6.734375 -0.09375 6.296875 0 C 5.867188 0.09375 5.347656 0.140625 4.734375 0.140625 Z M 4.734375 0.140625 "/></g></g></g><g fill="#a6a6a6" fill-opacity="1"><g transform="translate(100.853373, 163.265495)"><g><path d="M 5.5625 -8.09375 C 5.863281 -8.09375 6.109375 -8.070312 6.296875 -8.03125 L 6.140625 -6 C 5.960938 -6.039062 5.75 -6.0625 5.5 -6.0625 C 4.800781 -6.0625 4.257812 -5.882812 3.875 -5.53125 C 3.488281 -5.175781 3.296875 -4.679688 3.296875 -4.046875 L 3.296875 0 L 1.140625 0 L 1.140625 -7.9375 L 2.78125 -7.9375 L 3.09375 -6.609375 L 3.203125 -6.609375 C 3.453125 -7.054688 3.785156 -7.414062 4.203125 -7.6875 C 4.617188 -7.957031 5.070312 -8.09375 5.5625 -8.09375 Z M 5.5625 -8.09375 "/></g></g></g><g fill="#a6a6a6" fill-opacity="1"><g transform="translate(107.460663, 163.265495)"><g><path d="M 1.046875 -10 C 1.046875 -10.695312 1.4375 -11.046875 2.21875 -11.046875 C 3.007812 -11.046875 3.40625 -10.695312 3.40625 -10 C 3.40625 -9.65625 3.304688 -9.390625 3.109375 -9.203125 C 2.910156 -9.015625 2.613281 -8.921875 2.21875 -8.921875 C 1.4375 -8.921875 1.046875 -9.28125 1.046875 -10 Z M 3.296875 0 L 1.140625 0 L 1.140625 -7.9375 L 3.296875 -7.9375 Z M 3.296875 0 "/></g></g></g><g fill="#a6a6a6" fill-opacity="1"><g transform="translate(111.901048, 163.265495)"><g><path d="M 4.421875 -6.546875 C 3.960938 -6.546875 3.601562 -6.398438 3.34375 -6.109375 C 3.082031 -5.816406 2.929688 -5.40625 2.890625 -4.875 L 5.9375 -4.875 C 5.925781 -5.40625 5.785156 -5.816406 5.515625 -6.109375 C 5.242188 -6.398438 4.878906 -6.546875 4.421875 -6.546875 Z M 4.734375 0.140625 C 3.453125 0.140625 2.453125 -0.207031 1.734375 -0.90625 C 1.015625 -1.613281 0.65625 -2.613281 0.65625 -3.90625 C 0.65625 -5.238281 0.988281 -6.269531 1.65625 -7 C 2.320312 -7.726562 3.238281 -8.09375 4.40625 -8.09375 C 5.53125 -8.09375 6.40625 -7.769531 7.03125 -7.125 C 7.65625 -6.488281 7.96875 -5.609375 7.96875 -4.484375 L 7.96875 -3.4375 L 2.84375 -3.4375 C 2.875 -2.8125 3.054688 -2.328125 3.390625 -1.984375 C 3.734375 -1.640625 4.210938 -1.46875 4.828125 -1.46875 C 5.304688 -1.46875 5.757812 -1.515625 6.1875 -1.609375 C 6.613281 -1.710938 7.054688 -1.875 7.515625 -2.09375 L 7.515625 -0.421875 C 7.140625 -0.234375 6.734375 -0.09375 6.296875 0 C 5.867188 0.09375 5.347656 0.140625 4.734375 0.140625 Z M 4.734375 0.140625 "/></g></g></g><g fill="#a6a6a6" fill-opacity="1"><g transform="translate(120.497629, 163.265495)"><g><path d="M 8.46875 0 L 6.296875 0 L 6.296875 -4.640625 C 6.296875 -5.210938 6.191406 -5.640625 5.984375 -5.921875 C 5.785156 -6.210938 5.460938 -6.359375 5.015625 -6.359375 C 4.410156 -6.359375 3.972656 -6.15625 3.703125 -5.75 C 3.429688 -5.34375 3.296875 -4.671875 3.296875 -3.734375 L 3.296875 0 L 1.140625 0 L 1.140625 -7.9375 L 2.796875 -7.9375 L 3.078125 -6.921875 L 3.203125 -6.921875 C 3.441406 -7.304688 3.773438 -7.597656 4.203125 -7.796875 C 4.628906 -7.992188 5.109375 -8.09375 5.640625 -8.09375 C 6.566406 -8.09375 7.269531 -7.84375 7.75 -7.34375 C 8.226562 -6.84375 8.46875 -6.117188 8.46875 -5.171875 Z M 8.46875 0 "/></g></g></g><g fill="#a6a6a6" fill-opacity="1"><g transform="translate(130.060438, 163.265495)"><g><path d="M 4.359375 0.140625 C 1.890625 0.140625 0.65625 -1.210938 0.65625 -3.921875 C 0.65625 -5.273438 0.988281 -6.304688 1.65625 -7.015625 C 2.332031 -7.734375 3.296875 -8.09375 4.546875 -8.09375 C 5.472656 -8.09375 6.300781 -7.910156 7.03125 -7.546875 L 6.390625 -5.875 C 6.046875 -6.007812 5.726562 -6.117188 5.4375 -6.203125 C 5.144531 -6.296875 4.847656 -6.34375 4.546875 -6.34375 C 3.421875 -6.34375 2.859375 -5.539062 2.859375 -3.9375 C 2.859375 -2.382812 3.421875 -1.609375 4.546875 -1.609375 C 4.960938 -1.609375 5.347656 -1.664062 5.703125 -1.78125 C 6.066406 -1.894531 6.425781 -2.066406 6.78125 -2.296875 L 6.78125 -0.453125 C 6.425781 -0.222656 6.066406 -0.0664062 5.703125 0.015625 C 5.347656 0.0976562 4.898438 0.140625 4.359375 0.140625 Z M 4.359375 0.140625 "/></g></g></g><g fill="#a6a6a6" fill-opacity="1"><g transform="translate(137.541597, 163.265495)"><g><path d="M 4.421875 -6.546875 C 3.960938 -6.546875 3.601562 -6.398438 3.34375 -6.109375 C 3.082031 -5.816406 2.929688 -5.40625 2.890625 -4.875 L 5.9375 -4.875 C 5.925781 -5.40625 5.785156 -5.816406 5.515625 -6.109375 C 5.242188 -6.398438 4.878906 -6.546875 4.421875 -6.546875 Z M 4.734375 0.140625 C 3.453125 0.140625 2.453125 -0.207031 1.734375 -0.90625 C 1.015625 -1.613281 0.65625 -2.613281 0.65625 -3.90625 C 0.65625 -5.238281 0.988281 -6.269531 1.65625 -7 C 2.320312 -7.726562 3.238281 -8.09375 4.40625 -8.09375 C 5.53125 -8.09375 6.40625 -7.769531 7.03125 -7.125 C 7.65625 -6.488281 7.96875 -5.609375 7.96875 -4.484375 L 7.96875 -3.4375 L 2.84375 -3.4375 C 2.875 -2.8125 3.054688 -2.328125 3.390625 -1.984375 C 3.734375 -1.640625 4.210938 -1.46875 4.828125 -1.46875 C 5.304688 -1.46875 5.757812 -1.515625 6.1875 -1.609375 C 6.613281 -1.710938 7.054688 -1.875 7.515625 -2.09375 L 7.515625 -0.421875 C 7.140625 -0.234375 6.734375 -0.09375 6.296875 0 C 5.867188 0.09375 5.347656 0.140625 4.734375 0.140625 Z M 4.734375 0.140625 "/></g></g></g><g fill="#ff1616" fill-opacity="1"><g transform="translate(121.841695, 173.619588)"><g><path d="M 1.8125 0 L 1.8125 -14.390625 L 4.859375 -14.390625 L 4.859375 -2.515625 L 10.703125 -2.515625 L 10.703125 0 Z M 1.8125 0 "/></g></g></g><g fill="#ff1616" fill-opacity="1"><g transform="translate(133.222705, 173.619588)"><g><path d="M 1.453125 -13.84375 C 1.453125 -14.820312 1.992188 -15.3125 3.078125 -15.3125 C 4.171875 -15.3125 4.71875 -14.820312 4.71875 -13.84375 C 4.71875 -13.382812 4.578125 -13.023438 4.296875 -12.765625 C 4.023438 -12.503906 3.617188 -12.375 3.078125 -12.375 C 1.992188 -12.375 1.453125 -12.863281 1.453125 -13.84375 Z M 4.578125 0 L 1.578125 0 L 1.578125 -11 L 4.578125 -11 Z M 4.578125 0 "/></g></g></g><g fill="#ff1616" fill-opacity="1"><g transform="translate(139.370615, 173.619588)"><g><path d="M 4.1875 0 L 0 -11 L 3.140625 -11 L 5.265625 -4.734375 C 5.503906 -3.941406 5.648438 -3.191406 5.703125 -2.484375 L 5.765625 -2.484375 C 5.796875 -3.109375 5.941406 -3.859375 6.203125 -4.734375 L 8.328125 -11 L 11.46875 -11 L 7.265625 0 Z M 4.1875 0 "/></g></g></g><g fill="#ff1616" fill-opacity="1"><g transform="translate(150.830319, 173.619588)"><g><path d="M 6.125 -9.078125 C 5.488281 -9.078125 4.988281 -8.875 4.625 -8.46875 C 4.269531 -8.0625 4.066406 -7.488281 4.015625 -6.75 L 8.234375 -6.75 C 8.210938 -7.488281 8.015625 -8.0625 7.640625 -8.46875 C 7.273438 -8.875 6.769531 -9.078125 6.125 -9.078125 Z M 6.5625 0.203125 C 4.78125 0.203125 3.390625 -0.285156 2.390625 -1.265625 C 1.398438 -2.242188 0.90625 -3.628906 0.90625 -5.421875 C 0.90625 -7.265625 1.363281 -8.6875 2.28125 -9.6875 C 3.207031 -10.695312 4.484375 -11.203125 6.109375 -11.203125 C 7.660156 -11.203125 8.867188 -10.757812 9.734375 -9.875 C 10.609375 -8.988281 11.046875 -7.765625 11.046875 -6.203125 L 11.046875 -4.75 L 3.953125 -4.75 C 3.984375 -3.894531 4.234375 -3.226562 4.703125 -2.75 C 5.171875 -2.269531 5.832031 -2.03125 6.6875 -2.03125 C 7.351562 -2.03125 7.976562 -2.097656 8.5625 -2.234375 C 9.15625 -2.378906 9.773438 -2.601562 10.421875 -2.90625 L 10.421875 -0.578125 C 9.898438 -0.316406 9.335938 -0.125 8.734375 0 C 8.140625 0.132812 7.414062 0.203125 6.5625 0.203125 Z M 6.5625 0.203125 "/></g></g></g></svg>