<svg xmlns="http://www.w3.org/2000/svg" xmlns:xlink="http://www.w3.org/1999/xlink" width="256" zoomAndPan="magnify" viewBox="0 0 192 191.999996" height="256" preserveAspectRatio="xMidYMid meet" version="1.0"><defs><g/><clipPath id="4216e20b9a"><path d="M 29.492188 12.148438 L 156.992188 12.148438 L 156.992188 139.648438 L 29.492188 139.648438 Z M 29.492188 12.148438 " clip-rule="nonzero"/></clipPath><clipPath id="ba3e79cfc0"><path d="M 41.179688 70.246094 L 145.269531 70.246094 L 145.269531 123.734375 L 41.179688 123.734375 Z M 41.179688 70.246094 " clip-rule="nonzero"/></clipPath><clipPath id="dcd4efa3f6"><path d="M 69 42.734375 L 88 42.734375 L 88 68 L 69 68 Z M 69 42.734375 " clip-rule="nonzero"/></clipPath><clipPath id="bee1f84232"><path d="M 47 42.734375 L 67 42.734375 L 67 68 L 47 68 Z M 47 42.734375 " clip-rule="nonzero"/></clipPath><clipPath id="eb0a6adcae"><path d="M 91 42.734375 L 110 42.734375 L 110 68 L 91 68 Z M 91 42.734375 " clip-rule="nonzero"/></clipPath><clipPath id="ab39ad107c"><path d="M 113 42.734375 L 117 42.734375 L 117 68 L 113 68 Z M 113 42.734375 " clip-rule="nonzero"/></clipPath><clipPath id="4fb7886b56"><path d="M 120 42.734375 L 139 42.734375 L 139 68 L 120 68 Z M 120 42.734375 " clip-rule="nonzero"/></clipPath></defs><g clip-path="url(#4216e20b9a)"><path fill="#ff4c00" d="M 93.242188 12.148438 C 58.035156 12.148438 29.492188 40.6875 29.492188 75.898438 C 29.492188 111.105469 58.035156 139.648438 93.242188 139.648438 C 128.449219 139.648438 156.992188 111.105469 156.992188 75.898438 C 156.992188 40.6875 128.449219 12.148438 93.242188 12.148438 " fill-opacity="1" fill-rule="nonzero"/></g><g clip-path="url(#ba3e79cfc0)"><path fill="#ffffff" d="M 104.070312 119.121094 C 109.484375 114.226562 113.847656 105.730469 116.441406 95.0625 C 127.164062 92.484375 135.707031 88.148438 140.628906 82.765625 C 136.484375 100.785156 122.191406 115 104.070312 119.121094 Z M 45.820312 82.765625 C 50.742188 88.148438 59.285156 92.484375 70.007812 95.066406 C 72.605469 105.730469 76.964844 114.226562 82.378906 119.121094 C 64.261719 115.003906 49.964844 100.785156 45.820312 82.765625 Z M 67.402344 73.675781 C 67.496094 79.898438 68.117188 85.8125 69.175781 91.25 C 55.644531 87.621094 46.03125 81.089844 44.742188 73.675781 Z M 93.226562 120.335938 C 85.070312 120.335938 77.769531 110.371094 73.84375 95.894531 C 79.808594 97.042969 86.339844 97.671875 93.226562 97.671875 C 100.109375 97.671875 106.640625 97.042969 112.605469 95.894531 C 108.679688 110.371094 101.378906 120.335938 93.226562 120.335938 Z M 115.628906 73.675781 C 115.519531 80.214844 114.769531 86.46875 113.519531 92.160156 C 107.304688 93.511719 100.417969 94.273438 93.226562 94.273438 C 86.03125 94.273438 79.144531 93.511719 72.929688 92.160156 C 71.679688 86.46875 70.929688 80.214844 70.820312 73.675781 Z M 141.707031 73.675781 C 140.417969 81.089844 130.804688 87.621094 117.277344 91.25 C 118.335938 85.8125 118.953125 79.898438 119.050781 73.675781 Z M 143.5625 70.277344 L 42.886719 70.277344 C 41.941406 70.277344 41.179688 71.035156 41.179688 71.976562 C 41.179688 100.515625 64.527344 123.738281 93.226562 123.738281 C 121.921875 123.738281 145.269531 100.515625 145.269531 71.976562 C 145.269531 71.035156 144.503906 70.277344 143.5625 70.277344 " fill-opacity="1" fill-rule="nonzero"/></g><g clip-path="url(#dcd4efa3f6)"><path fill="#ffffff" d="M 72.785156 46.273438 L 77.441406 46.273438 C 81.3125 46.273438 84.457031 49.402344 84.457031 53.246094 L 84.457031 57.1875 C 84.457031 61.03125 81.3125 64.160156 77.441406 64.160156 L 72.785156 64.160156 Z M 71.074219 67.558594 L 77.441406 67.558594 C 83.195312 67.558594 87.875 62.90625 87.875 57.1875 L 87.875 53.246094 C 87.875 47.527344 83.195312 42.875 77.441406 42.875 L 71.074219 42.875 C 70.128906 42.875 69.363281 43.632812 69.363281 44.574219 L 69.363281 65.859375 C 69.363281 66.800781 70.128906 67.558594 71.074219 67.558594 " fill-opacity="1" fill-rule="nonzero"/></g><g clip-path="url(#bee1f84232)"><path fill="#ffffff" d="M 56.882812 49.6875 L 59.921875 58.257812 L 53.847656 58.257812 Z M 48.769531 67.464844 C 49.660156 67.777344 50.636719 67.308594 50.949219 66.425781 L 52.640625 61.65625 L 61.128906 61.65625 L 62.820312 66.425781 C 63.066406 67.125 63.726562 67.5625 64.429688 67.5625 C 64.617188 67.5625 64.8125 67.53125 65 67.464844 C 65.886719 67.152344 66.355469 66.179688 66.042969 65.296875 L 58.496094 44.007812 C 58.253906 43.328125 57.609375 42.875 56.882812 42.875 C 56.160156 42.875 55.511719 43.328125 55.273438 44.007812 L 47.726562 65.296875 C 47.414062 66.179688 47.878906 67.152344 48.769531 67.464844 " fill-opacity="1" fill-rule="nonzero"/></g><g clip-path="url(#eb0a6adcae)"><path fill="#ffffff" d="M 92.558594 67.542969 C 93.488281 67.679688 94.363281 67.039062 94.5 66.109375 L 96.523438 52.570312 L 98.714844 60.144531 C 98.921875 60.871094 99.59375 61.375 100.355469 61.375 C 101.117188 61.375 101.789062 60.871094 102 60.144531 L 104.1875 52.570312 L 106.210938 66.109375 C 106.335938 66.953125 107.066406 67.558594 107.902344 67.558594 C 107.984375 67.558594 108.070312 67.554688 108.152344 67.542969 C 109.089844 67.402344 109.730469 66.539062 109.59375 65.609375 L 106.410156 44.324219 C 106.292969 43.53125 105.632812 42.929688 104.832031 42.875 C 104.035156 42.828125 103.296875 43.332031 103.078125 44.101562 L 100.355469 53.519531 L 97.636719 44.101562 C 97.414062 43.335938 96.667969 42.828125 95.878906 42.875 C 95.078125 42.929688 94.421875 43.53125 94.300781 44.324219 L 91.117188 65.609375 C 90.980469 66.539062 91.625 67.402344 92.558594 67.542969 " fill-opacity="1" fill-rule="nonzero"/></g><g clip-path="url(#ab39ad107c)"><path fill="#ffffff" d="M 114.753906 67.558594 C 115.695312 67.558594 116.460938 66.800781 116.460938 65.859375 L 116.460938 44.574219 C 116.460938 43.632812 115.695312 42.875 114.753906 42.875 C 113.808594 42.875 113.042969 43.632812 113.042969 44.574219 L 113.042969 65.859375 C 113.042969 66.800781 113.808594 67.558594 114.753906 67.558594 " fill-opacity="1" fill-rule="nonzero"/></g><g clip-path="url(#4fb7886b56)"><path fill="#ffffff" d="M 122.019531 67.558594 C 122.960938 67.558594 123.726562 66.800781 123.726562 65.859375 L 123.726562 49.933594 L 135.714844 66.839844 C 136.039062 67.300781 136.566406 67.558594 137.113281 67.558594 C 137.285156 67.558594 137.457031 67.535156 137.628906 67.480469 C 138.339844 67.257812 138.820312 66.601562 138.820312 65.859375 L 138.820312 44.574219 C 138.820312 43.632812 138.054688 42.875 137.113281 42.875 C 136.167969 42.875 135.402344 43.632812 135.402344 44.574219 L 135.402344 60.5 L 123.414062 43.59375 C 122.988281 42.988281 122.214844 42.730469 121.5 42.953125 C 120.789062 43.175781 120.308594 43.832031 120.308594 44.574219 L 120.308594 65.859375 C 120.308594 66.800781 121.074219 67.558594 122.019531 67.558594 " fill-opacity="1" fill-rule="nonzero"/></g><g fill="#a6a6a6" fill-opacity="1"><g transform="translate(29.501143, 156.278234)"><g><path d="M 1.4375 0 L 1.4375 -11.375 L 3.84375 -11.375 L 3.84375 -2 L 8.453125 -2 L 8.453125 0 Z M 1.4375 0 "/></g></g></g><g fill="#a6a6a6" fill-opacity="1"><g transform="translate(38.503072, 156.278234)"><g><path d="M 1.140625 -10.953125 C 1.140625 -11.722656 1.570312 -12.109375 2.4375 -12.109375 C 3.300781 -12.109375 3.734375 -11.722656 3.734375 -10.953125 C 3.734375 -10.578125 3.625 -10.285156 3.40625 -10.078125 C 3.1875 -9.878906 2.863281 -9.78125 2.4375 -9.78125 C 1.570312 -9.78125 1.140625 -10.171875 1.140625 -10.953125 Z M 3.625 0 L 1.25 0 L 1.25 -8.703125 L 3.625 -8.703125 Z M 3.625 0 "/></g></g></g><g fill="#a6a6a6" fill-opacity="1"><g transform="translate(43.365827, 156.278234)"><g><path d="M 3.3125 0 L 0 -8.703125 L 2.484375 -8.703125 L 4.15625 -3.75 C 4.34375 -3.113281 4.460938 -2.519531 4.515625 -1.96875 L 4.5625 -1.96875 C 4.582031 -2.457031 4.695312 -3.050781 4.90625 -3.75 L 6.578125 -8.703125 L 9.0625 -8.703125 L 5.75 0 Z M 3.3125 0 "/></g></g></g><g fill="#a6a6a6" fill-opacity="1"><g transform="translate(52.429999, 156.278234)"><g><path d="M 1.140625 -10.953125 C 1.140625 -11.722656 1.570312 -12.109375 2.4375 -12.109375 C 3.300781 -12.109375 3.734375 -11.722656 3.734375 -10.953125 C 3.734375 -10.578125 3.625 -10.285156 3.40625 -10.078125 C 3.1875 -9.878906 2.863281 -9.78125 2.4375 -9.78125 C 1.570312 -9.78125 1.140625 -10.171875 1.140625 -10.953125 Z M 3.625 0 L 1.25 0 L 1.25 -8.703125 L 3.625 -8.703125 Z M 3.625 0 "/></g></g></g><g fill="#a6a6a6" fill-opacity="1"><g transform="translate(57.292755, 156.278234)"><g><path d="M 9.28125 0 L 6.90625 0 L 6.90625 -5.078125 C 6.90625 -5.703125 6.789062 -6.171875 6.5625 -6.484375 C 6.34375 -6.804688 5.988281 -6.96875 5.5 -6.96875 C 4.832031 -6.96875 4.351562 -6.742188 4.0625 -6.296875 C 3.769531 -5.859375 3.625 -5.125 3.625 -4.09375 L 3.625 0 L 1.25 0 L 1.25 -8.703125 L 3.0625 -8.703125 L 3.375 -7.59375 L 3.515625 -7.59375 C 3.773438 -8.007812 4.132812 -8.320312 4.59375 -8.53125 C 5.0625 -8.75 5.59375 -8.859375 6.1875 -8.859375 C 7.195312 -8.859375 7.960938 -8.582031 8.484375 -8.03125 C 9.015625 -7.488281 9.28125 -6.703125 9.28125 -5.671875 Z M 9.28125 0 "/></g></g></g><g fill="#a6a6a6" fill-opacity="1"><g transform="translate(67.765175, 156.278234)"><g><path d="M 8.8125 -8.703125 L 8.8125 -7.5 L 7.453125 -7.140625 C 7.703125 -6.753906 7.828125 -6.320312 7.828125 -5.84375 C 7.828125 -4.90625 7.5 -4.175781 6.84375 -3.65625 C 6.195312 -3.132812 5.296875 -2.875 4.140625 -2.875 L 3.71875 -2.890625 L 3.359375 -2.9375 C 3.117188 -2.75 3 -2.539062 3 -2.3125 C 3 -1.96875 3.429688 -1.796875 4.296875 -1.796875 L 5.78125 -1.796875 C 6.738281 -1.796875 7.46875 -1.585938 7.96875 -1.171875 C 8.46875 -0.765625 8.71875 -0.164062 8.71875 0.625 C 8.71875 1.632812 8.289062 2.421875 7.4375 2.984375 C 6.59375 3.546875 5.378906 3.828125 3.796875 3.828125 C 2.578125 3.828125 1.644531 3.613281 1 3.1875 C 0.363281 2.769531 0.046875 2.179688 0.046875 1.421875 C 0.046875 0.890625 0.207031 0.445312 0.53125 0.09375 C 0.863281 -0.25 1.347656 -0.5 1.984375 -0.65625 C 1.734375 -0.757812 1.515625 -0.925781 1.328125 -1.15625 C 1.148438 -1.394531 1.0625 -1.648438 1.0625 -1.921875 C 1.0625 -2.242188 1.15625 -2.515625 1.34375 -2.734375 C 1.539062 -2.960938 1.820312 -3.179688 2.1875 -3.390625 C 1.726562 -3.585938 1.363281 -3.90625 1.09375 -4.34375 C 0.832031 -4.78125 0.703125 -5.296875 0.703125 -5.890625 C 0.703125 -6.835938 1.007812 -7.566406 1.625 -8.078125 C 2.238281 -8.597656 3.117188 -8.859375 4.265625 -8.859375 C 4.515625 -8.859375 4.804688 -8.835938 5.140625 -8.796875 C 5.472656 -8.753906 5.6875 -8.722656 5.78125 -8.703125 Z M 2.09375 1.234375 C 2.09375 1.554688 2.25 1.8125 2.5625 2 C 2.882812 2.1875 3.328125 2.28125 3.890625 2.28125 C 4.742188 2.28125 5.410156 2.160156 5.890625 1.921875 C 6.367188 1.691406 6.609375 1.375 6.609375 0.96875 C 6.609375 0.644531 6.46875 0.421875 6.1875 0.296875 C 5.90625 0.171875 5.460938 0.109375 4.859375 0.109375 L 3.640625 0.109375 C 3.203125 0.109375 2.832031 0.207031 2.53125 0.40625 C 2.238281 0.613281 2.09375 0.890625 2.09375 1.234375 Z M 2.96875 -5.859375 C 2.96875 -5.378906 3.070312 -5 3.28125 -4.71875 C 3.5 -4.445312 3.828125 -4.3125 4.265625 -4.3125 C 4.710938 -4.3125 5.039062 -4.445312 5.25 -4.71875 C 5.457031 -5 5.5625 -5.378906 5.5625 -5.859375 C 5.5625 -6.898438 5.128906 -7.421875 4.265625 -7.421875 C 3.398438 -7.421875 2.96875 -6.898438 2.96875 -5.859375 Z M 2.96875 -5.859375 "/></g></g></g><g fill="#a6a6a6" fill-opacity="1"><g transform="translate(76.767104, 156.278234)"><g/></g></g><g fill="#a6a6a6" fill-opacity="1"><g transform="translate(80.906278, 156.278234)"><g><path d="M 1.4375 0 L 1.4375 -11.375 L 3.84375 -11.375 L 3.84375 -2 L 8.453125 -2 L 8.453125 0 Z M 1.4375 0 "/></g></g></g><g fill="#a6a6a6" fill-opacity="1"><g transform="translate(89.908207, 156.278234)"><g><path d="M 6.765625 0 L 6.3125 -1.1875 L 6.25 -1.1875 C 5.851562 -0.675781 5.441406 -0.320312 5.015625 -0.125 C 4.585938 0.0625 4.035156 0.15625 3.359375 0.15625 C 2.523438 0.15625 1.867188 -0.0820312 1.390625 -0.5625 C 0.910156 -1.039062 0.671875 -1.71875 0.671875 -2.59375 C 0.671875 -3.519531 0.992188 -4.203125 1.640625 -4.640625 C 2.285156 -5.078125 3.257812 -5.320312 4.5625 -5.375 L 6.0625 -5.421875 L 6.0625 -5.796875 C 6.0625 -6.679688 5.613281 -7.125 4.71875 -7.125 C 4.019531 -7.125 3.203125 -6.910156 2.265625 -6.484375 L 1.484375 -8.09375 C 2.484375 -8.613281 3.59375 -8.875 4.8125 -8.875 C 5.976562 -8.875 6.867188 -8.617188 7.484375 -8.109375 C 8.109375 -7.609375 8.421875 -6.835938 8.421875 -5.796875 L 8.421875 0 Z M 6.0625 -4.03125 L 5.15625 -4 C 4.457031 -3.976562 3.941406 -3.851562 3.609375 -3.625 C 3.273438 -3.394531 3.109375 -3.046875 3.109375 -2.578125 C 3.109375 -1.910156 3.488281 -1.578125 4.25 -1.578125 C 4.800781 -1.578125 5.238281 -1.734375 5.5625 -2.046875 C 5.894531 -2.367188 6.0625 -2.789062 6.0625 -3.3125 Z M 6.0625 -4.03125 "/></g></g></g><g fill="#a6a6a6" fill-opacity="1"><g transform="translate(99.532568, 156.278234)"><g><path d="M 6.078125 -8.859375 C 7.109375 -8.859375 7.914062 -8.457031 8.5 -7.65625 C 9.082031 -6.851562 9.375 -5.753906 9.375 -4.359375 C 9.375 -2.921875 9.070312 -1.804688 8.46875 -1.015625 C 7.875 -0.234375 7.054688 0.15625 6.015625 0.15625 C 4.992188 0.15625 4.195312 -0.210938 3.625 -0.953125 L 3.453125 -0.953125 L 3.0625 0 L 1.25 0 L 1.25 -12.109375 L 3.625 -12.109375 L 3.625 -9.296875 C 3.625 -8.929688 3.59375 -8.359375 3.53125 -7.578125 L 3.625 -7.578125 C 4.175781 -8.429688 4.992188 -8.859375 6.078125 -8.859375 Z M 5.328125 -6.96875 C 4.734375 -6.96875 4.300781 -6.785156 4.03125 -6.421875 C 3.769531 -6.066406 3.632812 -5.472656 3.625 -4.640625 L 3.625 -4.375 C 3.625 -3.445312 3.757812 -2.78125 4.03125 -2.375 C 4.3125 -1.96875 4.753906 -1.765625 5.359375 -1.765625 C 5.835938 -1.765625 6.222656 -1.988281 6.515625 -2.4375 C 6.804688 -2.882812 6.953125 -3.535156 6.953125 -4.390625 C 6.953125 -5.253906 6.804688 -5.898438 6.515625 -6.328125 C 6.222656 -6.753906 5.828125 -6.96875 5.328125 -6.96875 Z M 5.328125 -6.96875 "/></g></g></g><g fill="#008037" fill-opacity="1"><g transform="translate(86.749936, 175.025183)"><g><path d="M 12.21875 0 L 11.015625 -3.9375 L 4.984375 -3.9375 L 3.78125 0 L 0 0 L 5.84375 -16.625 L 10.140625 -16.625 L 16 0 Z M 10.171875 -6.890625 C 9.066406 -10.453125 8.441406 -12.46875 8.296875 -12.9375 C 8.160156 -13.40625 8.0625 -13.773438 8 -14.046875 C 7.75 -13.078125 7.035156 -10.691406 5.859375 -6.890625 Z M 10.171875 -6.890625 "/></g></g></g><g fill="#008037" fill-opacity="1"><g transform="translate(102.741375, 175.025183)"><g><path d="M 5.8125 0.21875 C 4.332031 0.21875 3.164062 -0.351562 2.3125 -1.5 C 1.46875 -2.65625 1.046875 -4.257812 1.046875 -6.3125 C 1.046875 -8.382812 1.476562 -10 2.34375 -11.15625 C 3.207031 -12.3125 4.394531 -12.890625 5.90625 -12.890625 C 7.5 -12.890625 8.71875 -12.269531 9.5625 -11.03125 L 9.671875 -11.03125 C 9.492188 -11.976562 9.40625 -12.820312 9.40625 -13.5625 L 9.40625 -17.609375 L 12.875 -17.609375 L 12.875 0 L 10.21875 0 L 9.5625 -1.640625 L 9.40625 -1.640625 C 8.625 -0.398438 7.425781 0.21875 5.8125 0.21875 Z M 7.03125 -2.53125 C 7.914062 -2.53125 8.5625 -2.785156 8.96875 -3.296875 C 9.382812 -3.804688 9.609375 -4.675781 9.640625 -5.90625 L 9.640625 -6.28125 C 9.640625 -7.644531 9.429688 -8.617188 9.015625 -9.203125 C 8.597656 -9.796875 7.914062 -10.09375 6.96875 -10.09375 C 6.195312 -10.09375 5.597656 -9.765625 5.171875 -9.109375 C 4.753906 -8.453125 4.546875 -7.503906 4.546875 -6.265625 C 4.546875 -5.015625 4.757812 -4.078125 5.1875 -3.453125 C 5.613281 -2.835938 6.226562 -2.53125 7.03125 -2.53125 Z M 7.03125 -2.53125 "/></g></g></g><g fill="#008037" fill-opacity="1"><g transform="translate(117.408682, 175.025183)"><g><path d="M 13.140625 0 L 9.6875 0 L 9.6875 -7.390625 C 9.6875 -8.304688 9.535156 -8.992188 9.234375 -9.453125 C 8.929688 -9.910156 8.453125 -10.140625 7.796875 -10.140625 C 6.910156 -10.140625 6.265625 -9.8125 5.859375 -9.15625 C 5.460938 -8.507812 5.265625 -7.441406 5.265625 -5.953125 L 5.265625 0 L 1.8125 0 L 1.8125 -12.65625 L 4.453125 -12.65625 L 4.90625 -11.03125 L 5.109375 -11.03125 C 5.441406 -11.613281 5.929688 -12.066406 6.578125 -12.390625 C 7.222656 -12.722656 7.957031 -12.890625 8.78125 -12.890625 C 10.675781 -12.890625 11.960938 -12.269531 12.640625 -11.03125 L 12.9375 -11.03125 C 13.28125 -11.625 13.78125 -12.082031 14.4375 -12.40625 C 15.101562 -12.726562 15.847656 -12.890625 16.671875 -12.890625 C 18.109375 -12.890625 19.191406 -12.519531 19.921875 -11.78125 C 20.660156 -11.050781 21.03125 -9.875 21.03125 -8.25 L 21.03125 0 L 17.578125 0 L 17.578125 -7.390625 C 17.578125 -8.304688 17.421875 -8.992188 17.109375 -9.453125 C 16.804688 -9.910156 16.328125 -10.140625 15.671875 -10.140625 C 14.828125 -10.140625 14.191406 -9.835938 13.765625 -9.234375 C 13.347656 -8.628906 13.140625 -7.671875 13.140625 -6.359375 Z M 13.140625 0 "/></g></g></g><g fill="#008037" fill-opacity="1"><g transform="translate(140.167905, 175.025183)"><g><path d="M 1.671875 -15.9375 C 1.671875 -17.050781 2.296875 -17.609375 3.546875 -17.609375 C 4.796875 -17.609375 5.421875 -17.050781 5.421875 -15.9375 C 5.421875 -15.394531 5.265625 -14.972656 4.953125 -14.671875 C 4.640625 -14.378906 4.171875 -14.234375 3.546875 -14.234375 C 2.296875 -14.234375 1.671875 -14.800781 1.671875 -15.9375 Z M 5.265625 0 L 1.8125 0 L 1.8125 -12.65625 L 5.265625 -12.65625 Z M 5.265625 0 "/></g></g></g><g fill="#008037" fill-opacity="1"><g transform="translate(147.241259, 175.025183)"><g><path d="M 13.5 0 L 10.046875 0 L 10.046875 -7.390625 C 10.046875 -8.304688 9.878906 -8.992188 9.546875 -9.453125 C 9.222656 -9.910156 8.707031 -10.140625 8 -10.140625 C 7.039062 -10.140625 6.34375 -9.816406 5.90625 -9.171875 C 5.476562 -8.523438 5.265625 -7.453125 5.265625 -5.953125 L 5.265625 0 L 1.8125 0 L 1.8125 -12.65625 L 4.453125 -12.65625 L 4.90625 -11.03125 L 5.109375 -11.03125 C 5.492188 -11.644531 6.019531 -12.109375 6.6875 -12.421875 C 7.363281 -12.734375 8.132812 -12.890625 9 -12.890625 C 10.46875 -12.890625 11.582031 -12.488281 12.34375 -11.6875 C 13.113281 -10.894531 13.5 -9.75 13.5 -8.25 Z M 13.5 0 "/></g></g></g></svg>