<svg xmlns="http://www.w3.org/2000/svg" xmlns:xlink="http://www.w3.org/1999/xlink" width="256" zoomAndPan="magnify" viewBox="0 0 192 191.999996" height="256" preserveAspectRatio="xMidYMid meet" version="1.0"><defs><g/><clipPath id="f25d5bab40"><path d="M 35.097656 13.867188 L 156.597656 13.867188 L 156.597656 135.367188 L 35.097656 135.367188 Z M 35.097656 13.867188 " clip-rule="nonzero"/></clipPath><clipPath id="b641480e14"><path d="M 78 52 L 114 52 L 114 88.902344 L 78 88.902344 Z M 78 52 " clip-rule="nonzero"/></clipPath><clipPath id="6b77498f89"><path d="M 53.507812 34 L 81 34 L 81 72 L 53.507812 72 Z M 53.507812 34 " clip-rule="nonzero"/></clipPath><clipPath id="0c4422e823"><path d="M 111 34 L 138.257812 34 L 138.257812 72 L 111 72 Z M 111 34 " clip-rule="nonzero"/></clipPath></defs><g clip-path="url(#f25d5bab40)"><path fill="#22c969" d="M 95.847656 13.867188 C 62.296875 13.867188 35.097656 41.0625 35.097656 74.617188 C 35.097656 108.167969 62.296875 135.367188 95.847656 135.367188 C 129.398438 135.367188 156.597656 108.167969 156.597656 74.617188 C 156.597656 41.0625 129.398438 13.867188 95.847656 13.867188 " fill-opacity="1" fill-rule="nonzero"/></g><g clip-path="url(#b641480e14)"><path fill="#ffffff" d="M 89.835938 72.320312 C 86.238281 69.597656 84.6875 66.042969 85.148438 61.664062 C 85.433594 58.988281 86.632812 56.71875 88.605469 54.9375 C 93.191406 50.804688 100.023438 51.203125 104.175781 55.820312 C 107.378906 59.386719 108.734375 67.210938 102.136719 72.371094 C 104.296875 73.398438 106.324219 74.519531 108.003906 76.183594 C 109.703125 77.863281 111.09375 79.738281 112.023438 81.953125 C 112.945312 84.148438 113.476562 86.417969 113.441406 88.890625 L 110.832031 88.890625 C 110.757812 88.550781 110.632812 88.1875 110.605469 87.8125 C 110.136719 81.292969 105.179688 75.515625 98.359375 74.347656 C 89.996094 72.917969 82.039062 79.117188 81.296875 87.769531 C 81.269531 88.117188 81.210938 88.472656 81.15625 88.890625 L 78.597656 88.890625 C 78.570312 88.441406 78.484375 87.992188 78.519531 87.546875 C 78.816406 83.746094 80.210938 80.394531 82.65625 77.492188 C 84.34375 75.492188 86.390625 73.980469 88.746094 72.882812 C 89.0625 72.738281 89.363281 72.566406 89.835938 72.320312 Z M 95.914062 71.234375 C 99.886719 71.5 104.109375 67.988281 104.074219 63.109375 C 104.042969 58.429688 100.445312 54.976562 96.011719 54.945312 C 91.304688 54.90625 87.851562 58.796875 87.851562 63.121094 C 87.84375 67.847656 91.894531 71.441406 95.914062 71.234375 Z M 95.914062 71.234375 " fill-opacity="1" fill-rule="nonzero"/></g><path fill="#ffffff" d="M 81.984375 63.929688 C 82.128906 64.925781 82.253906 65.769531 82.398438 66.75 C 78.21875 66.617188 74.519531 67.824219 71.441406 70.640625 C 68.34375 73.480469 66.8125 77.097656 66.542969 81.367188 L 63.867188 81.367188 C 63.8125 77.691406 64.90625 74.429688 66.953125 71.492188 C 68.996094 68.550781 71.714844 66.40625 75.210938 65.007812 C 71.496094 62.050781 69.816406 58.355469 70.585938 53.714844 C 71.09375 50.652344 72.703125 48.222656 75.25 46.542969 C 81.054688 42.714844 87.917969 45.238281 90.636719 50.058594 C 90.242188 50.265625 89.84375 50.46875 89.445312 50.679688 C 89.050781 50.886719 88.644531 51.113281 88.1875 51.367188 C 86.816406 49.367188 84.980469 48.074219 82.640625 47.667969 C 80.976562 47.363281 79.382812 47.585938 77.863281 48.335938 C 74.648438 49.917969 72.800781 53.339844 73.285156 56.808594 C 73.585938 58.980469 74.609375 60.730469 76.269531 62.097656 C 77.898438 63.4375 79.824219 63.96875 81.984375 63.929688 Z M 81.984375 63.929688 " fill-opacity="1" fill-rule="nonzero"/><path fill="#ffffff" d="M 103.683594 51.328125 L 101.253906 50.035156 C 103.226562 46.84375 106.027344 45.019531 109.675781 44.757812 C 114.46875 44.414062 118.242188 46.421875 120.308594 50.78125 C 122.902344 56.25 121.421875 61.003906 116.8125 64.957031 C 117.214844 65.175781 117.53125 65.371094 117.863281 65.53125 C 123.492188 68.265625 126.84375 72.734375 127.921875 78.9375 C 128.054688 79.699219 128.015625 80.488281 128.0625 81.367188 L 125.488281 81.367188 C 124.269531 72.066406 119.007812 67.152344 109.539062 66.628906 C 109.671875 65.785156 109.808594 64.898438 109.960938 63.933594 C 112.515625 63.976562 114.695312 63.1875 116.449219 61.363281 C 117.671875 60.082031 118.390625 58.542969 118.65625 56.792969 C 119.15625 53.464844 117.1875 49.835938 114.128906 48.367188 C 111.292969 46.996094 106.945312 47.015625 103.683594 51.328125 Z M 103.683594 51.328125 " fill-opacity="1" fill-rule="nonzero"/><g clip-path="url(#6b77498f89)"><path fill="#ffffff" d="M 56.167969 71.066406 L 54.941406 71.066406 C 53.617188 71.066406 53.503906 70.980469 53.644531 69.671875 C 54.101562 65.421875 55.757812 61.71875 58.773438 58.707031 C 60.371094 57.109375 62.21875 55.828125 64.324219 54.96875 C 64.484375 54.902344 64.636719 54.808594 64.917969 54.65625 C 64.660156 54.378906 64.480469 54.132812 64.253906 53.945312 C 61.203125 51.378906 59.867188 48.066406 60.277344 44.121094 C 60.652344 40.511719 62.476562 37.722656 65.585938 35.875 C 69.800781 33.382812 74.832031 34.007812 78.421875 37.273438 C 79.152344 37.941406 79.8125 38.683594 80.273438 39.683594 L 78.015625 40.902344 C 77.78125 40.644531 77.539062 40.398438 77.3125 40.136719 C 74.964844 37.441406 72.011719 36.546875 68.65625 37.558594 C 65.257812 38.582031 63.332031 41.101562 62.9375 44.617188 C 62.605469 47.613281 63.824219 50.074219 66.195312 51.929688 C 66.445312 52.128906 66.714844 52.308594 66.996094 52.460938 C 67.480469 52.722656 67.5625 53.097656 67.515625 53.625 C 67.441406 54.40625 67.425781 55.1875 67.46875 55.972656 C 67.511719 56.722656 67.523438 56.816406 66.777344 57.035156 C 64.695312 57.648438 62.851562 58.695312 61.246094 60.171875 C 58.5625 62.613281 56.933594 65.644531 56.4375 69.277344 C 56.375 69.804688 56.285156 70.332031 56.167969 71.066406 Z M 56.167969 71.066406 " fill-opacity="1" fill-rule="nonzero"/></g><g clip-path="url(#0c4422e823)"><path fill="#ffffff" d="M 113.894531 40.90625 L 111.710938 39.722656 C 113.40625 35.863281 119.632812 32.664062 125.375 35.375 C 127.789062 36.515625 129.582031 38.296875 130.707031 40.71875 C 131.851562 43.175781 132.019531 45.761719 131.3125 48.363281 C 130.621094 50.917969 129.097656 52.949219 126.96875 54.53125 C 128.398438 55.367188 129.714844 56.003906 130.886719 56.847656 C 134.699219 59.582031 137.121094 63.269531 137.988281 67.9375 C 138.136719 68.742188 138.160156 69.570312 138.222656 70.390625 C 138.253906 70.816406 138.046875 71.070312 137.59375 71.0625 C 137.558594 71.0625 137.523438 71.0625 137.488281 71.0625 C 135.78125 71.199219 135.773438 71.195312 135.53125 69.503906 C 134.855469 64.882812 132.632812 61.238281 128.722656 58.710938 C 127.804688 58.117188 126.757812 57.726562 125.757812 57.265625 C 125.347656 57.074219 124.90625 56.941406 124.449219 56.773438 L 124.449219 52.773438 C 126.953125 51.371094 128.640625 49.253906 128.957031 46.238281 C 129.21875 43.753906 128.460938 41.5625 126.777344 39.722656 C 123.882812 36.5625 117.753906 35.714844 113.894531 40.90625 Z M 113.894531 40.90625 " fill-opacity="1" fill-rule="nonzero"/></g><path fill="#ffffff" d="M 106.378906 42.496094 L 103.96875 43.574219 C 102.511719 39.25 99.65625 36.832031 95.039062 37.257812 C 91.296875 37.609375 89.128906 40.039062 87.945312 43.566406 L 85.605469 42.550781 C 86.035156 39.074219 89.804688 34.875 94.90625 34.414062 C 100.695312 33.882812 105.207031 37.773438 106.378906 42.496094 Z M 106.378906 42.496094 " fill-opacity="1" fill-rule="nonzero"/><g fill="#ffffff" fill-opacity="1"><g transform="translate(53.533658, 105.208353)"><g><path d="M 1.515625 0 L 1.515625 -12.0625 L 4.078125 -12.0625 L 4.078125 -2.109375 L 8.96875 -2.109375 L 8.96875 0 Z M 1.515625 0 "/></g></g></g><g fill="#ffffff" fill-opacity="1"><g transform="translate(63.077516, 105.208353)"><g><path d="M 1.21875 -11.609375 C 1.21875 -12.421875 1.671875 -12.828125 2.578125 -12.828125 C 3.492188 -12.828125 3.953125 -12.421875 3.953125 -11.609375 C 3.953125 -11.210938 3.835938 -10.90625 3.609375 -10.6875 C 3.378906 -10.46875 3.035156 -10.359375 2.578125 -10.359375 C 1.671875 -10.359375 1.21875 -10.773438 1.21875 -11.609375 Z M 3.828125 0 L 1.3125 0 L 1.3125 -9.21875 L 3.828125 -9.21875 Z M 3.828125 0 "/></g></g></g><g fill="#ffffff" fill-opacity="1"><g transform="translate(68.233016, 105.208353)"><g><path d="M 3.515625 0 L 0 -9.21875 L 2.625 -9.21875 L 4.40625 -3.96875 C 4.601562 -3.300781 4.726562 -2.671875 4.78125 -2.078125 L 4.828125 -2.078125 C 4.859375 -2.609375 4.984375 -3.238281 5.203125 -3.96875 L 6.984375 -9.21875 L 9.609375 -9.21875 L 6.09375 0 Z M 3.515625 0 "/></g></g></g><g fill="#ffffff" fill-opacity="1"><g transform="translate(77.842864, 105.208353)"><g><path d="M 1.21875 -11.609375 C 1.21875 -12.421875 1.671875 -12.828125 2.578125 -12.828125 C 3.492188 -12.828125 3.953125 -12.421875 3.953125 -11.609375 C 3.953125 -11.210938 3.835938 -10.90625 3.609375 -10.6875 C 3.378906 -10.46875 3.035156 -10.359375 2.578125 -10.359375 C 1.671875 -10.359375 1.21875 -10.773438 1.21875 -11.609375 Z M 3.828125 0 L 1.3125 0 L 1.3125 -9.21875 L 3.828125 -9.21875 Z M 3.828125 0 "/></g></g></g><g fill="#ffffff" fill-opacity="1"><g transform="translate(82.998365, 105.208353)"><g><path d="M 9.828125 0 L 7.3125 0 L 7.3125 -5.390625 C 7.3125 -6.054688 7.191406 -6.550781 6.953125 -6.875 C 6.722656 -7.207031 6.347656 -7.375 5.828125 -7.375 C 5.128906 -7.375 4.617188 -7.140625 4.296875 -6.671875 C 3.984375 -6.203125 3.828125 -5.425781 3.828125 -4.34375 L 3.828125 0 L 1.3125 0 L 1.3125 -9.21875 L 3.234375 -9.21875 L 3.578125 -8.046875 L 3.71875 -8.046875 C 4 -8.484375 4.382812 -8.816406 4.875 -9.046875 C 5.363281 -9.273438 5.925781 -9.390625 6.5625 -9.390625 C 7.632812 -9.390625 8.445312 -9.097656 9 -8.515625 C 9.550781 -7.941406 9.828125 -7.109375 9.828125 -6.015625 Z M 9.828125 0 "/></g></g></g><g fill="#ffffff" fill-opacity="1"><g transform="translate(94.101237, 105.208353)"><g><path d="M 9.34375 -9.21875 L 9.34375 -7.9375 L 7.90625 -7.578125 C 8.164062 -7.160156 8.296875 -6.695312 8.296875 -6.1875 C 8.296875 -5.195312 7.953125 -4.425781 7.265625 -3.875 C 6.578125 -3.320312 5.617188 -3.046875 4.390625 -3.046875 L 3.9375 -3.0625 L 3.5625 -3.109375 C 3.300781 -2.910156 3.171875 -2.691406 3.171875 -2.453125 C 3.171875 -2.085938 3.632812 -1.90625 4.5625 -1.90625 L 6.125 -1.90625 C 7.132812 -1.90625 7.90625 -1.6875 8.4375 -1.25 C 8.96875 -0.820312 9.234375 -0.1875 9.234375 0.65625 C 9.234375 1.738281 8.785156 2.578125 7.890625 3.171875 C 6.992188 3.765625 5.703125 4.0625 4.015625 4.0625 C 2.734375 4.0625 1.75 3.835938 1.0625 3.390625 C 0.382812 2.941406 0.046875 2.3125 0.046875 1.5 C 0.046875 0.945312 0.21875 0.484375 0.5625 0.109375 C 0.914062 -0.265625 1.425781 -0.53125 2.09375 -0.6875 C 1.832031 -0.800781 1.601562 -0.984375 1.40625 -1.234375 C 1.21875 -1.484375 1.125 -1.75 1.125 -2.03125 C 1.125 -2.382812 1.222656 -2.675781 1.421875 -2.90625 C 1.628906 -3.132812 1.925781 -3.363281 2.3125 -3.59375 C 1.832031 -3.800781 1.453125 -4.132812 1.171875 -4.59375 C 0.890625 -5.0625 0.75 -5.609375 0.75 -6.234375 C 0.75 -7.242188 1.070312 -8.019531 1.71875 -8.5625 C 2.375 -9.113281 3.3125 -9.390625 4.53125 -9.390625 C 4.789062 -9.390625 5.097656 -9.363281 5.453125 -9.3125 C 5.804688 -9.269531 6.03125 -9.238281 6.125 -9.21875 Z M 2.234375 1.296875 C 2.234375 1.648438 2.394531 1.925781 2.71875 2.125 C 3.050781 2.320312 3.519531 2.421875 4.125 2.421875 C 5.019531 2.421875 5.722656 2.296875 6.234375 2.046875 C 6.753906 1.796875 7.015625 1.457031 7.015625 1.03125 C 7.015625 0.6875 6.863281 0.445312 6.5625 0.3125 C 6.257812 0.175781 5.789062 0.109375 5.15625 0.109375 L 3.84375 0.109375 C 3.382812 0.109375 3 0.21875 2.6875 0.4375 C 2.382812 0.65625 2.234375 0.941406 2.234375 1.296875 Z M 3.140625 -6.203125 C 3.140625 -5.703125 3.253906 -5.304688 3.484375 -5.015625 C 3.710938 -4.722656 4.0625 -4.578125 4.53125 -4.578125 C 5 -4.578125 5.34375 -4.722656 5.5625 -5.015625 C 5.78125 -5.304688 5.890625 -5.703125 5.890625 -6.203125 C 5.890625 -7.316406 5.4375 -7.875 4.53125 -7.875 C 3.601562 -7.875 3.140625 -7.316406 3.140625 -6.203125 Z M 3.140625 -6.203125 "/></g></g></g><g fill="#ffffff" fill-opacity="1"><g transform="translate(103.645095, 105.208353)"><g/></g></g><g fill="#ffffff" fill-opacity="1"><g transform="translate(108.033451, 105.208353)"><g><path d="M 1.515625 0 L 1.515625 -12.0625 L 4.078125 -12.0625 L 4.078125 -2.109375 L 8.96875 -2.109375 L 8.96875 0 Z M 1.515625 0 "/></g></g></g><g fill="#ffffff" fill-opacity="1"><g transform="translate(117.577309, 105.208353)"><g><path d="M 7.171875 0 L 6.6875 -1.25 L 6.625 -1.25 C 6.195312 -0.71875 5.757812 -0.347656 5.3125 -0.140625 C 4.863281 0.0664062 4.28125 0.171875 3.5625 0.171875 C 2.675781 0.171875 1.976562 -0.0820312 1.46875 -0.59375 C 0.957031 -1.101562 0.703125 -1.820312 0.703125 -2.75 C 0.703125 -3.726562 1.046875 -4.445312 1.734375 -4.90625 C 2.421875 -5.375 3.453125 -5.632812 4.828125 -5.6875 L 6.4375 -5.734375 L 6.4375 -6.140625 C 6.4375 -7.078125 5.957031 -7.546875 5 -7.546875 C 4.257812 -7.546875 3.394531 -7.320312 2.40625 -6.875 L 1.5625 -8.578125 C 2.625 -9.128906 3.800781 -9.40625 5.09375 -9.40625 C 6.332031 -9.40625 7.28125 -9.132812 7.9375 -8.59375 C 8.601562 -8.0625 8.9375 -7.242188 8.9375 -6.140625 L 8.9375 0 Z M 6.4375 -4.265625 L 5.453125 -4.234375 C 4.722656 -4.210938 4.179688 -4.082031 3.828125 -3.84375 C 3.472656 -3.601562 3.296875 -3.234375 3.296875 -2.734375 C 3.296875 -2.023438 3.703125 -1.671875 4.515625 -1.671875 C 5.097656 -1.671875 5.5625 -1.835938 5.90625 -2.171875 C 6.257812 -2.515625 6.4375 -2.960938 6.4375 -3.515625 Z M 6.4375 -4.265625 "/></g></g></g><g fill="#ffffff" fill-opacity="1"><g transform="translate(127.781069, 105.208353)"><g><path d="M 6.453125 -9.390625 C 7.535156 -9.390625 8.382812 -8.960938 9 -8.109375 C 9.625 -7.265625 9.9375 -6.101562 9.9375 -4.625 C 9.9375 -3.101562 9.617188 -1.921875 8.984375 -1.078125 C 8.347656 -0.242188 7.484375 0.171875 6.390625 0.171875 C 5.304688 0.171875 4.453125 -0.222656 3.828125 -1.015625 L 3.65625 -1.015625 L 3.234375 0 L 1.3125 0 L 1.3125 -12.828125 L 3.828125 -12.828125 L 3.828125 -9.84375 C 3.828125 -9.46875 3.796875 -8.863281 3.734375 -8.03125 L 3.828125 -8.03125 C 4.421875 -8.9375 5.296875 -9.390625 6.453125 -9.390625 Z M 5.640625 -7.375 C 5.015625 -7.375 4.554688 -7.179688 4.265625 -6.796875 C 3.984375 -6.421875 3.835938 -5.796875 3.828125 -4.921875 L 3.828125 -4.640625 C 3.828125 -3.648438 3.972656 -2.941406 4.265625 -2.515625 C 4.566406 -2.085938 5.035156 -1.875 5.671875 -1.875 C 6.191406 -1.875 6.601562 -2.109375 6.90625 -2.578125 C 7.207031 -3.054688 7.359375 -3.75 7.359375 -4.65625 C 7.359375 -5.5625 7.203125 -6.238281 6.890625 -6.6875 C 6.585938 -7.144531 6.171875 -7.375 5.640625 -7.375 Z M 5.640625 -7.375 "/></g></g></g><g fill="#a6a6a6" fill-opacity="1"><g transform="translate(35.104145, 149.4761)"><g><path d="M 1.296875 0 L 1.296875 -10.328125 L 3.484375 -10.328125 L 3.484375 -1.8125 L 7.671875 -1.8125 L 7.671875 0 Z M 1.296875 0 "/></g></g></g><g fill="#a6a6a6" fill-opacity="1"><g transform="translate(43.272213, 149.4761)"><g><path d="M 1.03125 -9.9375 C 1.03125 -10.644531 1.425781 -11 2.21875 -11 C 3 -11 3.390625 -10.644531 3.390625 -9.9375 C 3.390625 -9.601562 3.289062 -9.34375 3.09375 -9.15625 C 2.894531 -8.96875 2.601562 -8.875 2.21875 -8.875 C 1.425781 -8.875 1.03125 -9.226562 1.03125 -9.9375 Z M 3.28125 0 L 1.125 0 L 1.125 -7.90625 L 3.28125 -7.90625 Z M 3.28125 0 "/></g></g></g><g fill="#a6a6a6" fill-opacity="1"><g transform="translate(47.684525, 149.4761)"><g><path d="M 3.015625 0 L 0 -7.90625 L 2.25 -7.90625 L 3.78125 -3.390625 C 3.945312 -2.828125 4.050781 -2.289062 4.09375 -1.78125 L 4.140625 -1.78125 C 4.160156 -2.226562 4.265625 -2.765625 4.453125 -3.390625 L 5.984375 -7.90625 L 8.234375 -7.90625 L 5.21875 0 Z M 3.015625 0 "/></g></g></g><g fill="#a6a6a6" fill-opacity="1"><g transform="translate(55.90907, 149.4761)"><g><path d="M 1.03125 -9.9375 C 1.03125 -10.644531 1.425781 -11 2.21875 -11 C 3 -11 3.390625 -10.644531 3.390625 -9.9375 C 3.390625 -9.601562 3.289062 -9.34375 3.09375 -9.15625 C 2.894531 -8.96875 2.601562 -8.875 2.21875 -8.875 C 1.425781 -8.875 1.03125 -9.226562 1.03125 -9.9375 Z M 3.28125 0 L 1.125 0 L 1.125 -7.90625 L 3.28125 -7.90625 Z M 3.28125 0 "/></g></g></g><g fill="#a6a6a6" fill-opacity="1"><g transform="translate(60.321382, 149.4761)"><g><path d="M 8.421875 0 L 6.265625 0 L 6.265625 -4.609375 C 6.265625 -5.179688 6.160156 -5.609375 5.953125 -5.890625 C 5.753906 -6.179688 5.4375 -6.328125 5 -6.328125 C 4.394531 -6.328125 3.957031 -6.125 3.6875 -5.71875 C 3.414062 -5.3125 3.28125 -4.644531 3.28125 -3.71875 L 3.28125 0 L 1.125 0 L 1.125 -7.90625 L 2.78125 -7.90625 L 3.0625 -6.890625 L 3.1875 -6.890625 C 3.425781 -7.265625 3.753906 -7.550781 4.171875 -7.75 C 4.597656 -7.945312 5.078125 -8.046875 5.609375 -8.046875 C 6.535156 -8.046875 7.234375 -7.796875 7.703125 -7.296875 C 8.179688 -6.804688 8.421875 -6.09375 8.421875 -5.15625 Z M 8.421875 0 "/></g></g></g><g fill="#a6a6a6" fill-opacity="1"><g transform="translate(69.823728, 149.4761)"><g><path d="M 8 -7.90625 L 8 -6.796875 L 6.765625 -6.484375 C 6.992188 -6.128906 7.109375 -5.734375 7.109375 -5.296875 C 7.109375 -4.453125 6.8125 -3.789062 6.21875 -3.3125 C 5.625 -2.84375 4.804688 -2.609375 3.765625 -2.609375 L 3.375 -2.625 L 3.046875 -2.65625 C 2.828125 -2.488281 2.71875 -2.300781 2.71875 -2.09375 C 2.71875 -1.78125 3.113281 -1.625 3.90625 -1.625 L 5.25 -1.625 C 6.113281 -1.625 6.769531 -1.4375 7.21875 -1.0625 C 7.675781 -0.695312 7.90625 -0.15625 7.90625 0.5625 C 7.90625 1.488281 7.519531 2.203125 6.75 2.703125 C 5.988281 3.210938 4.882812 3.46875 3.4375 3.46875 C 2.332031 3.46875 1.488281 3.273438 0.90625 2.890625 C 0.332031 2.515625 0.046875 1.976562 0.046875 1.28125 C 0.046875 0.8125 0.191406 0.414062 0.484375 0.09375 C 0.785156 -0.226562 1.222656 -0.457031 1.796875 -0.59375 C 1.578125 -0.6875 1.382812 -0.835938 1.21875 -1.046875 C 1.050781 -1.265625 0.96875 -1.492188 0.96875 -1.734375 C 0.96875 -2.035156 1.050781 -2.285156 1.21875 -2.484375 C 1.394531 -2.691406 1.648438 -2.890625 1.984375 -3.078125 C 1.566406 -3.253906 1.238281 -3.539062 1 -3.9375 C 0.757812 -4.332031 0.640625 -4.800781 0.640625 -5.34375 C 0.640625 -6.207031 0.914062 -6.875 1.46875 -7.34375 C 2.03125 -7.8125 2.832031 -8.046875 3.875 -8.046875 C 4.09375 -8.046875 4.351562 -8.023438 4.65625 -7.984375 C 4.96875 -7.941406 5.164062 -7.914062 5.25 -7.90625 Z M 1.90625 1.109375 C 1.90625 1.410156 2.046875 1.644531 2.328125 1.8125 C 2.617188 1.976562 3.019531 2.0625 3.53125 2.0625 C 4.300781 2.0625 4.90625 1.957031 5.34375 1.75 C 5.78125 1.539062 6 1.253906 6 0.890625 C 6 0.585938 5.867188 0.378906 5.609375 0.265625 C 5.359375 0.148438 4.960938 0.09375 4.421875 0.09375 L 3.296875 0.09375 C 2.898438 0.09375 2.566406 0.1875 2.296875 0.375 C 2.035156 0.5625 1.90625 0.804688 1.90625 1.109375 Z M 2.6875 -5.3125 C 2.6875 -4.882812 2.785156 -4.546875 2.984375 -4.296875 C 3.179688 -4.046875 3.476562 -3.921875 3.875 -3.921875 C 4.28125 -3.921875 4.578125 -4.046875 4.765625 -4.296875 C 4.953125 -4.546875 5.046875 -4.882812 5.046875 -5.3125 C 5.046875 -6.257812 4.65625 -6.734375 3.875 -6.734375 C 3.082031 -6.734375 2.6875 -6.257812 2.6875 -5.3125 Z M 2.6875 -5.3125 "/></g></g></g><g fill="#a6a6a6" fill-opacity="1"><g transform="translate(77.991796, 149.4761)"><g/></g></g><g fill="#a6a6a6" fill-opacity="1"><g transform="translate(81.747552, 149.4761)"><g><path d="M 1.296875 0 L 1.296875 -10.328125 L 3.484375 -10.328125 L 3.484375 -1.8125 L 7.671875 -1.8125 L 7.671875 0 Z M 1.296875 0 "/></g></g></g><g fill="#a6a6a6" fill-opacity="1"><g transform="translate(89.91562, 149.4761)"><g><path d="M 6.140625 0 L 5.734375 -1.078125 L 5.671875 -1.078125 C 5.304688 -0.617188 4.929688 -0.300781 4.546875 -0.125 C 4.171875 0.0507812 3.671875 0.140625 3.046875 0.140625 C 2.296875 0.140625 1.703125 -0.0703125 1.265625 -0.5 C 0.828125 -0.9375 0.609375 -1.554688 0.609375 -2.359375 C 0.609375 -3.203125 0.898438 -3.820312 1.484375 -4.21875 C 2.066406 -4.613281 2.953125 -4.832031 4.140625 -4.875 L 5.515625 -4.921875 L 5.515625 -5.265625 C 5.515625 -6.066406 5.101562 -6.46875 4.28125 -6.46875 C 3.644531 -6.46875 2.90625 -6.273438 2.0625 -5.890625 L 1.34375 -7.34375 C 2.25 -7.820312 3.253906 -8.0625 4.359375 -8.0625 C 5.421875 -8.0625 6.234375 -7.828125 6.796875 -7.359375 C 7.367188 -6.898438 7.65625 -6.203125 7.65625 -5.265625 L 7.65625 0 Z M 5.515625 -3.65625 L 4.671875 -3.625 C 4.046875 -3.613281 3.578125 -3.503906 3.265625 -3.296875 C 2.960938 -3.085938 2.8125 -2.769531 2.8125 -2.34375 C 2.8125 -1.738281 3.160156 -1.4375 3.859375 -1.4375 C 4.359375 -1.4375 4.757812 -1.578125 5.0625 -1.859375 C 5.363281 -2.148438 5.515625 -2.535156 5.515625 -3.015625 Z M 5.515625 -3.65625 "/></g></g></g><g fill="#a6a6a6" fill-opacity="1"><g transform="translate(98.648464, 149.4761)"><g><path d="M 5.53125 -8.046875 C 6.457031 -8.046875 7.179688 -7.679688 7.703125 -6.953125 C 8.234375 -6.222656 8.5 -5.226562 8.5 -3.96875 C 8.5 -2.65625 8.226562 -1.640625 7.6875 -0.921875 C 7.144531 -0.210938 6.40625 0.140625 5.46875 0.140625 C 4.539062 0.140625 3.8125 -0.195312 3.28125 -0.875 L 3.140625 -0.875 L 2.78125 0 L 1.125 0 L 1.125 -11 L 3.28125 -11 L 3.28125 -8.4375 C 3.28125 -8.113281 3.253906 -7.59375 3.203125 -6.875 L 3.28125 -6.875 C 3.789062 -7.65625 4.539062 -8.046875 5.53125 -8.046875 Z M 4.828125 -6.328125 C 4.296875 -6.328125 3.90625 -6.160156 3.65625 -5.828125 C 3.414062 -5.503906 3.289062 -4.960938 3.28125 -4.203125 L 3.28125 -3.984375 C 3.28125 -3.128906 3.40625 -2.519531 3.65625 -2.15625 C 3.914062 -1.789062 4.316406 -1.609375 4.859375 -1.609375 C 5.304688 -1.609375 5.660156 -1.8125 5.921875 -2.21875 C 6.179688 -2.625 6.3125 -3.210938 6.3125 -3.984375 C 6.3125 -4.765625 6.175781 -5.347656 5.90625 -5.734375 C 5.644531 -6.128906 5.285156 -6.328125 4.828125 -6.328125 Z M 4.828125 -6.328125 "/></g></g></g><g fill="#008037" fill-opacity="1"><g transform="translate(92.877111, 172.126791)"><g><path d="M 10.796875 -16.421875 C 9.222656 -16.421875 8.007812 -15.832031 7.15625 -14.65625 C 6.300781 -13.476562 5.875 -11.84375 5.875 -9.75 C 5.875 -5.375 7.515625 -3.1875 10.796875 -3.1875 C 12.171875 -3.1875 13.835938 -3.53125 15.796875 -4.21875 L 15.796875 -0.734375 C 14.179688 -0.0664062 12.382812 0.265625 10.40625 0.265625 C 7.550781 0.265625 5.367188 -0.597656 3.859375 -2.328125 C 2.347656 -4.054688 1.59375 -6.535156 1.59375 -9.765625 C 1.59375 -11.804688 1.960938 -13.59375 2.703125 -15.125 C 3.453125 -16.65625 4.519531 -17.828125 5.90625 -18.640625 C 7.289062 -19.460938 8.921875 -19.875 10.796875 -19.875 C 12.691406 -19.875 14.601562 -19.414062 16.53125 -18.5 L 15.1875 -15.125 C 14.457031 -15.46875 13.71875 -15.769531 12.96875 -16.03125 C 12.226562 -16.289062 11.503906 -16.421875 10.796875 -16.421875 Z M 10.796875 -16.421875 "/></g></g></g><g fill="#008037" fill-opacity="1"><g transform="translate(110.366872, 172.126791)"><g><path d="M 15.984375 0 L 11.890625 0 L 11.890625 -8.75 C 11.890625 -10.914062 11.085938 -12 9.484375 -12 C 8.335938 -12 7.507812 -11.609375 7 -10.828125 C 6.488281 -10.054688 6.234375 -8.796875 6.234375 -7.046875 L 6.234375 0 L 2.140625 0 L 2.140625 -20.859375 L 6.234375 -20.859375 L 6.234375 -16.609375 C 6.234375 -16.273438 6.203125 -15.5 6.140625 -14.28125 L 6.046875 -13.0625 L 6.265625 -13.0625 C 7.171875 -14.53125 8.617188 -15.265625 10.609375 -15.265625 C 12.367188 -15.265625 13.703125 -14.789062 14.609375 -13.84375 C 15.523438 -12.894531 15.984375 -11.535156 15.984375 -9.765625 Z M 15.984375 0 "/></g></g></g><g fill="#008037" fill-opacity="1"><g transform="translate(128.406117, 172.126791)"><g><path d="M 11.65625 0 L 10.875 -2.03125 L 10.765625 -2.03125 C 10.078125 -1.164062 9.367188 -0.566406 8.640625 -0.234375 C 7.910156 0.0976562 6.960938 0.265625 5.796875 0.265625 C 4.347656 0.265625 3.210938 -0.144531 2.390625 -0.96875 C 1.566406 -1.789062 1.15625 -2.960938 1.15625 -4.484375 C 1.15625 -6.066406 1.707031 -7.234375 2.8125 -7.984375 C 3.925781 -8.742188 5.609375 -9.164062 7.859375 -9.25 L 10.453125 -9.328125 L 10.453125 -9.984375 C 10.453125 -11.503906 9.675781 -12.265625 8.125 -12.265625 C 6.925781 -12.265625 5.519531 -11.898438 3.90625 -11.171875 L 2.546875 -13.9375 C 4.273438 -14.84375 6.1875 -15.296875 8.28125 -15.296875 C 10.289062 -15.296875 11.832031 -14.859375 12.90625 -13.984375 C 13.976562 -13.109375 14.515625 -11.773438 14.515625 -9.984375 L 14.515625 0 Z M 10.453125 -6.9375 L 8.875 -6.890625 C 7.6875 -6.859375 6.800781 -6.644531 6.21875 -6.25 C 5.632812 -5.851562 5.34375 -5.253906 5.34375 -4.453125 C 5.34375 -3.296875 6.003906 -2.71875 7.328125 -2.71875 C 8.273438 -2.71875 9.03125 -2.988281 9.59375 -3.53125 C 10.164062 -4.082031 10.453125 -4.804688 10.453125 -5.703125 Z M 10.453125 -6.9375 "/></g></g></g><g fill="#008037" fill-opacity="1"><g transform="translate(144.984535, 172.126791)"><g><path d="M 8.453125 -2.984375 C 9.171875 -2.984375 10.03125 -3.140625 11.03125 -3.453125 L 11.03125 -0.421875 C 10.007812 0.0351562 8.757812 0.265625 7.28125 0.265625 C 5.644531 0.265625 4.453125 -0.144531 3.703125 -0.96875 C 2.960938 -1.800781 2.59375 -3.039062 2.59375 -4.6875 L 2.59375 -11.921875 L 0.625 -11.921875 L 0.625 -13.640625 L 2.875 -15.015625 L 4.0625 -18.171875 L 6.671875 -18.171875 L 6.671875 -14.984375 L 10.875 -14.984375 L 10.875 -11.921875 L 6.671875 -11.921875 L 6.671875 -4.6875 C 6.671875 -4.113281 6.832031 -3.6875 7.15625 -3.40625 C 7.488281 -3.125 7.921875 -2.984375 8.453125 -2.984375 Z M 8.453125 -2.984375 "/></g></g></g></svg>