<svg xmlns="http://www.w3.org/2000/svg" xmlns:xlink="http://www.w3.org/1999/xlink" width="256" zoomAndPan="magnify" viewBox="0 0 192 191.999996" height="256" preserveAspectRatio="xMidYMid meet" version="1.0"><defs><g/><clipPath id="e54f24f5ea"><path d="M 31.105469 14.34375 L 160.855469 14.34375 L 160.855469 144.84375 L 31.105469 144.84375 Z M 31.105469 14.34375 " clip-rule="nonzero"/></clipPath></defs><g clip-path="url(#e54f24f5ea)"><path fill="#ff1616" d="M 147.226562 144.84375 L 44.683594 144.84375 C 41.109375 144.84375 38.023438 141.90625 37.820312 138.292969 L 31.328125 22.59375 C 31.078125 18.101562 34.160156 14.394531 38.1875 14.394531 L 153.722656 14.394531 C 157.746094 14.394531 160.828125 18.101562 160.578125 22.59375 L 154.089844 138.292969 C 153.886719 141.90625 150.796875 144.84375 147.226562 144.84375 Z M 147.226562 144.84375 " fill-opacity="1" fill-rule="nonzero"/></g><path fill="#ffffff" d="M 142.113281 138.339844 L 49.792969 138.339844 C 46.582031 138.339844 43.800781 135.695312 43.617188 132.441406 L 37.773438 28.28125 C 37.542969 24.230469 40.324219 20.898438 43.949219 20.898438 L 147.96875 20.898438 C 151.589844 20.898438 154.363281 24.230469 154.140625 28.28125 L 148.296875 132.441406 C 148.109375 135.695312 145.335938 138.339844 142.113281 138.339844 Z M 142.113281 138.339844 " fill-opacity="1" fill-rule="nonzero"/><path fill="#ff4c00" d="M 139.878906 135.496094 L 52.03125 135.496094 C 48.96875 135.496094 46.324219 132.980469 46.152344 129.886719 L 40.589844 30.769531 C 40.375 26.921875 43.019531 23.746094 46.464844 23.746094 L 145.441406 23.746094 C 148.890625 23.746094 151.535156 26.921875 151.3125 30.769531 L 145.753906 129.886719 C 145.585938 132.980469 142.941406 135.496094 139.878906 135.496094 Z M 139.878906 135.496094 " fill-opacity="1" fill-rule="nonzero"/><path fill="#ffffff" d="M 66.6875 39.984375 C 65.101562 40.796875 64.382812 42.695312 65.003906 44.363281 C 67.070312 49.867188 73.972656 61.027344 95.953125 60.914062 C 117.992188 61.027344 124.867188 49.8125 126.921875 44.320312 C 127.542969 42.648438 126.816406 40.773438 125.238281 39.9375 C 110.167969 32.007812 86.171875 29.96875 66.6875 39.984375 Z M 66.6875 39.984375 " fill-opacity="1" fill-rule="nonzero"/><path fill="#20465c" d="M 69.542969 41.097656 L 70.253906 40.722656 L 72.386719 44.785156 L 71.671875 45.164062 Z M 69.542969 41.097656 " fill-opacity="1" fill-rule="nonzero"/><path fill="#20465c" d="M 77.394531 38.132812 L 78.175781 37.925781 L 79.351562 42.363281 L 78.574219 42.570312 Z M 77.394531 38.132812 " fill-opacity="1" fill-rule="nonzero"/><path fill="#20465c" d="M 85.238281 36.496094 L 86.027344 36.332031 L 86.953125 40.832031 L 86.164062 40.996094 Z M 85.238281 36.496094 " fill-opacity="1" fill-rule="nonzero"/><path fill="#20465c" d="M 118.359375 44.523438 L 120.488281 40.457031 L 121.203125 40.832031 L 119.074219 44.898438 Z M 118.359375 44.523438 " fill-opacity="1" fill-rule="nonzero"/><path fill="#20465c" d="M 111.398438 42.097656 L 112.574219 37.660156 L 113.355469 37.867188 L 112.175781 42.304688 Z M 111.398438 42.097656 " fill-opacity="1" fill-rule="nonzero"/><path fill="#20465c" d="M 103.796875 40.5625 L 104.722656 36.066406 L 105.511719 36.230469 L 104.585938 40.726562 Z M 103.796875 40.5625 " fill-opacity="1" fill-rule="nonzero"/><path fill="#ffffff" d="M 95.34375 35.320312 L 96.5625 35.320312 L 96.5625 39.984375 L 95.34375 39.984375 Z M 95.34375 35.320312 " fill-opacity="1" fill-rule="nonzero"/><path fill="#ec6488" d="M 100.101562 53.414062 C 100.085938 53.355469 100.070312 53.292969 100.050781 53.238281 L 95.953125 39.078125 L 91.859375 53.238281 C 91.71875 53.65625 91.644531 54.109375 91.644531 54.574219 C 91.644531 56.957031 93.570312 58.886719 95.949219 58.886719 C 98.328125 58.886719 100.257812 56.957031 100.257812 54.574219 C 100.261719 54.167969 100.203125 53.78125 100.101562 53.414062 Z M 100.101562 53.414062 " fill-opacity="1" fill-rule="nonzero"/><g fill="#a6a6a6" fill-opacity="1"><g transform="translate(31.112428, 159.194947)"><g><path d="M 1.21875 0 L 1.21875 -9.71875 L 3.28125 -9.71875 L 3.28125 -1.703125 L 7.234375 -1.703125 L 7.234375 0 Z M 1.21875 0 "/></g></g></g><g fill="#a6a6a6" fill-opacity="1"><g transform="translate(38.805744, 159.194947)"><g><path d="M 0.984375 -9.359375 C 0.984375 -10.023438 1.347656 -10.359375 2.078125 -10.359375 C 2.816406 -10.359375 3.1875 -10.023438 3.1875 -9.359375 C 3.1875 -9.046875 3.09375 -8.800781 2.90625 -8.625 C 2.726562 -8.445312 2.453125 -8.359375 2.078125 -8.359375 C 1.347656 -8.359375 0.984375 -8.691406 0.984375 -9.359375 Z M 3.09375 0 L 1.0625 0 L 1.0625 -7.4375 L 3.09375 -7.4375 Z M 3.09375 0 "/></g></g></g><g fill="#a6a6a6" fill-opacity="1"><g transform="translate(42.961599, 159.194947)"><g><path d="M 2.828125 0 L 0 -7.4375 L 2.125 -7.4375 L 3.5625 -3.203125 C 3.71875 -2.660156 3.816406 -2.148438 3.859375 -1.671875 L 3.90625 -1.671875 C 3.925781 -2.097656 4.023438 -2.609375 4.203125 -3.203125 L 5.625 -7.4375 L 7.75 -7.4375 L 4.921875 0 Z M 2.828125 0 "/></g></g></g><g fill="#a6a6a6" fill-opacity="1"><g transform="translate(50.708109, 159.194947)"><g><path d="M 0.984375 -9.359375 C 0.984375 -10.023438 1.347656 -10.359375 2.078125 -10.359375 C 2.816406 -10.359375 3.1875 -10.023438 3.1875 -9.359375 C 3.1875 -9.046875 3.09375 -8.800781 2.90625 -8.625 C 2.726562 -8.445312 2.453125 -8.359375 2.078125 -8.359375 C 1.347656 -8.359375 0.984375 -8.691406 0.984375 -9.359375 Z M 3.09375 0 L 1.0625 0 L 1.0625 -7.4375 L 3.09375 -7.4375 Z M 3.09375 0 "/></g></g></g><g fill="#a6a6a6" fill-opacity="1"><g transform="translate(54.863964, 159.194947)"><g><path d="M 7.9375 0 L 5.90625 0 L 5.90625 -4.34375 C 5.90625 -4.882812 5.804688 -5.285156 5.609375 -5.546875 C 5.421875 -5.816406 5.117188 -5.953125 4.703125 -5.953125 C 4.140625 -5.953125 3.726562 -5.757812 3.46875 -5.375 C 3.21875 -5 3.09375 -4.375 3.09375 -3.5 L 3.09375 0 L 1.0625 0 L 1.0625 -7.4375 L 2.609375 -7.4375 L 2.890625 -6.484375 L 3 -6.484375 C 3.226562 -6.847656 3.539062 -7.117188 3.9375 -7.296875 C 4.332031 -7.484375 4.78125 -7.578125 5.28125 -7.578125 C 6.15625 -7.578125 6.816406 -7.34375 7.265625 -6.875 C 7.710938 -6.40625 7.9375 -5.726562 7.9375 -4.84375 Z M 7.9375 0 "/></g></g></g><g fill="#a6a6a6" fill-opacity="1"><g transform="translate(63.814006, 159.194947)"><g><path d="M 7.53125 -7.4375 L 7.53125 -6.40625 L 6.375 -6.109375 C 6.582031 -5.773438 6.6875 -5.398438 6.6875 -4.984375 C 6.6875 -4.191406 6.40625 -3.570312 5.84375 -3.125 C 5.289062 -2.675781 4.523438 -2.453125 3.546875 -2.453125 L 3.171875 -2.46875 L 2.875 -2.515625 C 2.664062 -2.347656 2.5625 -2.164062 2.5625 -1.96875 C 2.5625 -1.675781 2.929688 -1.53125 3.671875 -1.53125 L 4.9375 -1.53125 C 5.757812 -1.53125 6.382812 -1.351562 6.8125 -1 C 7.238281 -0.65625 7.453125 -0.144531 7.453125 0.53125 C 7.453125 1.40625 7.085938 2.078125 6.359375 2.546875 C 5.640625 3.023438 4.597656 3.265625 3.234375 3.265625 C 2.203125 3.265625 1.410156 3.082031 0.859375 2.71875 C 0.316406 2.363281 0.046875 1.859375 0.046875 1.203125 C 0.046875 0.753906 0.179688 0.378906 0.453125 0.078125 C 0.734375 -0.210938 1.144531 -0.425781 1.6875 -0.5625 C 1.476562 -0.644531 1.296875 -0.785156 1.140625 -0.984375 C 0.984375 -1.191406 0.90625 -1.410156 0.90625 -1.640625 C 0.90625 -1.921875 0.988281 -2.15625 1.15625 -2.34375 C 1.320312 -2.53125 1.5625 -2.71875 1.875 -2.90625 C 1.476562 -3.070312 1.164062 -3.335938 0.9375 -3.703125 C 0.707031 -4.078125 0.59375 -4.519531 0.59375 -5.03125 C 0.59375 -5.84375 0.859375 -6.46875 1.390625 -6.90625 C 1.921875 -7.351562 2.675781 -7.578125 3.65625 -7.578125 C 3.863281 -7.578125 4.109375 -7.554688 4.390625 -7.515625 C 4.679688 -7.484375 4.863281 -7.457031 4.9375 -7.4375 Z M 1.796875 1.046875 C 1.796875 1.328125 1.925781 1.546875 2.1875 1.703125 C 2.457031 1.867188 2.835938 1.953125 3.328125 1.953125 C 4.054688 1.953125 4.625 1.847656 5.03125 1.640625 C 5.445312 1.441406 5.65625 1.171875 5.65625 0.828125 C 5.65625 0.546875 5.53125 0.351562 5.28125 0.25 C 5.039062 0.144531 4.664062 0.09375 4.15625 0.09375 L 3.109375 0.09375 C 2.734375 0.09375 2.421875 0.179688 2.171875 0.359375 C 1.921875 0.535156 1.796875 0.765625 1.796875 1.046875 Z M 2.53125 -5 C 2.53125 -4.59375 2.625 -4.269531 2.8125 -4.03125 C 3 -3.800781 3.28125 -3.6875 3.65625 -3.6875 C 4.03125 -3.6875 4.304688 -3.800781 4.484375 -4.03125 C 4.660156 -4.269531 4.75 -4.59375 4.75 -5 C 4.75 -5.894531 4.382812 -6.34375 3.65625 -6.34375 C 2.90625 -6.34375 2.53125 -5.894531 2.53125 -5 Z M 2.53125 -5 "/></g></g></g><g fill="#a6a6a6" fill-opacity="1"><g transform="translate(71.507322, 159.194947)"><g/></g></g><g fill="#a6a6a6" fill-opacity="1"><g transform="translate(75.044782, 159.194947)"><g><path d="M 1.21875 0 L 1.21875 -9.71875 L 3.28125 -9.71875 L 3.28125 -1.703125 L 7.234375 -1.703125 L 7.234375 0 Z M 1.21875 0 "/></g></g></g><g fill="#a6a6a6" fill-opacity="1"><g transform="translate(82.738098, 159.194947)"><g><path d="M 5.78125 0 L 5.390625 -1.015625 L 5.34375 -1.015625 C 5 -0.578125 4.644531 -0.273438 4.28125 -0.109375 C 3.925781 0.0546875 3.457031 0.140625 2.875 0.140625 C 2.15625 0.140625 1.59375 -0.0625 1.1875 -0.46875 C 0.78125 -0.882812 0.578125 -1.46875 0.578125 -2.21875 C 0.578125 -3.007812 0.851562 -3.59375 1.40625 -3.96875 C 1.957031 -4.34375 2.789062 -4.550781 3.90625 -4.59375 L 5.1875 -4.625 L 5.1875 -4.953125 C 5.1875 -5.710938 4.800781 -6.09375 4.03125 -6.09375 C 3.4375 -6.09375 2.738281 -5.910156 1.9375 -5.546875 L 1.265625 -6.921875 C 2.117188 -7.367188 3.066406 -7.59375 4.109375 -7.59375 C 5.109375 -7.59375 5.875 -7.375 6.40625 -6.9375 C 6.9375 -6.5 7.203125 -5.835938 7.203125 -4.953125 L 7.203125 0 Z M 5.1875 -3.453125 L 4.40625 -3.421875 C 3.8125 -3.398438 3.367188 -3.289062 3.078125 -3.09375 C 2.796875 -2.90625 2.65625 -2.609375 2.65625 -2.203125 C 2.65625 -1.628906 2.984375 -1.34375 3.640625 -1.34375 C 4.109375 -1.34375 4.484375 -1.476562 4.765625 -1.75 C 5.046875 -2.019531 5.1875 -2.378906 5.1875 -2.828125 Z M 5.1875 -3.453125 "/></g></g></g><g fill="#a6a6a6" fill-opacity="1"><g transform="translate(90.963363, 159.194947)"><g><path d="M 5.203125 -7.578125 C 6.078125 -7.578125 6.765625 -7.234375 7.265625 -6.546875 C 7.765625 -5.859375 8.015625 -4.921875 8.015625 -3.734375 C 8.015625 -2.503906 7.753906 -1.550781 7.234375 -0.875 C 6.722656 -0.195312 6.03125 0.140625 5.15625 0.140625 C 4.28125 0.140625 3.59375 -0.175781 3.09375 -0.8125 L 2.953125 -0.8125 L 2.609375 0 L 1.0625 0 L 1.0625 -10.359375 L 3.09375 -10.359375 L 3.09375 -7.9375 C 3.09375 -7.632812 3.066406 -7.144531 3.015625 -6.46875 L 3.09375 -6.46875 C 3.570312 -7.207031 4.273438 -7.578125 5.203125 -7.578125 Z M 4.546875 -5.953125 C 4.046875 -5.953125 3.679688 -5.796875 3.453125 -5.484375 C 3.222656 -5.179688 3.101562 -4.675781 3.09375 -3.96875 L 3.09375 -3.75 C 3.09375 -2.945312 3.210938 -2.375 3.453125 -2.03125 C 3.691406 -1.6875 4.066406 -1.515625 4.578125 -1.515625 C 4.992188 -1.515625 5.320312 -1.703125 5.5625 -2.078125 C 5.8125 -2.460938 5.9375 -3.023438 5.9375 -3.765625 C 5.9375 -4.492188 5.8125 -5.039062 5.5625 -5.40625 C 5.320312 -5.769531 4.984375 -5.953125 4.546875 -5.953125 Z M 4.546875 -5.953125 "/></g></g></g><g fill="#008037" fill-opacity="1"><g transform="translate(99.611144, 173.490612)"><g><path d="M 10.234375 -3.96875 C 10.234375 -2.675781 9.769531 -1.65625 8.84375 -0.90625 C 7.914062 -0.164062 6.625 0.203125 4.96875 0.203125 C 3.4375 0.203125 2.085938 -0.0859375 0.921875 -0.671875 L 0.921875 -3.484375 C 1.878906 -3.046875 2.691406 -2.738281 3.359375 -2.5625 C 4.035156 -2.394531 4.648438 -2.3125 5.203125 -2.3125 C 5.867188 -2.3125 6.378906 -2.4375 6.734375 -2.6875 C 7.085938 -2.9375 7.265625 -3.316406 7.265625 -3.828125 C 7.265625 -4.097656 7.1875 -4.34375 7.03125 -4.5625 C 6.875 -4.78125 6.644531 -4.988281 6.34375 -5.1875 C 6.039062 -5.394531 5.421875 -5.722656 4.484375 -6.171875 C 3.609375 -6.578125 2.953125 -6.96875 2.515625 -7.34375 C 2.078125 -7.726562 1.726562 -8.171875 1.46875 -8.671875 C 1.207031 -9.171875 1.078125 -9.753906 1.078125 -10.421875 C 1.078125 -11.691406 1.503906 -12.6875 2.359375 -13.40625 C 3.222656 -14.132812 4.410156 -14.5 5.921875 -14.5 C 6.660156 -14.5 7.367188 -14.410156 8.046875 -14.234375 C 8.722656 -14.054688 9.429688 -13.804688 10.171875 -13.484375 L 9.1875 -11.125 C 8.425781 -11.4375 7.796875 -11.65625 7.296875 -11.78125 C 6.796875 -11.90625 6.304688 -11.96875 5.828125 -11.96875 C 5.253906 -11.96875 4.8125 -11.832031 4.5 -11.5625 C 4.195312 -11.300781 4.046875 -10.957031 4.046875 -10.53125 C 4.046875 -10.257812 4.109375 -10.023438 4.234375 -9.828125 C 4.359375 -9.628906 4.554688 -9.4375 4.828125 -9.25 C 5.097656 -9.0625 5.738281 -8.726562 6.75 -8.25 C 8.082031 -7.613281 8.992188 -6.972656 9.484375 -6.328125 C 9.984375 -5.679688 10.234375 -4.894531 10.234375 -3.96875 Z M 10.234375 -3.96875 "/></g></g></g><g fill="#008037" fill-opacity="1"><g transform="translate(110.630345, 173.490612)"><g><path d="M 6 0.203125 C 2.601562 0.203125 0.90625 -1.664062 0.90625 -5.40625 C 0.90625 -7.257812 1.363281 -8.675781 2.28125 -9.65625 C 3.207031 -10.632812 4.535156 -11.125 6.265625 -11.125 C 7.523438 -11.125 8.660156 -10.878906 9.671875 -10.390625 L 8.78125 -8.078125 C 8.3125 -8.265625 7.875 -8.421875 7.46875 -8.546875 C 7.070312 -8.671875 6.671875 -8.734375 6.265625 -8.734375 C 4.710938 -8.734375 3.9375 -7.628906 3.9375 -5.421875 C 3.9375 -3.285156 4.710938 -2.21875 6.265625 -2.21875 C 6.835938 -2.21875 7.367188 -2.289062 7.859375 -2.4375 C 8.347656 -2.59375 8.835938 -2.835938 9.328125 -3.171875 L 9.328125 -0.609375 C 8.835938 -0.304688 8.347656 -0.0976562 7.859375 0.015625 C 7.367188 0.140625 6.75 0.203125 6 0.203125 Z M 6 0.203125 "/></g></g></g><g fill="#008037" fill-opacity="1"><g transform="translate(120.916887, 173.490612)"><g><path d="M 8.5 0 L 7.921875 -1.484375 L 7.84375 -1.484375 C 7.34375 -0.847656 6.828125 -0.40625 6.296875 -0.15625 C 5.765625 0.0820312 5.070312 0.203125 4.21875 0.203125 C 3.175781 0.203125 2.351562 -0.0976562 1.75 -0.703125 C 1.144531 -1.304688 0.84375 -2.160156 0.84375 -3.265625 C 0.84375 -4.421875 1.25 -5.273438 2.0625 -5.828125 C 2.875 -6.378906 4.097656 -6.6875 5.734375 -6.75 L 7.625 -6.796875 L 7.625 -7.28125 C 7.625 -8.382812 7.054688 -8.9375 5.921875 -8.9375 C 5.046875 -8.9375 4.019531 -8.675781 2.84375 -8.15625 L 1.859375 -10.171875 C 3.117188 -10.828125 4.515625 -11.15625 6.046875 -11.15625 C 7.503906 -11.15625 8.625 -10.832031 9.40625 -10.1875 C 10.1875 -9.550781 10.578125 -8.582031 10.578125 -7.28125 L 10.578125 0 Z M 7.625 -5.0625 L 6.46875 -5.03125 C 5.601562 -5 4.957031 -4.835938 4.53125 -4.546875 C 4.113281 -4.265625 3.90625 -3.832031 3.90625 -3.25 C 3.90625 -2.40625 4.382812 -1.984375 5.34375 -1.984375 C 6.03125 -1.984375 6.582031 -2.179688 7 -2.578125 C 7.414062 -2.972656 7.625 -3.5 7.625 -4.15625 Z M 7.625 -5.0625 "/></g></g></g><g fill="#008037" fill-opacity="1"><g transform="translate(133.000887, 173.490612)"><g><path d="M 4.546875 0 L 1.5625 0 L 1.5625 -15.203125 L 4.546875 -15.203125 Z M 4.546875 0 "/></g></g></g><g fill="#008037" fill-opacity="1"><g transform="translate(139.106384, 173.490612)"><g><path d="M 6.09375 -9.015625 C 5.457031 -9.015625 4.957031 -8.8125 4.59375 -8.40625 C 4.238281 -8.007812 4.035156 -7.441406 3.984375 -6.703125 L 8.171875 -6.703125 C 8.160156 -7.441406 7.96875 -8.007812 7.59375 -8.40625 C 7.21875 -8.8125 6.71875 -9.015625 6.09375 -9.015625 Z M 6.515625 0.203125 C 4.753906 0.203125 3.378906 -0.28125 2.390625 -1.25 C 1.398438 -2.226562 0.90625 -3.609375 0.90625 -5.390625 C 0.90625 -7.210938 1.359375 -8.625 2.265625 -9.625 C 3.179688 -10.625 4.445312 -11.125 6.0625 -11.125 C 7.613281 -11.125 8.816406 -10.6875 9.671875 -9.8125 C 10.535156 -8.9375 10.96875 -7.722656 10.96875 -6.171875 L 10.96875 -4.71875 L 3.921875 -4.71875 C 3.953125 -3.875 4.203125 -3.210938 4.671875 -2.734375 C 5.140625 -2.253906 5.796875 -2.015625 6.640625 -2.015625 C 7.304688 -2.015625 7.929688 -2.082031 8.515625 -2.21875 C 9.097656 -2.363281 9.707031 -2.585938 10.34375 -2.890625 L 10.34375 -0.578125 C 9.820312 -0.316406 9.265625 -0.125 8.671875 0 C 8.085938 0.132812 7.367188 0.203125 6.515625 0.203125 Z M 6.515625 0.203125 "/></g></g></g><g fill="#008037" fill-opacity="1"><g transform="translate(150.926626, 173.490612)"><g><path d="M 9.1875 -3.25 C 9.1875 -2.125 8.796875 -1.265625 8.015625 -0.671875 C 7.234375 -0.0859375 6.070312 0.203125 4.53125 0.203125 C 3.726562 0.203125 3.046875 0.144531 2.484375 0.03125 C 1.929688 -0.0703125 1.410156 -0.226562 0.921875 -0.4375 L 0.921875 -2.90625 C 1.472656 -2.644531 2.09375 -2.425781 2.78125 -2.25 C 3.476562 -2.070312 4.09375 -1.984375 4.625 -1.984375 C 5.707031 -1.984375 6.25 -2.296875 6.25 -2.921875 C 6.25 -3.160156 6.175781 -3.351562 6.03125 -3.5 C 5.882812 -3.644531 5.632812 -3.804688 5.28125 -3.984375 C 4.9375 -4.171875 4.46875 -4.390625 3.875 -4.640625 C 3.039062 -4.992188 2.425781 -5.316406 2.03125 -5.609375 C 1.632812 -5.910156 1.347656 -6.253906 1.171875 -6.640625 C 0.992188 -7.035156 0.90625 -7.515625 0.90625 -8.078125 C 0.90625 -9.046875 1.28125 -9.796875 2.03125 -10.328125 C 2.78125 -10.859375 3.847656 -11.125 5.234375 -11.125 C 6.546875 -11.125 7.820312 -10.835938 9.0625 -10.265625 L 8.171875 -8.125 C 7.617188 -8.351562 7.101562 -8.539062 6.625 -8.6875 C 6.15625 -8.84375 5.675781 -8.921875 5.1875 -8.921875 C 4.300781 -8.921875 3.859375 -8.679688 3.859375 -8.203125 C 3.859375 -7.941406 4 -7.710938 4.28125 -7.515625 C 4.5625 -7.316406 5.179688 -7.023438 6.140625 -6.640625 C 6.992188 -6.296875 7.617188 -5.972656 8.015625 -5.671875 C 8.421875 -5.378906 8.71875 -5.035156 8.90625 -4.640625 C 9.09375 -4.253906 9.1875 -3.789062 9.1875 -3.25 Z M 9.1875 -3.25 "/></g></g></g></svg>