<svg xmlns="http://www.w3.org/2000/svg" xmlns:xlink="http://www.w3.org/1999/xlink" width="256" zoomAndPan="magnify" viewBox="0 0 192 191.999996" height="256" preserveAspectRatio="xMidYMid meet" version="1.0"><defs><g/><clipPath id="562e84cd18"><path d="M 141 16.441406 L 155 16.441406 L 155 30 L 141 30 Z M 141 16.441406 " clip-rule="nonzero"/></clipPath><clipPath id="f55886b160"><path d="M 151 34 L 157.867188 34 L 157.867188 41 L 151 41 Z M 151 34 " clip-rule="nonzero"/></clipPath><clipPath id="3c09d2ef28"><path d="M 34.117188 92 L 149 92 L 149 123 L 34.117188 123 Z M 34.117188 92 " clip-rule="nonzero"/></clipPath></defs><path fill="#f1bc19" d="M 138.742188 18.257812 C 138.535156 18.257812 138.332031 18.300781 138.140625 18.378906 C 137.945312 18.460938 137.773438 18.574219 137.625 18.722656 C 137.476562 18.871094 137.363281 19.042969 137.285156 19.234375 C 137.203125 19.429688 137.164062 19.628906 137.164062 19.839844 C 137.164062 20.050781 137.203125 20.25 137.285156 20.445312 C 137.363281 20.636719 137.476562 20.808594 137.625 20.957031 C 137.773438 21.105469 137.945312 21.21875 138.140625 21.300781 C 138.332031 21.378906 138.535156 21.421875 138.742188 21.421875 C 138.953125 21.421875 139.15625 21.378906 139.347656 21.300781 C 139.542969 21.21875 139.714844 21.105469 139.863281 20.957031 C 140.011719 20.808594 140.125 20.636719 140.203125 20.445312 C 140.285156 20.25 140.324219 20.050781 140.324219 19.839844 C 140.324219 19.628906 140.285156 19.429688 140.203125 19.234375 C 140.125 19.042969 140.011719 18.871094 139.863281 18.722656 C 139.714844 18.574219 139.542969 18.460938 139.347656 18.378906 C 139.15625 18.300781 138.953125 18.257812 138.742188 18.257812 Z M 138.742188 18.257812 " fill-opacity="1" fill-rule="nonzero"/><path fill="#e4e4f9" d="M 96.070312 19.839844 C 94.15625 19.839844 92.246094 19.933594 90.339844 20.121094 C 88.433594 20.308594 86.542969 20.589844 84.664062 20.964844 C 82.785156 21.335938 80.929688 21.800781 79.097656 22.359375 C 77.265625 22.914062 75.460938 23.558594 73.695312 24.292969 C 71.925781 25.023438 70.195312 25.84375 68.503906 26.746094 C 66.816406 27.648438 65.175781 28.632812 63.582031 29.695312 C 61.992188 30.757812 60.453125 31.898438 58.972656 33.113281 C 57.492188 34.328125 56.078125 35.613281 54.722656 36.96875 C 53.367188 38.320312 52.082031 39.738281 50.867188 41.21875 C 49.652344 42.699219 48.515625 44.234375 47.449219 45.828125 C 46.386719 47.421875 45.402344 49.0625 44.5 50.75 C 43.597656 52.441406 42.777344 54.167969 42.046875 55.9375 C 41.3125 57.707031 40.667969 59.507812 40.113281 61.339844 C 39.558594 63.175781 39.09375 65.03125 38.71875 66.910156 C 38.34375 68.785156 38.0625 70.679688 37.875 72.585938 C 37.6875 74.492188 37.59375 76.402344 37.59375 78.316406 C 37.59375 80.230469 37.6875 82.140625 37.875 84.046875 C 38.0625 85.953125 38.34375 87.847656 38.71875 89.726562 C 39.09375 91.601562 39.558594 93.460938 40.113281 95.292969 C 40.667969 97.125 41.3125 98.925781 42.046875 100.695312 C 42.777344 102.464844 43.597656 104.195312 44.5 105.882812 C 45.402344 107.570312 46.386719 109.210938 47.449219 110.804688 C 48.515625 112.398438 49.652344 113.933594 50.867188 115.414062 C 52.082031 116.894531 53.367188 118.3125 54.722656 119.667969 C 56.078125 121.019531 57.492188 122.304688 58.972656 123.519531 C 60.453125 124.734375 61.992188 125.875 63.582031 126.9375 C 65.175781 128.003906 66.816406 128.984375 68.503906 129.890625 C 70.195312 130.792969 71.925781 131.609375 73.695312 132.34375 C 75.460938 133.074219 77.265625 133.71875 79.097656 134.277344 C 80.929688 134.832031 82.785156 135.296875 84.664062 135.671875 C 86.542969 136.042969 88.433594 136.324219 90.339844 136.511719 C 92.246094 136.699219 94.15625 136.792969 96.070312 136.792969 C 97.988281 136.792969 99.898438 136.699219 101.804688 136.511719 C 103.710938 136.324219 105.601562 136.042969 107.480469 135.671875 C 109.359375 135.296875 111.214844 134.832031 113.046875 134.277344 C 114.878906 133.71875 116.679688 133.074219 118.449219 132.34375 C 120.21875 131.609375 121.949219 130.792969 123.636719 129.890625 C 125.328125 128.984375 126.96875 128.003906 128.558594 126.9375 C 130.152344 125.875 131.6875 124.734375 133.167969 123.519531 C 134.648438 122.304688 136.066406 121.019531 137.421875 119.667969 C 138.773438 118.3125 140.058594 116.894531 141.273438 115.414062 C 142.488281 113.933594 143.628906 112.398438 144.695312 110.804688 C 145.757812 109.210938 146.742188 107.570312 147.644531 105.882812 C 148.546875 104.195312 149.363281 102.464844 150.097656 100.695312 C 150.832031 98.925781 151.476562 97.125 152.03125 95.292969 C 152.585938 93.460938 153.050781 91.601562 153.425781 89.726562 C 153.796875 87.847656 154.078125 85.953125 154.265625 84.046875 C 154.453125 82.140625 154.546875 80.230469 154.546875 78.316406 C 154.546875 76.402344 154.453125 74.492188 154.265625 72.585938 C 154.078125 70.679688 153.796875 68.785156 153.425781 66.910156 C 153.050781 65.03125 152.585938 63.175781 152.03125 61.339844 C 151.476562 59.507812 150.832031 57.707031 150.097656 55.9375 C 149.363281 54.167969 148.546875 52.441406 147.644531 50.75 C 146.742188 49.0625 145.757812 47.421875 144.695312 45.828125 C 143.628906 44.234375 142.488281 42.699219 141.273438 41.21875 C 140.058594 39.738281 138.773438 38.320312 137.421875 36.96875 C 136.066406 35.613281 134.648438 34.328125 133.167969 33.113281 C 131.6875 31.898438 130.152344 30.757812 128.558594 29.695312 C 126.96875 28.632812 125.328125 27.648438 123.636719 26.746094 C 121.949219 25.84375 120.21875 25.023438 118.449219 24.292969 C 116.679688 23.558594 114.878906 22.914062 113.046875 22.359375 C 111.214844 21.800781 109.359375 21.335938 107.480469 20.964844 C 105.601562 20.589844 103.710938 20.308594 101.804688 20.121094 C 99.898438 19.933594 97.988281 19.839844 96.070312 19.839844 Z M 96.070312 19.839844 " fill-opacity="1" fill-rule="nonzero"/><g clip-path="url(#562e84cd18)"><path fill="#f1bc19" d="M 148.226562 16.679688 C 147.8125 16.679688 147.402344 16.71875 146.992188 16.800781 C 146.585938 16.882812 146.191406 17 145.808594 17.160156 C 145.425781 17.320312 145.058594 17.511719 144.714844 17.746094 C 144.371094 17.976562 144.050781 18.238281 143.757812 18.53125 C 143.464844 18.824219 143.199219 19.144531 142.96875 19.488281 C 142.738281 19.832031 142.546875 20.199219 142.386719 20.582031 C 142.226562 20.964844 142.105469 21.359375 142.027344 21.765625 C 141.945312 22.175781 141.90625 22.585938 141.90625 23 C 141.90625 23.414062 141.945312 23.828125 142.027344 24.234375 C 142.105469 24.640625 142.226562 25.035156 142.386719 25.421875 C 142.546875 25.804688 142.738281 26.167969 142.96875 26.511719 C 143.199219 26.859375 143.464844 27.175781 143.757812 27.472656 C 144.050781 27.765625 144.371094 28.027344 144.714844 28.257812 C 145.058594 28.488281 145.425781 28.683594 145.808594 28.839844 C 146.191406 29 146.585938 29.121094 146.992188 29.199219 C 147.402344 29.28125 147.8125 29.324219 148.226562 29.324219 C 148.640625 29.324219 149.054688 29.28125 149.460938 29.199219 C 149.867188 29.121094 150.261719 29 150.644531 28.839844 C 151.03125 28.683594 151.394531 28.488281 151.738281 28.257812 C 152.085938 28.027344 152.402344 27.765625 152.695312 27.472656 C 152.992188 27.175781 153.253906 26.859375 153.484375 26.511719 C 153.714844 26.167969 153.910156 25.804688 154.066406 25.421875 C 154.226562 25.035156 154.347656 24.640625 154.425781 24.234375 C 154.507812 23.828125 154.546875 23.414062 154.546875 23 C 154.546875 22.585938 154.507812 22.175781 154.425781 21.765625 C 154.347656 21.359375 154.226562 20.964844 154.066406 20.582031 C 153.910156 20.199219 153.714844 19.832031 153.484375 19.488281 C 153.253906 19.144531 152.992188 18.824219 152.695312 18.53125 C 152.402344 18.238281 152.085938 17.976562 151.738281 17.746094 C 151.394531 17.511719 151.03125 17.320312 150.644531 17.160156 C 150.261719 17 149.867188 16.882812 149.460938 16.800781 C 149.054688 16.71875 148.640625 16.679688 148.226562 16.679688 Z M 148.226562 16.679688 " fill-opacity="1" fill-rule="nonzero"/></g><g clip-path="url(#f55886b160)"><path fill="#8889b9" d="M 154.546875 34.0625 C 154.128906 34.0625 153.726562 34.144531 153.339844 34.304688 C 152.953125 34.464844 152.609375 34.691406 152.3125 34.988281 C 152.015625 35.285156 151.789062 35.628906 151.628906 36.015625 C 151.46875 36.402344 151.386719 36.804688 151.386719 37.226562 C 151.386719 37.644531 151.46875 38.046875 151.628906 38.433594 C 151.789062 38.820312 152.015625 39.164062 152.3125 39.460938 C 152.609375 39.757812 152.953125 39.984375 153.339844 40.144531 C 153.726562 40.304688 154.128906 40.386719 154.546875 40.386719 C 154.96875 40.386719 155.371094 40.304688 155.757812 40.144531 C 156.144531 39.984375 156.488281 39.757812 156.785156 39.460938 C 157.082031 39.164062 157.308594 38.820312 157.46875 38.433594 C 157.628906 38.046875 157.710938 37.644531 157.710938 37.226562 C 157.710938 36.804688 157.628906 36.402344 157.46875 36.015625 C 157.308594 35.628906 157.082031 35.285156 156.785156 34.988281 C 156.488281 34.691406 156.144531 34.464844 155.757812 34.304688 C 155.371094 34.144531 154.96875 34.0625 154.546875 34.0625 Z M 154.546875 34.0625 " fill-opacity="1" fill-rule="nonzero"/></g><g clip-path="url(#3c09d2ef28)"><path fill="#fbcd59" d="M 145.066406 116.246094 C 144.648438 116.246094 144.242188 116.328125 143.855469 116.488281 C 143.46875 116.648438 143.128906 116.878906 142.832031 117.171875 C 142.535156 117.46875 142.304688 117.8125 142.144531 118.199219 C 141.984375 118.585938 141.90625 118.988281 141.90625 119.410156 C 141.90625 119.828125 141.984375 120.230469 142.144531 120.617188 C 142.304688 121.003906 142.535156 121.347656 142.832031 121.644531 C 143.128906 121.941406 143.46875 122.167969 143.855469 122.328125 C 144.242188 122.488281 144.648438 122.570312 145.066406 122.570312 C 145.484375 122.570312 145.886719 122.488281 146.277344 122.328125 C 146.664062 122.167969 147.003906 121.941406 147.300781 121.644531 C 147.597656 121.347656 147.824219 121.003906 147.984375 120.617188 C 148.148438 120.230469 148.226562 119.828125 148.226562 119.410156 C 148.226562 118.988281 148.148438 118.585938 147.984375 118.199219 C 147.824219 117.8125 147.597656 117.46875 147.300781 117.171875 C 147.003906 116.878906 146.664062 116.648438 146.277344 116.488281 C 145.886719 116.328125 145.484375 116.246094 145.066406 116.246094 Z M 40.753906 92.539062 C 40.339844 92.539062 39.929688 92.582031 39.523438 92.664062 C 39.113281 92.742188 38.71875 92.863281 38.335938 93.023438 C 37.953125 93.179688 37.589844 93.375 37.242188 93.605469 C 36.898438 93.835938 36.578125 94.097656 36.285156 94.390625 C 35.992188 94.6875 35.730469 95.003906 35.5 95.351562 C 35.269531 95.695312 35.074219 96.058594 34.914062 96.445312 C 34.757812 96.828125 34.636719 97.222656 34.554688 97.628906 C 34.472656 98.035156 34.433594 98.449219 34.433594 98.863281 C 34.433594 99.277344 34.472656 99.6875 34.554688 100.097656 C 34.636719 100.503906 34.757812 100.898438 34.914062 101.28125 C 35.074219 101.664062 35.269531 102.03125 35.5 102.375 C 35.730469 102.71875 35.992188 103.039062 36.285156 103.332031 C 36.578125 103.625 36.898438 103.886719 37.242188 104.117188 C 37.589844 104.351562 37.953125 104.542969 38.335938 104.703125 C 38.71875 104.863281 39.113281 104.980469 39.523438 105.0625 C 39.929688 105.144531 40.339844 105.183594 40.753906 105.183594 C 41.171875 105.183594 41.582031 105.144531 41.988281 105.0625 C 42.394531 104.980469 42.792969 104.863281 43.175781 104.703125 C 43.558594 104.542969 43.921875 104.351562 44.269531 104.117188 C 44.613281 103.886719 44.933594 103.625 45.226562 103.332031 C 45.519531 103.039062 45.78125 102.71875 46.011719 102.375 C 46.242188 102.03125 46.4375 101.664062 46.597656 101.28125 C 46.753906 100.898438 46.875 100.503906 46.957031 100.097656 C 47.035156 99.6875 47.078125 99.277344 47.078125 98.863281 C 47.078125 98.449219 47.035156 98.035156 46.957031 97.628906 C 46.875 97.222656 46.753906 96.828125 46.597656 96.445312 C 46.4375 96.058594 46.242188 95.695312 46.011719 95.351562 C 45.78125 95.003906 45.519531 94.6875 45.226562 94.390625 C 44.933594 94.097656 44.613281 93.835938 44.269531 93.605469 C 43.921875 93.375 43.558594 93.179688 43.175781 93.023438 C 42.792969 92.863281 42.394531 92.742188 41.988281 92.664062 C 41.582031 92.582031 41.171875 92.539062 40.753906 92.539062 Z M 40.753906 92.539062 " fill-opacity="1" fill-rule="nonzero"/></g><path fill="#8889b9" d="M 56.558594 133.632812 C 56.140625 133.632812 55.738281 133.714844 55.351562 133.875 C 54.964844 134.035156 54.621094 134.261719 54.324219 134.558594 C 54.027344 134.855469 53.800781 135.195312 53.640625 135.585938 C 53.480469 135.972656 53.398438 136.375 53.398438 136.792969 C 53.398438 137.214844 53.480469 137.617188 53.640625 138.003906 C 53.800781 138.390625 54.027344 138.734375 54.324219 139.027344 C 54.621094 139.324219 54.964844 139.554688 55.351562 139.714844 C 55.738281 139.875 56.140625 139.953125 56.558594 139.953125 C 56.980469 139.953125 57.382812 139.875 57.769531 139.714844 C 58.15625 139.554688 58.5 139.324219 58.796875 139.027344 C 59.089844 138.734375 59.320312 138.390625 59.480469 138.003906 C 59.640625 137.617188 59.722656 137.214844 59.722656 136.792969 C 59.722656 136.375 59.640625 135.972656 59.480469 135.585938 C 59.320312 135.195312 59.089844 134.855469 58.796875 134.558594 C 58.5 134.261719 58.15625 134.035156 57.769531 133.875 C 57.382812 133.714844 56.980469 133.632812 56.558594 133.632812 Z M 56.558594 133.632812 " fill-opacity="1" fill-rule="nonzero"/><path fill="#ffffff" d="M 46.289062 76.734375 C 45.761719 76.734375 45.257812 76.835938 44.773438 77.035156 C 44.292969 77.238281 43.863281 77.523438 43.492188 77.894531 C 43.121094 78.265625 42.835938 78.691406 42.636719 79.175781 C 42.4375 79.660156 42.335938 80.164062 42.335938 80.6875 C 42.335938 81.210938 42.4375 81.714844 42.636719 82.199219 C 42.835938 82.683594 43.121094 83.109375 43.492188 83.480469 C 43.863281 83.851562 44.292969 84.136719 44.773438 84.335938 C 45.257812 84.539062 45.761719 84.636719 46.289062 84.636719 C 46.8125 84.636719 47.316406 84.539062 47.800781 84.335938 C 48.285156 84.136719 48.710938 83.851562 49.082031 83.480469 C 49.453125 83.109375 49.738281 82.683594 49.9375 82.199219 C 50.136719 81.714844 50.238281 81.210938 50.238281 80.6875 C 50.238281 80.164062 50.136719 79.660156 49.9375 79.175781 C 49.738281 78.691406 49.453125 78.265625 49.082031 77.894531 C 48.710938 77.523438 48.285156 77.238281 47.800781 77.035156 C 47.316406 76.835938 46.8125 76.734375 46.289062 76.734375 Z M 142.695312 49.867188 C 142.378906 49.867188 142.078125 49.929688 141.789062 50.050781 C 141.496094 50.167969 141.242188 50.339844 141.019531 50.5625 C 140.796875 50.785156 140.625 51.042969 140.503906 51.332031 C 140.382812 51.621094 140.324219 51.925781 140.324219 52.238281 C 140.324219 52.554688 140.382812 52.855469 140.503906 53.144531 C 140.625 53.4375 140.796875 53.691406 141.019531 53.914062 C 141.242188 54.136719 141.496094 54.308594 141.789062 54.429688 C 142.078125 54.550781 142.378906 54.609375 142.695312 54.609375 C 143.007812 54.609375 143.3125 54.550781 143.601562 54.429688 C 143.894531 54.308594 144.148438 54.136719 144.371094 53.914062 C 144.59375 53.691406 144.765625 53.4375 144.886719 53.144531 C 145.003906 52.855469 145.066406 52.554688 145.066406 52.238281 C 145.066406 51.925781 145.003906 51.621094 144.886719 51.332031 C 144.765625 51.042969 144.59375 50.785156 144.371094 50.5625 C 144.148438 50.339844 143.894531 50.167969 143.601562 50.050781 C 143.3125 49.929688 143.007812 49.867188 142.695312 49.867188 Z M 142.695312 49.867188 " fill-opacity="1" fill-rule="nonzero"/><path fill="#f9e65c" d="M 72.363281 44.652344 C 71.605469 44.652344 70.855469 44.726562 70.113281 44.875 C 69.371094 45.019531 68.648438 45.238281 67.949219 45.53125 C 67.246094 45.820312 66.582031 46.175781 65.953125 46.59375 C 65.320312 47.015625 64.738281 47.496094 64.203125 48.03125 C 63.667969 48.566406 63.1875 49.148438 62.765625 49.777344 C 62.347656 50.410156 61.992188 51.074219 61.699219 51.773438 C 61.410156 52.472656 61.191406 53.195312 61.042969 53.9375 C 60.894531 54.683594 60.820312 55.433594 60.820312 56.191406 C 60.820312 56.949219 60.894531 57.699219 61.042969 58.441406 C 61.191406 59.183594 61.410156 59.90625 61.699219 60.605469 C 61.992188 61.308594 62.347656 61.972656 62.765625 62.601562 C 63.1875 63.230469 63.667969 63.816406 64.203125 64.351562 C 64.738281 64.886719 65.320312 65.363281 65.953125 65.785156 C 66.582031 66.207031 67.246094 66.5625 67.949219 66.851562 C 68.648438 67.140625 69.371094 67.359375 70.113281 67.507812 C 70.855469 67.65625 71.605469 67.726562 72.363281 67.726562 C 73.121094 67.726562 73.875 67.65625 74.617188 67.507812 C 75.359375 67.359375 76.082031 67.140625 76.78125 66.851562 C 77.480469 66.5625 78.148438 66.207031 78.777344 65.785156 C 79.40625 65.363281 79.992188 64.886719 80.527344 64.351562 C 81.0625 63.816406 81.542969 63.230469 81.960938 62.601562 C 82.382812 61.972656 82.738281 61.308594 83.027344 60.605469 C 83.320312 59.90625 83.539062 59.183594 83.6875 58.441406 C 83.832031 57.699219 83.90625 56.949219 83.90625 56.191406 C 83.90625 55.433594 83.832031 54.683594 83.6875 53.9375 C 83.539062 53.195312 83.320312 52.472656 83.027344 51.773438 C 82.738281 51.074219 82.382812 50.410156 81.960938 49.777344 C 81.542969 49.148438 81.0625 48.566406 80.527344 48.03125 C 79.992188 47.496094 79.40625 47.015625 78.777344 46.59375 C 78.148438 46.175781 77.480469 45.820312 76.78125 45.53125 C 76.082031 45.238281 75.359375 45.019531 74.617188 44.875 C 73.875 44.726562 73.121094 44.652344 72.363281 44.652344 Z M 72.363281 44.652344 " fill-opacity="1" fill-rule="nonzero"/><path fill="#472b29" d="M 72.363281 45.757812 C 78.117188 45.757812 82.796875 50.4375 82.796875 56.191406 C 82.796875 61.941406 78.117188 66.621094 72.363281 66.621094 C 66.613281 66.621094 61.933594 61.941406 61.933594 56.191406 C 61.933594 50.4375 66.613281 45.757812 72.363281 45.757812 M 72.363281 43.546875 C 65.382812 43.546875 59.722656 49.207031 59.722656 56.191406 C 59.722656 63.171875 65.382812 68.835938 72.363281 68.835938 C 79.347656 68.835938 85.007812 63.171875 85.007812 56.191406 C 85.007812 49.207031 79.347656 43.546875 72.363281 43.546875 Z M 72.363281 43.546875 " fill-opacity="1" fill-rule="nonzero"/><path fill="#472b29" d="M 79.476562 56.585938 C 79.257812 56.585938 79.082031 56.410156 79.082031 56.191406 C 79.082031 53.726562 77.734375 51.464844 75.566406 50.285156 C 75.378906 50.179688 75.304688 49.941406 75.410156 49.75 C 75.515625 49.558594 75.753906 49.488281 75.945312 49.589844 C 78.367188 50.910156 79.871094 53.4375 79.871094 56.191406 C 79.871094 56.410156 79.695312 56.585938 79.476562 56.585938 Z M 72.363281 63.699219 C 68.226562 63.699219 64.859375 60.328125 64.859375 56.191406 C 64.859375 52.050781 68.226562 48.683594 72.363281 48.683594 C 72.582031 48.683594 72.761719 48.859375 72.761719 49.078125 C 72.761719 49.296875 72.582031 49.472656 72.363281 49.472656 C 68.660156 49.472656 65.648438 52.484375 65.648438 56.191406 C 65.648438 59.894531 68.660156 62.90625 72.363281 62.90625 C 74.683594 62.90625 76.808594 61.734375 78.046875 59.773438 C 78.167969 59.589844 78.414062 59.539062 78.59375 59.652344 C 78.777344 59.765625 78.832031 60.011719 78.714844 60.195312 C 77.332031 62.390625 74.957031 63.699219 72.363281 63.699219 Z M 72.363281 63.699219 " fill-opacity="1" fill-rule="nonzero"/><path fill="#60be92" d="M 119.777344 88.90625 C 119.019531 88.90625 118.269531 88.980469 117.527344 89.128906 C 116.785156 89.273438 116.0625 89.496094 115.363281 89.785156 C 114.664062 90.074219 114 90.429688 113.367188 90.851562 C 112.738281 91.269531 112.15625 91.75 111.621094 92.285156 C 111.085938 92.820312 110.605469 93.402344 110.1875 94.035156 C 109.765625 94.664062 109.410156 95.328125 109.121094 96.027344 C 108.828125 96.726562 108.609375 97.449219 108.460938 98.191406 C 108.316406 98.933594 108.242188 99.6875 108.242188 100.441406 C 108.242188 101.199219 108.316406 101.949219 108.460938 102.695312 C 108.609375 103.4375 108.828125 104.160156 109.121094 104.859375 C 109.410156 105.558594 109.765625 106.222656 110.1875 106.851562 C 110.605469 107.484375 111.085938 108.066406 111.621094 108.601562 C 112.15625 109.136719 112.738281 109.617188 113.367188 110.035156 C 114 110.457031 114.664062 110.8125 115.363281 111.101562 C 116.0625 111.390625 116.785156 111.609375 117.527344 111.757812 C 118.269531 111.90625 119.019531 111.980469 119.777344 111.980469 C 120.535156 111.980469 121.285156 111.90625 122.03125 111.757812 C 122.773438 111.609375 123.492188 111.390625 124.195312 111.101562 C 124.894531 110.8125 125.558594 110.457031 126.1875 110.035156 C 126.816406 109.617188 127.402344 109.136719 127.9375 108.601562 C 128.472656 108.066406 128.949219 107.484375 129.371094 106.851562 C 129.792969 106.222656 130.148438 105.558594 130.4375 104.859375 C 130.726562 104.160156 130.945312 103.4375 131.09375 102.695312 C 131.242188 101.949219 131.316406 101.199219 131.316406 100.441406 C 131.316406 99.6875 131.242188 98.933594 131.09375 98.191406 C 130.945312 97.449219 130.726562 96.726562 130.4375 96.027344 C 130.148438 95.328125 129.792969 94.664062 129.371094 94.035156 C 128.949219 93.402344 128.472656 92.820312 127.9375 92.285156 C 127.402344 91.75 126.816406 91.269531 126.1875 90.851562 C 125.558594 90.429688 124.894531 90.074219 124.195312 89.785156 C 123.492188 89.496094 122.773438 89.273438 122.03125 89.128906 C 121.285156 88.980469 120.535156 88.90625 119.777344 88.90625 Z M 119.777344 88.90625 " fill-opacity="1" fill-rule="nonzero"/><path fill="#472b29" d="M 119.777344 90.011719 C 125.53125 90.011719 130.210938 94.691406 130.210938 100.441406 C 130.210938 106.195312 125.53125 110.875 119.777344 110.875 C 114.027344 110.875 109.347656 106.195312 109.347656 100.441406 C 109.347656 94.691406 114.027344 90.011719 119.777344 90.011719 M 119.777344 87.800781 C 112.796875 87.800781 107.136719 93.460938 107.136719 100.441406 C 107.136719 107.425781 112.796875 113.085938 119.777344 113.085938 C 126.761719 113.085938 132.421875 107.425781 132.421875 100.441406 C 132.421875 93.460938 126.761719 87.800781 119.777344 87.800781 Z M 119.777344 87.800781 " fill-opacity="1" fill-rule="nonzero"/><path fill="#39c2d8" d="M 64.726562 110.398438 C 63.449219 110.398438 62.410156 109.359375 62.410156 108.082031 L 62.410156 92.804688 C 62.410156 91.527344 63.449219 90.484375 64.726562 90.484375 L 80.003906 90.484375 C 81.285156 90.484375 82.320312 91.527344 82.320312 92.804688 L 82.320312 108.082031 C 82.320312 109.359375 81.28125 110.398438 80.003906 110.398438 Z M 64.726562 110.398438 " fill-opacity="1" fill-rule="nonzero"/><path fill="#472b29" d="M 80.003906 91.59375 C 80.671875 91.59375 81.214844 92.136719 81.214844 92.804688 L 81.214844 108.082031 C 81.214844 108.75 80.671875 109.296875 80.003906 109.296875 L 64.726562 109.296875 C 64.054688 109.296875 63.511719 108.75 63.511719 108.082031 L 63.511719 92.804688 C 63.511719 92.136719 64.054688 91.59375 64.726562 91.59375 L 80.003906 91.59375 M 80.003906 89.378906 L 64.726562 89.378906 C 62.835938 89.378906 61.300781 90.914062 61.300781 92.804688 L 61.300781 108.082031 C 61.300781 109.972656 62.835938 111.507812 64.726562 111.507812 L 80.003906 111.507812 C 81.894531 111.507812 83.429688 109.972656 83.429688 108.082031 L 83.429688 92.804688 C 83.429688 90.914062 81.894531 89.378906 80.003906 89.378906 Z M 80.003906 89.378906 " fill-opacity="1" fill-rule="nonzero"/><path fill="#39c2d8" d="M 66.832031 95.964844 C 66.832031 95.382812 67.304688 94.910156 67.886719 94.910156 L 76.84375 94.910156 C 77.425781 94.910156 77.898438 95.382812 77.898438 95.964844 L 77.898438 104.921875 C 77.898438 105.503906 77.425781 105.976562 76.84375 105.976562 L 67.886719 105.976562 C 67.304688 105.976562 66.832031 105.503906 66.832031 104.921875 L 66.832031 99.984375 " fill-opacity="1" fill-rule="nonzero"/><path fill="#472b29" d="M 76.84375 106.371094 L 67.886719 106.371094 C 67.085938 106.371094 66.4375 105.71875 66.4375 104.921875 L 66.4375 99.980469 C 66.4375 99.761719 66.613281 99.585938 66.832031 99.585938 C 67.050781 99.585938 67.226562 99.761719 67.226562 99.980469 L 67.226562 104.921875 C 67.226562 105.28125 67.523438 105.578125 67.886719 105.578125 L 76.84375 105.578125 C 77.203125 105.578125 77.5 105.28125 77.5 104.921875 L 77.5 95.964844 C 77.5 95.605469 77.207031 95.308594 76.84375 95.308594 L 67.886719 95.308594 C 67.523438 95.308594 67.226562 95.605469 67.226562 95.964844 C 67.226562 96.183594 67.050781 96.359375 66.832031 96.359375 C 66.613281 96.359375 66.4375 96.183594 66.4375 95.964844 C 66.4375 95.167969 67.085938 94.515625 67.886719 94.515625 L 76.84375 94.515625 C 77.640625 94.515625 78.292969 95.167969 78.292969 95.964844 L 78.292969 104.921875 C 78.292969 105.71875 77.640625 106.371094 76.84375 106.371094 Z M 76.84375 106.371094 " fill-opacity="1" fill-rule="nonzero"/><path fill="#ef5390" d="M 118.988281 68.320312 C 118.539062 68.320312 118.113281 68.144531 117.796875 67.824219 L 106.25 56.28125 C 105.933594 55.964844 105.757812 55.539062 105.757812 55.089844 C 105.757812 54.636719 105.929688 54.214844 106.25 53.894531 L 117.796875 42.351562 C 118.113281 42.03125 118.539062 41.855469 118.988281 41.855469 C 119.4375 41.855469 119.863281 42.03125 120.179688 42.351562 L 131.726562 53.894531 C 132.042969 54.214844 132.21875 54.636719 132.21875 55.089844 C 132.21875 55.539062 132.046875 55.964844 131.726562 56.28125 L 120.179688 67.824219 C 119.863281 68.144531 119.4375 68.320312 118.988281 68.320312 Z M 118.988281 68.320312 " fill-opacity="1" fill-rule="nonzero"/><path fill="#472b29" d="M 118.988281 42.964844 C 119.097656 42.964844 119.257812 42.996094 119.398438 43.132812 L 130.941406 54.675781 C 131.167969 54.902344 131.167969 55.273438 130.941406 55.5 L 119.398438 67.042969 C 119.257812 67.183594 119.097656 67.210938 118.988281 67.210938 C 118.878906 67.210938 118.71875 67.179688 118.578125 67.042969 L 107.035156 55.5 C 106.808594 55.273438 106.808594 54.902344 107.035156 54.675781 L 118.578125 43.132812 C 118.71875 42.996094 118.878906 42.964844 118.988281 42.964844 M 118.988281 40.753906 C 118.273438 40.753906 117.558594 41.023438 117.011719 41.570312 L 105.46875 53.113281 C 104.378906 54.203125 104.378906 55.972656 105.46875 57.0625 L 117.011719 68.605469 C 117.558594 69.152344 118.273438 69.425781 118.988281 69.425781 C 119.703125 69.425781 120.417969 69.152344 120.964844 68.605469 L 132.507812 57.0625 C 133.597656 55.972656 133.597656 54.203125 132.507812 53.113281 L 120.964844 41.570312 C 120.417969 41.027344 119.703125 40.753906 118.988281 40.753906 Z M 118.988281 40.753906 " fill-opacity="1" fill-rule="nonzero"/><path fill="#472b29" d="M 100.023438 56.191406 L 90.539062 56.191406 C 90.105469 56.191406 89.75 55.835938 89.75 55.398438 C 89.75 54.964844 90.105469 54.609375 90.539062 54.609375 L 100.023438 54.609375 C 100.460938 54.609375 100.8125 54.964844 100.8125 55.398438 C 100.8125 55.835938 100.460938 56.191406 100.023438 56.191406 Z M 100.023438 56.191406 " fill-opacity="1" fill-rule="nonzero"/><path fill="#472b29" d="M 95.28125 60.933594 C 95.078125 60.933594 94.875 60.855469 94.722656 60.699219 C 94.414062 60.394531 94.414062 59.890625 94.722656 59.582031 L 98.902344 55.402344 L 94.722656 51.21875 C 94.414062 50.910156 94.414062 50.410156 94.722656 50.101562 C 95.03125 49.792969 95.53125 49.792969 95.839844 50.101562 L 100.582031 54.84375 C 100.890625 55.152344 100.890625 55.652344 100.582031 55.960938 L 95.839844 60.703125 C 95.6875 60.855469 95.484375 60.933594 95.28125 60.933594 Z M 95.28125 60.933594 " fill-opacity="1" fill-rule="nonzero"/><path fill="#472b29" d="M 71.574219 84.636719 C 71.136719 84.636719 70.785156 84.285156 70.785156 83.847656 L 70.785156 74.367188 C 70.785156 73.929688 71.136719 73.574219 71.574219 73.574219 C 72.011719 73.574219 72.363281 73.929688 72.363281 74.367188 L 72.363281 83.847656 C 72.363281 84.285156 72.011719 84.636719 71.574219 84.636719 Z M 71.574219 84.636719 " fill-opacity="1" fill-rule="nonzero"/><path fill="#472b29" d="M 76.316406 79.898438 C 76.113281 79.898438 75.910156 79.820312 75.757812 79.667969 L 71.574219 75.484375 L 67.394531 79.664062 C 67.085938 79.972656 66.582031 79.972656 66.273438 79.664062 C 65.96875 79.355469 65.96875 78.855469 66.273438 78.546875 L 71.015625 73.804688 C 71.324219 73.496094 71.824219 73.496094 72.132812 73.804688 L 76.875 78.546875 C 77.183594 78.855469 77.183594 79.355469 76.875 79.664062 C 76.71875 79.820312 76.519531 79.898438 76.316406 79.898438 Z M 76.316406 79.898438 " fill-opacity="1" fill-rule="nonzero"/><path fill="#472b29" d="M 118.988281 84.636719 C 118.550781 84.636719 118.199219 84.285156 118.199219 83.847656 L 118.199219 74.367188 C 118.199219 73.929688 118.550781 73.574219 118.988281 73.574219 C 119.425781 73.574219 119.777344 73.929688 119.777344 74.367188 L 119.777344 83.847656 C 119.777344 84.285156 119.425781 84.636719 118.988281 84.636719 Z M 118.988281 84.636719 " fill-opacity="1" fill-rule="nonzero"/><path fill="#472b29" d="M 118.988281 84.636719 C 118.785156 84.636719 118.582031 84.5625 118.429688 84.40625 L 113.6875 79.667969 C 113.378906 79.359375 113.378906 78.855469 113.6875 78.550781 C 113.996094 78.242188 114.496094 78.242188 114.804688 78.550781 L 118.988281 82.730469 L 123.167969 78.550781 C 123.476562 78.242188 123.976562 78.242188 124.285156 78.550781 C 124.59375 78.855469 124.59375 79.359375 124.285156 79.667969 L 119.542969 84.40625 C 119.394531 84.5625 119.191406 84.636719 118.988281 84.636719 Z M 118.988281 84.636719 " fill-opacity="1" fill-rule="nonzero"/><path fill="#472b29" d="M 126.890625 100.839844 C 126.671875 100.839844 126.496094 100.660156 126.496094 100.441406 C 126.496094 97.980469 125.148438 95.71875 122.980469 94.539062 C 122.789062 94.433594 122.71875 94.195312 122.824219 94.003906 C 122.929688 93.808594 123.167969 93.742188 123.359375 93.84375 C 125.78125 95.160156 127.285156 97.691406 127.285156 100.441406 C 127.285156 100.660156 127.109375 100.839844 126.890625 100.839844 Z M 126.890625 100.839844 " fill-opacity="1" fill-rule="nonzero"/><path fill="#472b29" d="M 119.777344 107.949219 C 115.640625 107.949219 112.269531 104.582031 112.269531 100.441406 C 112.269531 96.304688 115.640625 92.9375 119.777344 92.9375 C 119.996094 92.9375 120.171875 93.113281 120.171875 93.332031 C 120.171875 93.550781 119.996094 93.726562 119.777344 93.726562 C 116.074219 93.726562 113.0625 96.738281 113.0625 100.441406 C 113.0625 104.148438 116.074219 107.160156 119.777344 107.160156 C 122.097656 107.160156 124.222656 105.988281 125.464844 104.027344 C 125.578125 103.84375 125.824219 103.789062 126.007812 103.90625 C 126.191406 104.019531 126.246094 104.265625 126.128906 104.449219 C 124.746094 106.640625 122.367188 107.949219 119.777344 107.949219 Z M 119.777344 107.949219 " fill-opacity="1" fill-rule="nonzero"/><path fill="#472b29" d="M 119.027344 63.175781 C 118.628906 63.175781 118.226562 63.019531 117.925781 62.71875 L 110.917969 55.714844 C 110.3125 55.105469 110.3125 54.113281 110.917969 53.507812 L 117.925781 46.503906 C 118.53125 45.894531 119.523438 45.894531 120.132812 46.503906 L 127.136719 53.507812 C 127.742188 54.113281 127.742188 55.105469 127.136719 55.714844 L 123.273438 59.574219 C 123.117188 59.730469 122.867188 59.730469 122.714844 59.574219 C 122.558594 59.421875 122.558594 59.171875 122.714844 59.015625 L 126.574219 55.152344 C 126.875 54.851562 126.875 54.363281 126.574219 54.066406 L 119.570312 47.058594 C 119.273438 46.761719 118.78125 46.761719 118.484375 47.058594 L 111.476562 54.066406 C 111.175781 54.363281 111.175781 54.851562 111.476562 55.152344 L 118.484375 62.15625 C 118.78125 62.457031 119.273438 62.457031 119.570312 62.15625 C 119.726562 62.003906 119.976562 62.003906 120.132812 62.15625 C 120.285156 62.3125 120.285156 62.5625 120.132812 62.71875 C 119.828125 63.019531 119.425781 63.175781 119.027344 63.175781 Z M 119.027344 63.175781 " fill-opacity="1" fill-rule="nonzero"/><g fill="#a6a6a6" fill-opacity="1"><g transform="translate(34.128303, 158.127695)"><g><path d="M 15.765625 0 L 12.296875 0 L 10.359375 -7.53125 C 10.285156 -7.800781 10.160156 -8.351562 9.984375 -9.1875 C 9.816406 -10.03125 9.722656 -10.59375 9.703125 -10.875 C 9.660156 -10.53125 9.5625 -9.96875 9.40625 -9.1875 C 9.25 -8.40625 9.128906 -7.847656 9.046875 -7.515625 L 7.109375 0 L 3.65625 0 L 0 -14.328125 L 2.984375 -14.328125 L 4.828125 -6.515625 C 5.140625 -5.066406 5.367188 -3.8125 5.515625 -2.75 C 5.554688 -3.125 5.644531 -3.703125 5.78125 -4.484375 C 5.925781 -5.265625 6.0625 -5.867188 6.1875 -6.296875 L 8.28125 -14.328125 L 11.140625 -14.328125 L 13.234375 -6.296875 C 13.328125 -5.941406 13.441406 -5.394531 13.578125 -4.65625 C 13.710938 -3.914062 13.816406 -3.28125 13.890625 -2.75 C 13.953125 -3.257812 14.054688 -3.894531 14.203125 -4.65625 C 14.347656 -5.414062 14.476562 -6.035156 14.59375 -6.515625 L 16.421875 -14.328125 L 19.40625 -14.328125 Z M 15.765625 0 "/></g></g></g><g fill="#a6a6a6" fill-opacity="1"><g transform="translate(53.534231, 158.127695)"><g><path d="M 3.953125 -5.5 C 3.953125 -4.414062 4.128906 -3.59375 4.484375 -3.03125 C 4.835938 -2.476562 5.414062 -2.203125 6.21875 -2.203125 C 7.019531 -2.203125 7.59375 -2.476562 7.9375 -3.03125 C 8.289062 -3.582031 8.46875 -4.40625 8.46875 -5.5 C 8.46875 -6.582031 8.289062 -7.394531 7.9375 -7.9375 C 7.582031 -8.476562 7.003906 -8.75 6.203125 -8.75 C 5.410156 -8.75 4.835938 -8.476562 4.484375 -7.9375 C 4.128906 -7.40625 3.953125 -6.59375 3.953125 -5.5 Z M 11.53125 -5.5 C 11.53125 -3.71875 11.054688 -2.320312 10.109375 -1.3125 C 9.171875 -0.300781 7.863281 0.203125 6.1875 0.203125 C 5.132812 0.203125 4.207031 -0.0234375 3.40625 -0.484375 C 2.601562 -0.953125 1.984375 -1.617188 1.546875 -2.484375 C 1.117188 -3.347656 0.90625 -4.351562 0.90625 -5.5 C 0.90625 -7.289062 1.367188 -8.679688 2.296875 -9.671875 C 3.234375 -10.671875 4.550781 -11.171875 6.25 -11.171875 C 7.300781 -11.171875 8.226562 -10.941406 9.03125 -10.484375 C 9.832031 -10.023438 10.445312 -9.363281 10.875 -8.5 C 11.3125 -7.644531 11.53125 -6.644531 11.53125 -5.5 Z M 11.53125 -5.5 "/></g></g></g><g fill="#a6a6a6" fill-opacity="1"><g transform="translate(65.961866, 158.127695)"><g><path d="M 7.6875 -11.171875 C 8.09375 -11.171875 8.429688 -11.140625 8.703125 -11.078125 L 8.46875 -8.28125 C 8.226562 -8.34375 7.9375 -8.375 7.59375 -8.375 C 6.632812 -8.375 5.890625 -8.128906 5.359375 -7.640625 C 4.828125 -7.148438 4.5625 -6.460938 4.5625 -5.578125 L 4.5625 0 L 1.5625 0 L 1.5625 -10.953125 L 3.828125 -10.953125 L 4.28125 -9.125 L 4.421875 -9.125 C 4.765625 -9.738281 5.222656 -10.234375 5.796875 -10.609375 C 6.378906 -10.984375 7.007812 -11.171875 7.6875 -11.171875 Z M 7.6875 -11.171875 "/></g></g></g><g fill="#a6a6a6" fill-opacity="1"><g transform="translate(75.076771, 158.127695)"><g><path d="M 4.4375 -5.953125 L 5.75 -7.625 L 8.8125 -10.953125 L 12.1875 -10.953125 L 7.828125 -6.203125 L 12.453125 0 L 9 0 L 5.84375 -4.4375 L 4.5625 -3.40625 L 4.5625 0 L 1.5625 0 L 1.5625 -15.25 L 4.5625 -15.25 L 4.5625 -8.453125 L 4.40625 -5.953125 Z M 4.4375 -5.953125 "/></g></g></g><g fill="#a6a6a6" fill-opacity="1"><g transform="translate(87.524008, 158.127695)"><g><path d="M 7.625 -8.71875 L 5.046875 -8.71875 L 5.046875 0 L 2.046875 0 L 2.046875 -8.71875 L 0.40625 -8.71875 L 0.40625 -10.15625 L 2.046875 -10.953125 L 2.046875 -11.765625 C 2.046875 -13.015625 2.351562 -13.925781 2.96875 -14.5 C 3.582031 -15.070312 4.566406 -15.359375 5.921875 -15.359375 C 6.953125 -15.359375 7.867188 -15.207031 8.671875 -14.90625 L 7.90625 -12.703125 C 7.3125 -12.890625 6.757812 -12.984375 6.25 -12.984375 C 5.820312 -12.984375 5.515625 -12.859375 5.328125 -12.609375 C 5.140625 -12.359375 5.046875 -12.035156 5.046875 -11.640625 L 5.046875 -10.953125 L 7.625 -10.953125 Z M 7.625 -8.71875 "/></g></g></g><g fill="#a6a6a6" fill-opacity="1"><g transform="translate(95.296186, 158.127695)"><g><path d="M 4.5625 0 L 1.5625 0 L 1.5625 -15.25 L 4.5625 -15.25 Z M 4.5625 0 "/></g></g></g><g fill="#a6a6a6" fill-opacity="1"><g transform="translate(101.4218, 158.127695)"><g><path d="M 3.953125 -5.5 C 3.953125 -4.414062 4.128906 -3.59375 4.484375 -3.03125 C 4.835938 -2.476562 5.414062 -2.203125 6.21875 -2.203125 C 7.019531 -2.203125 7.59375 -2.476562 7.9375 -3.03125 C 8.289062 -3.582031 8.46875 -4.40625 8.46875 -5.5 C 8.46875 -6.582031 8.289062 -7.394531 7.9375 -7.9375 C 7.582031 -8.476562 7.003906 -8.75 6.203125 -8.75 C 5.410156 -8.75 4.835938 -8.476562 4.484375 -7.9375 C 4.128906 -7.40625 3.953125 -6.59375 3.953125 -5.5 Z M 11.53125 -5.5 C 11.53125 -3.71875 11.054688 -2.320312 10.109375 -1.3125 C 9.171875 -0.300781 7.863281 0.203125 6.1875 0.203125 C 5.132812 0.203125 4.207031 -0.0234375 3.40625 -0.484375 C 2.601562 -0.953125 1.984375 -1.617188 1.546875 -2.484375 C 1.117188 -3.347656 0.90625 -4.351562 0.90625 -5.5 C 0.90625 -7.289062 1.367188 -8.679688 2.296875 -9.671875 C 3.234375 -10.671875 4.550781 -11.171875 6.25 -11.171875 C 7.300781 -11.171875 8.226562 -10.941406 9.03125 -10.484375 C 9.832031 -10.023438 10.445312 -9.363281 10.875 -8.5 C 11.3125 -7.644531 11.53125 -6.644531 11.53125 -5.5 Z M 11.53125 -5.5 "/></g></g></g><g fill="#a6a6a6" fill-opacity="1"><g transform="translate(113.849435, 158.127695)"><g><path d="M 10.578125 0 L 9.734375 -3.828125 L 8.59375 -8.671875 L 8.53125 -8.671875 L 6.53125 0 L 3.3125 0 L 0.203125 -10.953125 L 3.171875 -10.953125 L 4.4375 -6.109375 C 4.644531 -5.234375 4.851562 -4.035156 5.0625 -2.515625 L 5.125 -2.515625 C 5.144531 -3.003906 5.253906 -3.789062 5.453125 -4.875 L 5.625 -5.703125 L 6.96875 -10.953125 L 10.265625 -10.953125 L 11.546875 -5.703125 C 11.578125 -5.554688 11.617188 -5.34375 11.671875 -5.0625 C 11.722656 -4.78125 11.773438 -4.484375 11.828125 -4.171875 C 11.878906 -3.859375 11.925781 -3.546875 11.96875 -3.234375 C 12.007812 -2.929688 12.035156 -2.691406 12.046875 -2.515625 L 12.109375 -2.515625 C 12.171875 -2.984375 12.273438 -3.625 12.421875 -4.4375 C 12.566406 -5.257812 12.675781 -5.816406 12.75 -6.109375 L 14.0625 -10.953125 L 16.984375 -10.953125 L 13.828125 0 Z M 10.578125 0 "/></g></g></g><g fill="#ff1616" fill-opacity="1"><g transform="translate(126.909611, 169.181332)"><g><path d="M 15.984375 0 L 14.421875 -5.15625 L 6.515625 -5.15625 L 4.953125 0 L 0 0 L 7.640625 -21.75 L 13.265625 -21.75 L 20.9375 0 Z M 13.3125 -9.015625 C 11.863281 -13.679688 11.046875 -16.320312 10.859375 -16.9375 C 10.679688 -17.550781 10.550781 -18.035156 10.46875 -18.390625 C 10.144531 -17.117188 9.210938 -13.992188 7.671875 -9.015625 Z M 13.3125 -9.015625 "/></g></g></g><g fill="#ff1616" fill-opacity="1"><g transform="translate(147.837841, 169.181332)"><g><path d="M 2.71875 0 L 2.71875 -21.65625 L 7.3125 -21.65625 L 7.3125 0 Z M 2.71875 0 "/></g></g></g></svg>